**ABCDEFGHIJKLMNOPQRSTUVWXYZabcdefghijklmnopqrstuvwxyz**************************
**PARASOLID !"#$%&'()*+,-./:;<=>?@[\]^_`{|}~0123456789**************************
**PART1;
MC=AMD64;
MC_MODEL=Intel64 Family 6 Model 151 Stepping 2, GenuineIntel;
MC_ID=unknown;
OS=Windows_NT;
OS_RELEASE=unknown;
FRU=Parasolid Version 32.1, build 255,  1- 1-2021;
APPL=SOLIDWORKS 2021-2021301;
SITE=;
USER=unknown;
FORMAT=text;
GUISE=transmit;
KEY=my_model;
FILE=my_model.x_t;
DATE=Mon Aug  5 12:52:23 2024;
**PART2;
SCH=SCH_3201255_32001;
USFLD_SIZE=0;
**PART3;
**END_OF_HEADER*****************************************************************
T51 : TRANSMIT FILE created by modeller version 320125523 SCH_3201255_32001_1300
6229 0 12 34 CCCCCCI4 mesh1006 0 I8 polyline1008 0 CCCCCCCDI5 owner1040 0 CCCCCC
I13 boundary_mesh1006 0 I17 boundary_polyline1008 0 CCCA16 index_map_offset0 0 1
 dA9 index_map82 0 A17 node_id_index_map82 0 A20 schema_embedding_map82 0 A5 chi
ld12 0 A14 lowest_node_id0 0 1 dA16 mesh_offset_data206 0 Z1 1073 2 3 0 0 0 0 0
 0 1e3 1e-8 0 4 0 1 0 1 1 5 6 7 8 0 0 9 10 11 0 0 0 0 0 0 0 81 255 2 2 1043 12 1
 13 0 0 0 0 14 70 11 CI9 list_type0 0 1 uI10 notransmit0 0 1 lCCCDCCDI12 finger_
index0 0 1 dI12 finger_block1012 0 CZ3 0 4 T1 0 0 8 20 1 15 15 13 255 5 225 0 1
 0 16 0 0 17 0 50 255 6 212 0 16 18 0 0 +0 .2 .06 -1284980352575412e-31 0 -1 -1
 0 1284980352575412e-31 30 255 7 222 0 10 19 0 0 +.054 .2 .06 0 -1 0 29 255 8 16
6 0 20 21 0 .015 0 .056 19 8 CCCCCCCA5 owner12 0 Z9 75 0 1 17 0 22 V0 16 255 10
 182 0 ?23 0 24 7 0 0 1 18 255 11 69 0 25 0 26 27 ?1 17 255 25 0 28 29 30 11 31
 32 0 33 +18 26 66 0 30 11 34 35 ?1 29 27 71 0 11 35 36 .015 .2 .056 29 35 68 0
 26 37 27 .054 .2 .056 29 36 172 0 38 27 39 .054 0 .06 18 38 151 0 40 41 42 36 ?
1 29 39 171 0 41 36 43 .06 0 .054 18 41 150 0 44 45 38 39 ?1 29 43 170 0 45 39 4
6 .06 0 .042 18 45 149 0 47 48 41 43 ?1 29 46 169 0 48 43 49 .056 0 .042 18 48 1
48 0 50 51 45 46 ?1 29 49 168 0 51 46 21 .056 0 .054 18 51 147 0 52 53 48 49 ?1
 29 21 167 0 53 49 8 .054 0 .056 18 53 146 0 54 20 51 21 ?1 17 54 0 55 56 57 53
 58 59 0 60 +18 20 145 0 61 62 53 8 ?1 17 61 0 63 33 60 20 64 65 0 66 +18 62 51
 0 67 68 20 69 ?1 17 67 0 28 70 71 62 72 73 0 74 +18 68 54 0 70 75 62 76 ?1 29 6
9 53 0 62 77 76 .054 .2 .06 29 77 481 0 78 79 69 -.015 0 .056 29 76 56 0 68 69 8
0 .06 .2 .054 29 80 59 0 75 76 81 .06 .2 .042 18 75 57 0 82 83 68 80 ?1 29 81 62
 0 83 80 37 .056 .2 .042 18 83 60 0 84 34 75 81 ?1 29 37 65 0 34 81 35 .056 .2 .
054 18 34 63 0 85 26 83 37 ?1 17 85 0 28 30 84 34 86 87 0 88 +15 255 28 4 0 29 8
9 0 17 30 0 28 25 85 26 90 91 0 56 +17 84 0 28 85 82 83 92 93 0 94 +17 86 0 95 9
6 88 83 85 87 0 0 -16 87 29 0 ?85 91 93 97 0 0 1 17 88 0 95 86 52 34 57 98 0 90
 -15 95 191 0 52 99 0 17 52 0 95 88 96 51 100 101 0 57 +17 57 0 55 54 90 51 88 9
8 0 58 +16 98 178 0 ?57 102 103 104 0 0 1 17 90 0 55 57 56 34 30 91 0 0 -15 55 1
89 0 54 105 0 17 56 0 55 90 54 26 60 103 0 31 -16 91 33 0 ?30 32 87 106 0 0 1 16
 32 37 0 ?25 107 91 108 0 0 1 31 255 106 35 0 91 97 108 0 +.054 .2 .054 0 -1 0 0
 0 -1 .002 30 97 31 0 87 109 106 0 +.056 .2 .042 0 0 1 30 108 39 0 32 106 110 0
 +.054 .2 .056 -1 0 0 30 110 43 0 107 108 111 0 +.015 .2 .056 0 0 -1 16 107 41 0
 ?29 112 32 110 0 0 1 30 111 162 0 113 110 114 0 +0 0 .06 1 0 -1284980352575412e
-31 16 113 132 0 ?40 115 116 111 0 0 1 31 114 161 0 115 111 117 0 +.054 0 .054 0
 1 0 0 0 -1 .006 16 115 128 0 ?44 118 113 114 0 0 1 30 117 160 0 118 114 119 0 +
.06 0 .054 0 0 -1 16 118 124 0 ?47 120 115 117 0 0 1 30 119 159 0 120 117 121 0
 +.06 0 .042 -1 0 0 16 120 120 0 ?50 101 118 119 0 0 1 30 121 158 0 101 119 122
 0 +.056 0 .042 0 0 1 16 101 116 0 ?52 59 120 121 0 0 1 31 122 157 0 59 121 123
 0 +.054 0 .054 0 -1 0 0 0 -1 .002 16 59 112 0 ?54 65 101 122 0 0 1 30 123 156 0
 65 122 124 0 +.054 0 .056 -1 0 0 16 65 108 0 ?61 125 59 123 0 0 1 30 124 155 0
 125 123 126 0 +.015 0 .056 0 0 -1 16 125 104 0 ?127 73 65 124 0 0 1 30 126 216
 0 112 124 128 0 +.015 .2 .056 0 -1 0 16 112 176 0 ?66 103 107 126 0 0 1 30 128
 217 0 103 126 104 0 +.054 .2 .056 0 -1 0 16 103 177 0 ?60 98 112 128 0 0 1 30 1
04 218 0 98 128 129 0 +.056 .2 .054 0 -1 0 30 129 219 0 102 104 130 0 +.056 .2 .
042 0 -1 0 16 102 179 0 ?96 131 98 129 0 0 1 30 130 220 0 131 129 19 0 +.06 .2 .
042 0 -1 0 16 131 180 0 ?132 24 102 130 0 0 1 30 19 221 0 24 130 7 0 +.06 .2 .05
4 0 -1 0 16 24 181 0 ?133 10 131 19 0 0 1 17 133 0 134 47 135 41 136 24 0 137 +1
5 134 195 0 47 138 0 17 47 0 134 139 133 45 137 118 0 132 +17 135 0 134 133 139
 68 82 140 0 0 -17 136 0 141 142 44 68 133 24 0 135 -17 137 0 143 144 145 41 47
 118 0 0 -15 143 103 0 146 147 0 17 144 0 143 148 137 38 44 115 0 0 -17 145 0 14
3 137 100 45 50 120 0 0 -17 100 0 143 145 58 48 52 101 0 0 -17 50 0 149 94 132 4
8 145 120 0 96 +15 149 193 0 50 150 0 17 94 0 149 92 50 83 96 102 0 86 -17 132 0
 149 50 92 45 139 131 0 145 +17 96 0 95 52 86 48 94 102 0 100 +17 92 0 149 132 9
4 75 84 93 0 0 -17 139 0 134 135 47 75 132 131 0 92 -16 93 25 0 ?84 87 140 109 0
 0 1 16 140 21 0 ?82 93 151 152 0 0 1 30 109 27 0 93 152 97 0 +.06 .2 .042 -1 0
 0 30 152 23 0 140 153 109 0 +.06 .2 .054 0 0 -1 31 153 19 0 151 154 152 0 +.054
 .2 .054 0 1 0 0 0 -1 .006 16 151 17 0 ?70 140 73 153 0 0 1 30 154 15 0 73 155 1
53 0 +0 .2 .06 1 0 -1284980352575412e-31 16 73 13 0 ?67 151 125 154 0 0 1 30 155
 452 0 116 156 154 0 +-.054 .2 .06 0 -1 0 16 116 341 0 ?157 113 158 155 0 0 1 30
 156 453 0 158 159 155 0 +-.06 .2 .054 0 -1 0 16 158 343 0 ?160 116 161 156 0 0
 1 30 159 454 0 161 162 156 0 +-.06 .2 .042 0 -1 0 16 161 345 0 ?163 158 164 159
 0 0 1 30 162 455 0 164 165 159 0 +-.056 .2 .042 0 -1 0 16 164 347 0 ?166 161 16
7 162 0 0 1 30 165 456 0 167 168 162 0 +-.056 .2 .054 0 -1 0 16 167 349 0 ?169 1
64 170 165 0 0 1 30 168 457 0 170 171 165 0 +-.054 .2 .056 0 -1 0 16 170 351 0 ?
172 167 173 168 0 0 1 30 171 458 0 173 174 168 0 +-.015 .2 .056 0 -1 0 16 173 35
3 0 ?175 170 176 171 0 0 1 30 174 460 0 177 178 171 0 +-.015 0 .056 0 0 -1 16 17
7 365 0 ?146 179 180 174 0 0 1 30 178 461 0 180 181 174 0 +-.054 0 .056 1 0 0 16
 180 364 0 ?182 177 183 178 0 0 1 31 181 462 0 183 184 178 0 +-.054 0 .054 0 1 0
 0 0 -1 .002 16 183 363 0 ?185 180 186 181 0 0 1 30 184 463 0 186 187 181 0 +-.0
56 0 .042 0 0 1 16 186 362 0 ?188 183 189 184 0 0 1 30 187 464 0 189 190 184 0 +
-.06 0 .042 1 0 0 16 189 361 0 ?191 186 192 187 0 0 1 30 190 465 0 192 193 187 0
 +-.06 0 .054 0 0 -1 16 192 360 0 ?194 189 195 190 0 0 1 31 193 466 0 195 196 19
0 0 +-.054 0 .054 0 -1 0 0 0 -1 .006 16 195 359 0 ?197 192 198 193 0 0 1 30 196
 470 0 176 199 193 0 +-.015 .2 .056 0 0 -1 16 176 354 0 ?200 173 201 196 0 0 1 3
0 199 471 0 201 202 196 0 +-.054 .2 .056 1 0 0 16 201 352 0 ?203 176 204 199 0 0
 1 31 202 472 0 204 205 199 0 +-.054 .2 .054 0 1 0 0 0 -1 .002 16 204 350 0 ?206
 201 207 202 0 0 1 30 205 473 0 207 208 202 0 +-.056 .2 .042 0 0 1 16 207 348 0
 ?209 204 210 205 0 0 1 30 208 474 0 210 211 205 0 +-.06 .2 .042 1 0 0 16 210 34
6 0 ?212 207 213 208 0 0 1 30 211 475 0 213 214 208 0 +-.06 .2 .054 0 0 -1 16 21
3 344 0 ?215 210 179 211 0 0 1 31 214 476 0 179 216 211 0 +-.054 .2 .054 0 -1 0
 0 0 -1 .006 16 179 342 0 ?217 213 177 214 0 0 1 30 216 776 0 198 218 214 0 +.05
4 .2 -.06 0 -1 0 16 198 601 0 ?219 195 220 216 0 0 1 30 218 777 0 220 221 216 0
 +.06 .2 -.054 0 -1 0 16 220 603 0 ?222 198 223 218 0 0 1 30 221 778 0 223 224 2
18 0 +.06 .2 -.042 0 -1 0 16 223 605 0 ?225 220 226 221 0 0 1 30 224 779 0 226 2
27 221 0 +.056 .2 -.042 0 -1 0 16 226 607 0 ?228 223 229 224 0 0 1 30 227 780 0
 229 230 224 0 +.056 .2 -.054 0 -1 0 16 229 609 0 ?231 226 232 227 0 0 1 30 230
 781 0 232 233 227 0 +.054 .2 -.056 0 -1 0 16 232 611 0 ?234 229 235 230 0 0 1 3
0 233 782 0 235 236 230 0 +.015 .2 -.056 0 -1 0 16 235 613 0 ?237 232 238 233 0
 0 1 30 236 785 0 239 240 233 0 +.054 0 -.056 -1 0 653144959545255e-31 16 239 63
0 0 ?241 242 243 236 0 0 1 31 240 786 0 243 244 236 0 +.054 0 -.054 0 1 0 653144
959545255e-31 0 1 .002 16 243 629 0 ?245 239 246 240 0 0 1 30 244 787 0 246 247
 240 0 +.056 0 -.042 -653144959545255e-31 0 -1 16 246 628 0 ?248 243 249 244 0 0
 1 30 247 788 0 249 250 244 0 +.06 0 -.042 -1 0 653144959545255e-31 16 249 627 0
 ?251 246 252 247 0 0 1 30 250 789 0 252 253 247 0 +.06 0 -.054 653144959545255e
-31 0 1 16 252 626 0 ?254 249 255 250 0 0 1 31 253 790 0 255 256 250 0 +.054 0 -
.054 0 -1 0 653144959545255e-31 0 1 .006 16 255 625 0 ?257 252 258 253 0 0 1 30
 256 791 0 258 259 253 0 +-391886975727153e-32 0 -.06 1 0 631835393030158e-31 16
 258 624 0 ?260 255 261 256 0 0 1 30 259 794 0 238 262 256 0 +.054 .2 -.056 -1 0
 653144959545255e-31 16 238 612 0 ?263 235 264 259 0 0 1 31 262 795 0 264 265 25
9 0 +.054 .2 -.054 0 1 0 653144959545255e-31 0 1 .002 16 264 610 0 ?266 238 267
 262 0 0 1 30 265 796 0 267 268 262 0 +.056 .2 -.042 -653144959545255e-31 0 -1 1
6 267 608 0 ?269 264 270 265 0 0 1 30 268 797 0 270 271 265 0 +.06 .2 -.042 -1 0
 653144959545255e-31 16 270 606 0 ?272 267 273 268 0 0 1 30 271 798 0 273 274 26
8 0 +.06 .2 -.054 653144959545255e-31 0 1 16 273 604 0 ?275 270 276 271 0 0 1 31
 274 799 0 276 277 271 0 +.054 .2 -.054 0 -1 0 653144959545255e-31 0 1 .006 16 2
76 602 0 ?278 273 242 274 0 0 1 30 277 800 0 242 279 274 0 +-391886975727153e-32
 .2 -.06 1 0 631835393030158e-31 16 242 600 0 ?280 276 239 277 0 0 1 30 279 802
 0 261 281 277 0 +-.054 .2 -.06 0 -1 0 16 261 633 0 ?282 258 283 279 0 0 1 30 28
1 803 0 283 284 279 0 +-.06 .2 -.054 0 -1 0 16 283 635 0 ?285 261 286 281 0 0 1
 30 284 804 0 286 287 281 0 +-.06 .2 -.042 0 -1 0 16 286 637 0 ?288 283 289 284
 0 0 1 30 287 805 0 289 290 284 0 +-.056 .2 -.042 0 -1 0 16 289 639 0 ?291 286 2
92 287 0 0 1 30 290 806 0 292 293 287 0 +-.056 .2 -.054 0 -1 0 16 292 641 0 ?294
 289 295 290 0 0 1 30 293 807 0 295 296 290 0 +-.054 .2 -.056 0 -1 0 16 295 643
 0 ?297 292 298 293 0 0 1 30 296 808 0 298 299 293 0 +-.015 .2 -.056 0 -1 0 16 2
98 645 0 ?300 295 301 296 0 0 1 30 299 811 0 302 303 296 0 +-.054 0 -.056 1 0 -6
53144959545255e-31 16 302 642 0 ?304 305 306 299 0 0 1 31 303 812 0 306 307 299
 0 +-.054 0 -.054 0 -1 0 653144959545255e-31 0 1 .002 16 306 640 0 ?308 302 309
 303 0 0 1 30 307 813 0 309 310 303 0 +-.056 0 -.042 -653144959545255e-31 0 -1 1
6 309 638 0 ?311 306 312 307 0 0 1 30 310 814 0 312 313 307 0 +-.06 0 -.042 1 0
 -653144959545255e-31 16 312 636 0 ?314 309 315 310 0 0 1 30 313 815 0 315 316 3
10 0 +-.06 0 -.054 653144959545255e-31 0 1 16 315 634 0 ?317 312 318 313 0 0 1 3
1 316 816 0 318 319 313 0 +-.054 0 -.054 0 1 0 653144959545255e-31 0 1 .006 16 3
18 632 0 ?320 315 0 316 0 0 1 30 319 818 0 301 321 316 0 +-.054 .2 -.056 1 0 -65
3144959545255e-31 16 301 621 0 ?322 298 323 319 0 0 1 31 321 819 0 323 324 319 0
 +-.054 .2 -.054 0 -1 0 653144959545255e-31 0 1 .002 16 323 620 0 ?325 301 326 3
21 0 0 1 30 324 820 0 326 327 321 0 +-.056 .2 -.042 -653144959545255e-31 0 -1 16
 326 619 0 ?328 323 329 324 0 0 1 30 327 821 0 329 330 324 0 +-.06 .2 -.042 1 0
 -653144959545255e-31 16 329 618 0 ?331 326 332 327 0 0 1 30 330 822 0 332 333 3
27 0 +-.06 .2 -.054 653144959545255e-31 0 1 16 332 617 0 ?334 329 305 330 0 0 1
 31 333 823 0 305 0 330 0 +-.054 .2 -.054 0 1 0 653144959545255e-31 0 1 .006 16
 305 616 0 ?335 332 302 333 0 0 1 17 335 0 28 334 336 337 338 305 0 0 +17 334 0
 28 331 335 339 340 332 0 0 +17 336 0 28 335 341 342 280 242 0 343 -18 337 664 0
 344 339 342 345 ?1 17 338 0 346 282 344 342 335 305 0 336 -15 346 731 0 320 347
 0 17 282 0 346 320 338 348 343 261 0 349 +17 344 0 346 338 320 337 285 283 0 34
0 -18 342 665 0 338 337 350 351 ?1 18 350 677 0 146 342 352 353 ?1 29 351 855 0
 342 0 345 -.054 .2 -.06 29 345 854 0 337 351 354 -.06 .2 -.054 29 354 853 0 339
 345 355 -.06 .2 -.042 18 339 666 0 356 357 337 354 ?1 29 355 852 0 357 354 358
 -.056 .2 -.042 18 357 668 0 359 360 339 355 ?1 29 358 851 0 360 355 361 -.056 .
2 -.054 18 360 670 0 362 363 357 358 ?1 29 361 850 0 363 358 364 -.054 .2 -.056
 18 363 672 0 365 366 360 361 ?1 29 364 849 0 366 361 367 -.015 .2 -.056 18 366
 674 0 200 368 363 364 ?1 29 367 847 0 348 364 369 -.054 0 -.06 18 348 662 0 370
 371 0 367 ?1 29 369 846 0 371 367 372 -.06 0 -.054 18 371 667 0 285 373 348 369
 ?1 29 372 845 0 373 369 374 -.06 0 -.042 18 373 669 0 288 375 371 372 ?1 29 374
 844 0 375 372 376 -.056 0 -.042 18 375 671 0 291 377 373 374 ?1 29 376 843 0 37
7 374 378 -.056 0 -.054 18 377 673 0 294 352 375 376 ?1 29 378 842 0 352 376 353
 -.054 0 -.056 18 352 675 0 297 350 377 378 ?1 29 353 841 0 350 378 379 -.015 0
 -.056 29 379 839 0 380 353 381 .054 .2 -.06 18 380 660 0 341 382 383 379 ?1 29
 381 838 0 382 379 384 .06 .2 -.054 18 382 659 0 385 386 380 381 ?1 29 384 837 0
 386 381 387 .06 .2 -.042 18 386 658 0 388 389 382 384 ?1 29 387 836 0 389 384 3
90 .056 .2 -.042 18 389 657 0 391 392 386 387 ?1 29 390 835 0 392 387 393 .056 .
2 -.054 18 392 656 0 394 395 389 390 ?1 29 393 834 0 395 390 396 .054 .2 -.056 1
8 395 655 0 397 398 392 393 ?1 29 396 833 0 398 393 399 .015 .2 -.056 18 398 654
 0 29 400 395 396 ?1 29 399 831 0 368 396 401 .054 0 -.06 18 368 646 0 402 403 3
66 399 ?1 29 401 830 0 403 399 404 .06 0 -.054 18 403 647 0 405 406 368 401 ?1 2
9 404 829 0 406 401 407 .06 0 -.042 18 406 648 0 408 409 403 404 ?1 29 407 828 0
 409 404 410 .056 0 -.042 18 409 649 0 411 412 406 407 ?1 29 410 827 0 412 407 4
13 .056 0 -.054 18 412 650 0 414 415 409 410 ?1 29 413 826 0 415 410 416 .054 0
 -.056 18 415 651 0 417 383 412 413 ?1 29 416 825 0 383 413 418 .015 0 -.056 18
 383 652 0 127 380 415 416 ?1 29 418 497 0 419 416 420 -.054 .2 .06 18 419 382 0
 72 421 78 418 ?1 29 420 496 0 421 418 422 -.06 .2 .054 18 421 381 0 423 424 419
 420 ?1 29 422 495 0 424 420 425 -.06 .2 .042 18 424 380 0 426 427 421 422 ?1 29
 425 494 0 427 422 428 -.056 .2 .042 18 427 379 0 429 430 424 425 ?1 29 428 493
 0 430 425 431 -.056 .2 .054 18 430 378 0 432 433 427 428 ?1 29 431 492 0 433 42
8 434 -.054 .2 .056 18 433 377 0 435 42 430 431 ?1 29 434 491 0 42 431 436 -.015
 .2 .056 18 42 376 0 437 38 433 434 ?1 29 436 487 0 400 434 438 -.054 0 .06 18 4
00 368 0 148 439 398 436 ?1 29 438 486 0 439 436 440 -.06 0 .054 18 439 369 0 44
1 442 400 438 ?1 29 440 485 0 442 438 443 -.06 0 .042 18 442 370 0 444 445 439 4
40 ?1 29 443 484 0 445 440 446 -.056 0 .042 18 445 371 0 447 448 442 443 ?1 29 4
46 483 0 448 443 79 -.056 0 .054 18 448 372 0 449 450 445 446 ?1 29 79 482 0 450
 446 77 -.054 0 .056 18 450 373 0 451 78 448 79 ?1 17 451 0 452 453 175 450 182
 180 0 172 -18 78 374 0 454 419 450 77 ?1 17 454 0 455 456 300 78 146 177 0 175
 -15 455 427 0 454 457 0 17 456 0 455 200 454 42 175 173 0 203 -17 300 0 455 454
 200 350 458 298 0 304 +17 146 0 143 459 182 350 454 177 0 300 +17 175 0 452 451
 203 78 456 173 0 182 +15 452 423 0 451 460 0 17 203 0 452 175 453 42 435 201 0
 0 +17 182 0 143 146 185 78 451 180 0 0 +17 185 0 143 182 188 450 449 183 0 0 +1
7 188 0 143 185 191 448 447 186 0 0 +17 449 0 461 462 172 448 185 183 0 169 -15
 461 419 0 449 463 0 17 462 0 461 206 449 430 169 167 0 209 -17 172 0 461 449 20
6 450 453 170 0 185 +17 169 0 464 447 209 448 462 167 0 188 +15 464 415 0 447 46
5 0 17 447 0 464 466 169 445 188 186 0 166 -17 209 0 464 169 466 430 429 207 0 0
 +17 466 0 464 209 447 427 166 164 0 212 -17 429 0 28 426 432 427 209 207 0 466
 -17 426 0 28 423 429 424 212 210 0 467 -17 432 0 28 429 435 430 206 204 0 462 -
17 435 0 28 432 437 433 203 201 0 453 -17 206 0 461 172 462 433 432 204 0 0 +17
 437 0 28 435 322 42 200 176 0 456 -17 453 0 452 203 451 433 172 170 0 206 -17 3
22 0 28 437 325 366 468 301 0 0 +17 200 0 455 300 456 366 437 176 0 458 +17 458
 0 469 468 304 366 300 298 0 322 -15 469 751 0 304 470 0 17 468 0 469 297 458 36
3 322 301 0 325 -17 304 0 469 458 297 350 459 302 0 0 +17 297 0 469 304 468 352
 365 295 0 308 +17 459 0 143 471 146 352 304 302 0 0 -17 471 0 143 472 459 377 3
08 306 0 0 -17 472 0 143 473 471 375 311 309 0 0 -17 308 0 474 365 294 352 471 3
06 0 459 +15 474 747 0 308 475 0 17 365 0 474 476 308 363 297 295 0 468 -17 294
 0 474 308 476 377 362 292 0 311 +17 476 0 474 294 365 360 325 323 0 328 -17 362
 0 477 478 311 360 294 292 0 476 -17 311 0 477 362 291 377 472 309 0 471 +15 477
 743 0 311 479 0 17 291 0 477 311 478 375 359 289 0 314 +17 478 0 477 291 362 35
7 328 326 0 331 -17 359 0 480 481 314 357 291 289 0 478 -17 314 0 480 359 288 37
5 473 312 0 472 +15 480 739 0 314 482 0 17 288 0 480 314 481 373 356 286 0 317 +
17 473 0 143 483 472 373 314 312 0 0 -17 483 0 143 370 473 371 317 315 0 0 -17 3
70 0 143 260 483 348 320 318 0 282 -17 317 0 484 356 285 373 483 315 0 473 +15 4
84 735 0 317 485 0 17 356 0 484 340 317 339 288 286 0 481 -17 285 0 484 317 340
 371 344 283 0 320 +17 340 0 484 285 356 337 334 332 0 335 -17 320 0 346 344 282
 371 370 318 0 483 +17 481 0 480 288 359 339 331 329 0 334 -17 331 0 28 328 334
 357 481 329 0 0 +17 328 0 28 325 331 360 478 326 0 0 +17 325 0 28 322 328 363 4
76 323 0 0 +14 255 485 732 486 ?482 347 484 5 487 -0 0 482 347 22 81 1 486 1044
 488 485 489 0 0 490 491 14 482 736 490 ?479 485 480 5 492 -0 0 479 485 22 14 34
7 728 493 ?485 494 346 5 495 -0 0 485 494 22 50 487 770 0 485 492 495 0 +-.06 .2
 -.054 1 0 -653144959545255e-31 -653144959545255e-31 0 -1 13 22 76 0 0 0 0 0 0 9
 16 14 16 200 496 ?497 0 498 5 6 -0 0 497 0 22 81 1 496 1047 488 16 499 0 493 50
0 501 14 497 198 500 ?138 16 141 5 18 -0 0 138 16 22 15 498 199 0 40 16 0 17 40
 0 498 74 157 38 148 113 0 23 +17 74 0 498 72 40 62 23 10 0 142 -17 157 0 498 40
 72 400 502 116 0 0 +17 148 0 143 197 144 400 40 113 0 503 -17 23 0 141 44 142 3
8 74 10 0 144 +15 141 197 0 44 497 0 17 44 0 141 136 23 41 144 115 0 133 +17 142
 0 141 23 136 62 70 151 0 0 -17 70 0 28 82 67 68 142 151 0 136 +17 82 0 28 84 70
 75 135 140 0 139 +17 197 0 143 194 148 439 503 195 0 0 +17 503 0 504 502 160 40
0 197 195 0 157 -15 504 403 0 503 505 0 17 502 0 504 217 503 419 157 116 0 0 -17
 160 0 504 503 217 439 506 158 0 197 +17 217 0 504 160 502 421 71 179 0 0 +17 50
6 0 507 215 441 421 160 158 0 217 -15 507 407 0 441 508 0 17 215 0 507 163 506 4
24 423 213 0 0 +17 441 0 507 506 163 439 194 192 0 160 -17 163 0 507 441 215 442
 467 161 0 194 +17 194 0 143 191 197 442 441 192 0 0 +17 191 0 143 188 194 445 4
44 189 0 0 +17 444 0 509 467 166 442 191 189 0 163 -15 509 411 0 444 510 0 17 46
7 0 509 212 444 424 163 161 0 215 -17 166 0 509 444 212 445 466 164 0 191 +17 21
2 0 509 166 467 427 426 210 0 0 +14 510 408 511 ?465 508 509 5 512 -0 0 465 508
 22 81 1 511 1049 488 510 513 0 500 514 515 14 465 412 514 ?463 510 464 5 516 -0
 0 463 510 22 14 508 404 517 ?510 505 507 5 518 -0 0 510 505 22 50 512 443 0 510
 516 518 0 +-.06 .2 .042 0 0 1 -1 0 0 50 516 444 0 465 519 512 0 +-.056 .2 .042
 -1 0 0 0 0 -1 50 518 442 0 508 512 520 0 +-.06 .2 .054 1 0 0 0 0 1 51 255 520 4
41 0 505 518 521 0 --.054 .2 .054 0 -1 0 .006 0 0 -1 14 505 400 522 ?508 147 504
 5 520 -0 0 508 147 22 50 521 3 0 89 520 523 0 +.054 .2 .054 0 -1 0 0 0 -1 14 89
 1 524 ?147 525 28 5 521 -0 0 147 525 22 50 523 154 0 147 521 526 0 +.054 0 .054
 0 -1 0 0 0 -1 14 147 102 527 ?505 89 143 5 523 +0 0 505 89 22 50 526 205 0 525
 523 528 0 +.015 .2 .056 -1 0 0 0 0 1 14 525 186 529 ?89 530 531 5 526 -0 0 89 5
30 22 50 528 206 0 530 526 532 0 +.054 .2 .056 0 0 1 1 0 0 14 530 188 533 ?525 1
05 63 5 528 -0 0 525 105 22 51 532 207 0 105 528 534 0 +.054 .2 .054 0 -1 0 .002
 0 0 -1 14 105 190 535 ?530 99 55 5 532 -0 0 530 99 22 50 534 208 0 99 532 536 0
 +.056 .2 .042 1 0 0 0 0 -1 14 99 192 537 ?105 150 95 5 534 -0 0 105 150 22 50 5
36 209 0 150 534 538 0 +.06 .2 .042 0 0 1 1 0 0 14 150 194 539 ?99 138 149 5 536
 -0 0 99 138 22 50 538 210 0 138 536 18 0 +.06 .2 .054 -1 0 0 0 0 1 14 138 196 5
40 ?150 497 134 5 538 -0 0 150 497 22 51 18 211 0 497 538 6 0 -.054 .2 .054 0 -1
 0 .006 0 0 -1 81 1 540 1060 488 138 541 0 539 542 543 80 255 1 488 544 545 9000
 1 1 1 1 1 1 1 1 0 FFFFTFTFFFFFFF1 81 1 541 944 546 138 0 540 547 548 549 81 1 5
39 1059 488 150 548 0 537 540 550 81 1 542 1061 488 463 551 0 540 552 553 82 255
 1 543 1454506512 14 463 416 542 ?460 465 461 5 519 -0 0 460 465 22 81 1 551 956
 546 463 0 542 554 555 556 81 1 552 1062 488 460 555 0 542 557 558 82 1 553 1474
429457 14 460 420 552 ?457 463 452 5 559 -0 0 457 463 22 81 1 555 957 546 460 0
 552 551 560 561 81 1 557 1063 488 457 560 0 552 562 563 82 1 558 1474560529 14
 457 424 557 ?564 460 455 5 565 -0 0 564 460 22 81 1 560 958 546 457 0 557 555 5
66 567 81 1 562 1064 488 564 566 0 557 568 569 82 1 563 1575879186 14 564 685 56
2 ?570 457 571 5 572 -0 0 570 457 22 81 1 566 959 546 564 0 562 560 573 574 81 1
 568 1065 488 570 573 0 562 575 576 82 1 569 1542717970 14 570 690 568 ?577 564
 578 5 579 -0 0 577 564 22 81 1 573 960 546 570 0 568 566 580 581 81 1 575 1066
 488 577 580 0 568 582 583 82 1 576 1542849042 14 577 694 575 ?584 570 585 5 586
 -0 0 584 570 22 81 1 580 961 546 577 0 575 573 587 588 81 1 582 1067 488 584 58
7 0 575 589 590 82 1 583 1543176722 14 584 698 582 ?591 577 592 5 593 -0 0 591 5
77 22 81 1 587 962 546 584 0 582 580 594 595 81 1 589 1068 488 591 594 0 582 596
 597 82 1 590 1543307794 14 591 702 589 ?598 584 599 5 600 -0 0 598 584 22 81 1
 594 963 546 591 0 589 587 601 602 81 1 596 1069 488 598 601 0 589 603 604 82 1
 597 1543438866 14 598 706 596 ?494 591 605 5 606 -0 0 494 591 22 81 1 601 964 5
46 598 0 596 594 607 608 81 1 603 1070 488 494 607 0 596 609 610 82 1 604 154356
9938 14 494 710 603 ?347 598 611 5 612 -0 0 347 598 22 81 1 607 965 546 494 0 60
3 601 613 614 81 1 609 1071 488 479 615 0 603 616 617 82 1 610 1542390290 14 479
 740 609 ?475 482 477 5 618 -0 0 475 482 22 81 1 615 969 546 479 0 609 619 620 6
21 81 1 616 1072 488 475 620 0 609 622 623 82 1 617 1546060306 14 475 744 616 ?4
70 479 474 5 624 -0 0 470 479 22 81 1 620 970 546 475 0 616 615 625 626 81 1 622
 1073 488 470 625 0 616 0 627 82 1 623 1546322450 14 470 748 622 ?0 475 469 5 62
8 -0 0 0 475 22 81 1 625 971 546 470 0 622 620 0 629 82 1 627 1546584594 80 1 54
6 0 630 8001 0 0 0 0 3 5 0 0 0 FFFFTFTFFFFFFF2 83 255 3 629 .792156862745098 .81
9607843137255 .933333333333333 79 255 15 630 SDL/TYSA_COLOUR50 628 774 0 470 0 6
24 0 +-.054 .2 -.056 -653144959545255e-31 0 -1 -1 0 653144959545255e-31 51 624 7
73 0 475 628 618 0 +-.054 .2 -.054 0 -1 0 .002 653144959545255e-31 0 1 50 618 77
2 0 479 624 492 0 +-.056 .2 -.042 -1 0 653144959545255e-31 653144959545255e-31 0
 1 50 492 771 0 482 618 487 0 +-.06 .2 -.042 -653144959545255e-31 0 -1 -1 0 6531
44959545255e-31 83 3 626 .792156862745098 .819607843137255 .933333333333333 81 1
 619 968 546 482 0 490 489 615 631 83 3 621 .792156862745098 .819607843137255 .9
33333333333333 81 1 490 1045 488 482 619 0 486 493 632 81 1 489 967 546 485 0 48
6 613 619 633 83 3 631 .792156862745098 .819607843137255 .933333333333333 81 1 6
13 966 546 347 0 493 607 489 634 83 3 633 .792156862745098 .819607843137255 .933
333333333333 81 1 493 1046 488 347 613 0 490 496 635 83 3 634 .792156862745098 .
819607843137255 .933333333333333 82 1 635 1545273874 82 1 632 1545798162 83 3 61
4 .792156862745098 .819607843137255 .933333333333333 15 611 713 0 417 494 0 50 6
12 765 0 494 495 606 0 +.054 .2 -.056 -653144959545255e-31 0 -1 1 0 -65314495954
5255e-31 51 495 769 0 347 487 612 0 --.054 .2 -.054 0 -1 0 .006 653144959545255e
-31 0 1 51 606 764 0 598 612 600 0 +.054 .2 -.054 0 -1 0 .002 653144959545255e-3
1 0 1 50 600 763 0 591 606 593 0 +.056 .2 -.042 1 0 -653144959545255e-31 6531449
59545255e-31 0 1 50 593 762 0 584 600 586 0 +.06 .2 -.042 -653144959545255e-31 0
 -1 1 0 -653144959545255e-31 50 586 761 0 577 593 579 0 +.06 .2 -.054 -1 0 65314
4959545255e-31 -653144959545255e-31 0 -1 51 579 760 0 570 586 572 0 -.054 .2 -.0
54 0 -1 0 .006 653144959545255e-31 0 1 50 572 759 0 564 579 565 0 +-391886975727
153e-32 .2 -.06 -631835393030158e-31 0 1 -1 0 -631835393030158e-31 50 565 447 0
 457 572 559 0 +-.015 .2 .056 1 0 0 0 0 1 50 559 446 0 460 565 519 0 +-.054 .2 .
056 0 0 1 -1 0 0 51 519 445 0 463 559 516 0 +-.054 .2 .054 0 -1 0 .002 0 0 -1 17
 417 0 611 636 237 415 241 239 0 234 -17 636 0 611 263 417 395 234 232 0 266 -17
 237 0 611 417 263 383 637 235 0 241 +17 241 0 143 638 245 383 417 239 0 0 +17 2
34 0 605 414 266 415 636 232 0 245 +15 605 709 0 414 598 0 17 414 0 605 639 234
 412 245 243 0 231 -17 266 0 605 234 639 395 394 264 0 0 +17 245 0 143 241 248 4
15 414 243 0 0 +17 248 0 143 245 251 412 411 246 0 0 +17 251 0 143 248 254 409 4
08 249 0 0 +17 411 0 599 640 231 409 248 246 0 228 -15 599 705 0 411 591 0 17 64
0 0 599 269 411 389 228 226 0 272 -17 231 0 599 411 269 412 639 229 0 248 +17 22
8 0 592 408 272 409 640 226 0 251 +15 592 701 0 408 584 0 17 408 0 592 641 228 4
06 251 249 0 225 -17 272 0 592 228 641 389 388 270 0 0 +17 641 0 592 272 408 386
 225 223 0 275 -17 388 0 28 385 391 386 272 270 0 641 -17 385 0 28 341 388 382 2
75 273 0 642 -17 391 0 28 388 394 389 269 267 0 640 -17 394 0 28 391 397 392 266
 264 0 639 -17 269 0 599 231 640 392 391 267 0 0 +17 397 0 28 394 29 395 263 238
 0 636 -17 639 0 605 266 414 392 231 229 0 269 -17 29 0 28 397 25 398 643 107 0
 637 +17 263 0 611 237 636 398 397 238 0 0 +17 643 0 531 66 637 11 29 107 0 0 -1
7 637 0 531 643 127 398 237 235 0 263 -15 531 185 0 127 525 0 17 127 0 531 637 6
6 383 638 125 0 237 +17 66 0 531 127 643 20 33 112 0 638 +17 638 0 143 64 241 20
 127 125 0 0 -17 64 0 143 58 638 53 61 65 0 0 -17 58 0 143 100 64 51 54 59 0 0 -
17 33 0 63 31 61 11 66 112 0 643 -15 63 187 0 61 530 0 17 31 0 63 60 33 26 25 32
 0 0 -17 60 0 63 61 31 53 56 103 0 64 +17 341 0 28 336 385 380 278 276 0 644 -17
 275 0 585 225 642 386 385 273 0 0 +17 642 0 585 275 405 382 222 220 0 278 -15 5
85 697 0 405 577 0 17 405 0 585 642 225 403 254 252 0 222 -17 222 0 578 402 278
 403 642 220 0 257 +17 278 0 578 222 644 382 341 276 0 0 +15 578 693 0 402 570 0
 17 644 0 578 278 402 380 219 198 0 280 -17 402 0 578 644 222 368 257 255 0 219
 -17 219 0 571 349 280 368 644 198 0 260 +17 280 0 571 219 343 380 336 242 0 0 +
15 571 689 0 349 564 0 17 343 0 571 280 349 342 282 261 0 0 -17 349 0 571 343 21
9 348 260 258 0 0 -17 260 0 143 257 370 368 349 258 0 0 +17 257 0 143 254 260 40
3 402 255 0 0 +17 254 0 143 251 257 406 405 252 0 0 +17 225 0 585 405 275 406 64
1 223 0 254 +83 3 608 .792156862745098 .819607843137255 .933333333333333 83 3 60
2 .792156862745098 .819607843137255 .933333333333333 83 3 595 .792156862745098 .
819607843137255 .933333333333333 83 3 588 .792156862745098 .819607843137255 .933
333333333333 83 3 581 .792156862745098 .819607843137255 .933333333333333 83 3 57
4 .792156862745098 .819607843137255 .933333333333333 83 3 567 .792156862745098 .
819607843137255 .933333333333333 83 3 561 .792156862745098 .819607843137255 .933
333333333333 81 1 554 955 546 465 0 514 513 551 645 83 3 556 .792156862745098 .8
19607843137255 .933333333333333 81 1 514 1050 488 465 554 0 511 517 646 81 1 513
 954 546 510 0 511 647 554 648 83 3 645 .792156862745098 .819607843137255 .93333
3333333333 81 1 647 953 546 508 0 517 649 513 650 83 3 648 .792156862745098 .819
607843137255 .933333333333333 81 1 517 1051 488 508 647 0 514 522 651 81 1 649 9
52 546 505 0 522 652 647 653 83 3 650 .792156862745098 .819607843137255 .9333333
33333333 81 1 522 1052 488 505 649 0 517 524 654 81 1 652 951 546 147 0 527 655
 649 656 83 3 653 .792156862745098 .819607843137255 .933333333333333 81 1 527 10
54 488 147 652 0 524 529 657 81 1 655 950 546 89 0 524 658 652 659 83 3 656 .792
156862745098 .819607843137255 .933333333333333 81 1 524 1053 488 89 655 0 522 52
7 660 81 1 658 949 546 525 0 529 661 655 662 83 3 659 .792156862745098 .81960784
3137255 .933333333333333 81 1 529 1055 488 525 658 0 527 533 663 81 1 661 948 54
6 530 0 533 664 658 665 83 3 662 .792156862745098 .819607843137255 .933333333333
333 81 1 533 1056 488 530 661 0 529 535 666 81 1 664 947 546 105 0 535 667 661 6
68 83 3 665 .792156862745098 .819607843137255 .933333333333333 81 1 535 1057 488
 105 664 0 533 537 669 81 1 667 946 546 99 0 537 548 664 670 83 3 668 .792156862
745098 .819607843137255 .933333333333333 81 1 537 1058 488 99 667 0 535 539 671
 81 1 548 945 546 150 0 539 541 667 672 83 3 670 .792156862745098 .8196078431372
55 .933333333333333 83 3 672 .792156862745098 .819607843137255 .933333333333333
 82 1 671 1453982224 82 1 669 1453720080 82 1 666 1453457936 82 1 663 1571226130
 82 1 660 1571357202 82 1 657 1573323282 82 1 654 1473905169 82 1 651 1474036241
 82 1 646 1474298385 82 1 550 1454244368 81 1 547 943 546 497 0 500 499 541 673
 83 3 549 .792156862745098 .819607843137255 .933333333333333 81 1 500 1048 488 4
97 547 0 496 511 674 81 1 499 942 546 16 0 496 0 547 675 83 3 673 .7921568627450
98 .819607843137255 .933333333333333 83 3 675 .792156862745098 .819607843137255
 .933333333333333 82 1 674 1454768656 79 14 545 SWEntUnchanged82 1 515 147416731
3 17 423 0 28 71 426 421 215 213 0 506 -17 71 0 28 67 423 419 217 179 0 502 -17
 72 0 498 157 74 419 67 73 0 71 -82 1 501 1491927569 82 1 491 1545536018 19 17 2
26 0 1 0 9 5 S0 74 4 CI16 index_map_offset0 0 1 dCCZ20 15 8 0 0 676 677 622 678
 679 13 625 2 0 0 0 0 0 0 0 0 0 0 0 0 81 2 676 274 680 1 0 677 0 0 0 681 81 2 67
7 278 682 1 676 678 0 0 0 683 81 1 678 904 684 1 677 679 0 0 685 81 2 679 937 68
6 1 678 13 0 0 0 687 81 2 13 940 688 1 679 2 0 0 0 0 80 2 688 689 690 9000 0 0 0
 0 3 5 0 0 0 FFTFFFFFFFFFFF9 1 79 16 690 BODY_RECIPE_200180 2 686 691 692 9000 0
 0 0 0 3 5 0 0 0 FFTFFFFFFFFFFF9 1 82 1 687 1 79 24 692 BODY_IN_LIGHTWEIGHT_PERM
80 1 684 693 694 9000 1 1 1 1 1 1 1 1 0 FFTFFFFFFFFFFF1 82 1 685 23724 79 10 694
 BODY_MATCH80 2 682 695 696 9000 0 0 0 0 3 5 0 0 0 FFTFFFFFFFFFFF9 1 82 1 683 56
 79 30 696 LAST_BODY_MODIFYING_FEATURE_ID80 2 680 697 698 9000 0 0 0 0 3 5 0 0 0
 FFTFFFFFFFFFFF9 1 82 1 681 643 79 19 698 ENT_TIME_STAMP_200180 2 12 699 700 900
0 0 0 0 0 3 5 0 0 0 FFTFFFFFFFFFFF9 1 82 1 14 105 79 12 700 ATOM_ID_20011 0 
