**ABCDEFGHIJKLMNOPQRSTUVWXYZabcdefghijklmnopqrstuvwxyz**************************
**PARASOLID !"#$%&'()*+,-./:;<=>?@[\]^_`{|}~0123456789**************************
**PART1;
MC=AMD64;
MC_MODEL=Intel64 Family 6 Model 151 Stepping 2, GenuineIntel;
MC_ID=unknown;
OS=Windows_NT;
OS_RELEASE=unknown;
FRU=Parasolid Version 32.1, build 255,  1- 1-2021;
APPL=SOLIDWORKS 2021-2021301;
SITE=;
USER=unknown;
FORMAT=text;
GUISE=transmit;
KEY=my_model_var;
FILE=my_model_var.x_t;
DATE=Mon Aug  5 14:02:46 2024;
**PART2;
SCH=SCH_3201255_32001;
USFLD_SIZE=0;
**PART3;
**END_OF_HEADER*****************************************************************
T51 : TRANSMIT FILE created by modeller version 320125523 SCH_3201255_32001_1300
6229 0 12 34 CCCCCCI4 mesh1006 0 I8 polyline1008 0 CCCCCCCDI5 owner1040 0 CCCCCC
I13 boundary_mesh1006 0 I17 boundary_polyline1008 0 CCCA16 index_map_offset0 0 1
 dA9 index_map82 0 A17 node_id_index_map82 0 A20 schema_embedding_map82 0 A5 chi
ld12 0 A14 lowest_node_id0 0 1 dA16 mesh_offset_data206 0 Z1 1070 2 3 0 0 0 0 0
 0 1e3 1e-8 0 4 0 1 0 1 1 5 6 7 8 0 0 9 10 11 0 0 0 0 0 0 0 81 255 2 2 1040 12 1
 13 0 0 0 0 14 70 11 CI9 list_type0 0 1 uI10 notransmit0 0 1 lCCCDCCDI12 finger_
index0 0 1 dI12 finger_block1012 0 CZ3 0 4 T1 0 0 8 20 1 15 15 13 255 5 225 0 1
 0 16 0 0 17 0 50 255 6 212 0 16 18 0 0 +0 .2 .06 -1850371707708595e-31 0 -1 -1
 0 1850371707708595e-31 30 255 7 222 0 10 19 0 0 +.0375 .2 .06 0 -1 0 29 255 8 1
66 0 20 21 0 .0075 0 .045 19 8 CCCCCCCA5 owner12 0 Z9 75 0 1 17 0 22 V0 16 255 1
0 182 0 ?23 0 24 7 0 0 1 18 255 11 69 0 25 0 26 27 ?1 17 255 25 0 28 29 30 11 31
 32 0 33 +18 26 66 0 30 11 34 35 ?1 29 27 71 0 11 35 36 .0075 .2 .045 29 35 68 0
 26 37 27 .0375 .2 .045 29 36 172 0 38 27 39 .0375 0 .06 18 38 151 0 40 41 42 36
 ?1 29 39 171 0 41 36 43 .06 0 .0375 18 41 150 0 44 45 38 39 ?1 29 43 170 0 45 3
9 46 .06 0 .03 18 45 149 0 47 48 41 43 ?1 29 46 169 0 48 43 49 .045 0 .03 18 48
 148 0 50 51 45 46 ?1 29 49 168 0 51 46 21 .045 0 .0375 18 51 147 0 52 53 48 49
 ?1 29 21 167 0 53 49 8 .0375 0 .045 18 53 146 0 54 20 51 21 ?1 17 54 0 55 56 57
 53 58 59 0 60 +18 20 145 0 61 62 53 8 ?1 17 61 0 63 33 60 20 64 65 0 66 +18 62
 51 0 67 68 20 69 ?1 17 67 0 28 70 71 62 72 73 0 74 +18 68 54 0 70 75 62 76 ?1 2
9 69 53 0 62 77 76 .0375 .2 .06 29 77 482 0 78 79 69 -.0075 0 .045 29 76 56 0 68
 69 80 .06 .2 .0375 29 80 59 0 75 76 81 .06 .2 .03 18 75 57 0 82 83 68 80 ?1 29
 81 62 0 83 80 37 .045 .2 .03 18 83 60 0 84 34 75 81 ?1 29 37 65 0 34 81 35 .045
 .2 .0375 18 34 63 0 85 26 83 37 ?1 17 85 0 28 30 84 34 86 87 0 88 +15 255 28 4
 0 29 89 0 17 30 0 28 25 85 26 90 91 0 56 +17 84 0 28 85 82 83 92 93 0 94 +17 86
 0 95 96 88 83 85 87 0 0 -16 87 29 0 ?85 91 93 97 0 0 1 17 88 0 95 86 52 34 57 9
8 0 90 -15 95 191 0 52 99 0 17 52 0 95 88 96 51 100 101 0 57 +17 57 0 55 54 90 5
1 88 98 0 58 +16 98 178 0 ?57 102 103 104 0 0 1 17 90 0 55 57 56 34 30 91 0 0 -1
5 55 189 0 54 105 0 17 56 0 55 90 54 26 60 103 0 31 -16 91 33 0 ?30 32 87 106 0
 0 1 16 32 37 0 ?25 107 91 108 0 0 1 31 255 106 35 0 91 97 108 0 +.0375 .2 .0375
 0 -1 0 0 0 -1 .0075 30 97 31 0 87 109 106 0 +.045 .2 .03 1850371707708595e-30 0
 1 30 108 39 0 32 106 110 0 +.0375 .2 .045 -1 0 231296463463574e-30 30 110 43 0
 107 108 111 0 +.0075 .2 .045 0 0 -1 16 107 41 0 ?29 112 32 110 0 0 1 30 111 162
 0 113 110 114 0 +0 0 .06 1 0 -1850371707708595e-31 16 113 132 0 ?40 115 116 111
 0 0 1 31 114 161 0 115 111 117 0 +.0375 0 .0375 0 1 0 0 0 -1 .0225 16 115 128 0
 ?44 118 113 114 0 0 1 30 117 160 0 118 114 119 0 +.06 0 .0375 0 0 -1 16 118 124
 0 ?47 120 115 117 0 0 1 30 119 159 0 120 117 121 0 +.06 0 .03 -1 0 462592926927
149e-30 16 120 120 0 ?50 101 118 119 0 0 1 30 121 158 0 101 119 122 0 +.045 0 .0
3 1850371707708595e-30 0 1 16 101 116 0 ?52 59 120 121 0 0 1 31 122 157 0 59 121
 123 0 +.0375 0 .0375 0 -1 0 0 0 -1 .0075 16 59 112 0 ?54 65 101 122 0 0 1 30 12
3 156 0 65 122 124 0 +.0375 0 .045 -1 0 231296463463574e-30 16 65 108 0 ?61 125
 59 123 0 0 1 30 124 155 0 125 123 126 0 +.0075 0 .045 0 0 -1 16 125 104 0 ?127
 73 65 124 0 0 1 30 126 216 0 112 124 128 0 +.0075 .2 .045 0 -1 0 16 112 176 0 ?
66 103 107 126 0 0 1 30 128 217 0 103 126 104 0 +.0375 .2 .045 0 -1 0 16 103 177
 0 ?60 98 112 128 0 0 1 30 104 218 0 98 128 129 0 +.045 .2 .0375 0 -1 0 30 129 2
19 0 102 104 130 0 +.045 .2 .03 0 -1 0 16 102 179 0 ?96 131 98 129 0 0 1 30 130
 220 0 131 129 19 0 +.06 .2 .03 0 -1 0 16 131 180 0 ?132 24 102 130 0 0 1 30 19
 221 0 24 130 7 0 +.06 .2 .0375 0 -1 0 16 24 181 0 ?133 10 131 19 0 0 1 17 133 0
 134 47 135 41 136 24 0 137 +15 134 195 0 47 138 0 17 47 0 134 139 133 45 137 11
8 0 132 +17 135 0 134 133 139 68 82 140 0 0 -17 136 0 141 142 44 68 133 24 0 135
 -17 137 0 143 144 145 41 47 118 0 0 -15 143 103 0 146 147 0 17 144 0 143 148 13
7 38 44 115 0 0 -17 145 0 143 137 100 45 50 120 0 0 -17 100 0 143 145 58 48 52 1
01 0 0 -17 50 0 149 94 132 48 145 120 0 96 +15 149 193 0 50 150 0 17 94 0 149 92
 50 83 96 102 0 86 -17 132 0 149 50 92 45 139 131 0 145 +17 96 0 95 52 86 48 94
 102 0 100 +17 92 0 149 132 94 75 84 93 0 0 -17 139 0 134 135 47 75 132 131 0 92
 -16 93 25 0 ?84 87 140 109 0 0 1 16 140 21 0 ?82 93 151 152 0 0 1 30 109 27 0 9
3 152 97 0 +.06 .2 .03 -1 0 462592926927149e-30 30 152 23 0 140 153 109 0 +.06 .
2 .0375 0 0 -1 31 153 19 0 151 154 152 0 +.0375 .2 .0375 0 1 0 0 0 -1 .0225 16 1
51 17 0 ?70 140 73 153 0 0 1 30 154 15 0 73 155 153 0 +0 .2 .06 1 0 -18503717077
08595e-31 16 73 13 0 ?67 151 125 154 0 0 1 30 155 453 0 116 156 154 0 +-.0375 .2
 .06 0 -1 0 16 116 342 0 ?157 113 158 155 0 0 1 30 156 454 0 158 159 155 0 +-.06
 .2 .0375 0 -1 0 16 158 344 0 ?160 116 161 156 0 0 1 30 159 455 0 161 162 156 0
 +-.06 .2 .03 0 -1 0 16 161 346 0 ?163 158 164 159 0 0 1 30 162 456 0 164 165 15
9 0 +-.045 .2 .03 0 -1 0 16 164 348 0 ?166 161 167 162 0 0 1 30 165 457 0 167 16
8 162 0 +-.045 .2 .0375 0 -1 0 16 167 350 0 ?169 164 170 165 0 0 1 30 168 458 0
 170 171 165 0 +-.0375 .2 .045 0 -1 0 16 170 352 0 ?172 167 173 168 0 0 1 30 171
 459 0 173 174 168 0 +-.0075 .2 .045 0 -1 0 16 173 354 0 ?175 170 176 171 0 0 1
 30 174 461 0 177 178 171 0 +-.0075 0 .045 0 0 -1 16 177 366 0 ?146 179 180 174
 0 0 1 30 178 462 0 180 181 174 0 +-.0375 0 .045 1 0 231296463463574e-30 16 180
 365 0 ?182 177 183 178 0 0 1 31 181 463 0 183 184 178 0 +-.0375 0 .0375 0 1 0 0
 0 -1 .0075 16 183 364 0 ?185 180 186 181 0 0 1 30 184 464 0 186 187 181 0 +-.04
5 0 .03 -1850371707708595e-30 0 1 16 186 363 0 ?188 183 189 184 0 0 1 30 187 465
 0 189 190 184 0 +-.06 0 .03 1 0 462592926927149e-30 16 189 362 0 ?191 186 192 1
87 0 0 1 30 190 466 0 192 193 187 0 +-.06 0 .0375 0 0 -1 16 192 361 0 ?194 189 1
95 190 0 0 1 31 193 467 0 195 196 190 0 +-.0375 0 .0375 0 -1 0 0 0 -1 .0225 16 1
95 360 0 ?197 192 198 193 0 0 1 30 196 471 0 176 199 193 0 +-.0075 .2 .045 0 0 -
1 16 176 355 0 ?200 173 201 196 0 0 1 30 199 472 0 201 202 196 0 +-.0375 .2 .045
 1 0 231296463463574e-30 16 201 353 0 ?203 176 204 199 0 0 1 31 202 473 0 204 20
5 199 0 +-.0375 .2 .0375 0 1 0 0 0 -1 .0075 16 204 351 0 ?206 201 207 202 0 0 1
 30 205 474 0 207 208 202 0 +-.045 .2 .03 -1850371707708595e-30 0 1 16 207 349 0
 ?209 204 210 205 0 0 1 30 208 475 0 210 211 205 0 +-.06 .2 .03 1 0 462592926927
149e-30 16 210 347 0 ?212 207 213 208 0 0 1 30 211 476 0 213 214 208 0 +-.06 .2
 .0375 0 0 -1 16 213 345 0 ?215 210 179 211 0 0 1 31 214 477 0 179 216 211 0 +-.
0375 .2 .0375 0 -1 0 0 0 -1 .0225 16 179 343 0 ?217 213 177 214 0 0 1 30 216 777
 0 198 218 214 0 +.0375 .2 -.06 0 -1 0 16 198 602 0 ?219 195 220 216 0 0 1 30 21
8 778 0 220 221 216 0 +.06 .2 -.0375 0 -1 0 16 220 604 0 ?222 198 223 218 0 0 1
 30 221 779 0 223 224 218 0 +.06 .2 -.03 0 -1 0 16 223 606 0 ?225 220 226 221 0
 0 1 30 224 780 0 226 227 221 0 +.045 .2 -.03 0 -1 0 16 226 608 0 ?228 223 229 2
24 0 0 1 30 227 781 0 229 230 224 0 +.045 .2 -.0375 0 -1 0 16 229 610 0 ?231 226
 232 227 0 0 1 30 230 782 0 232 233 227 0 +.0375 .2 -.045 0 -1 0 16 232 612 0 ?2
34 229 235 230 0 0 1 30 233 783 0 235 236 230 0 +.0075 .2 -.045 0 -1 0 16 235 61
4 0 ?237 232 238 233 0 0 1 30 236 786 0 239 240 233 0 +.0375 0 -.045 -1 0 -14965
33435204172e-31 16 239 631 0 ?241 242 243 236 0 0 1 31 240 787 0 243 244 236 0 +
.0375 0 -.0375 0 1 0 816431199431569e-31 0 1 .0075 16 243 630 0 ?245 239 246 240
 0 0 1 30 244 788 0 246 247 240 0 +.045 0 -.03 176872858776544e-29 0 -1 16 246 6
29 0 ?248 243 249 244 0 0 1 30 247 789 0 249 250 244 0 +.06 0 -.03 -1 0 -3809498
069839915e-31 16 249 628 0 ?251 246 252 247 0 0 1 30 250 790 0 252 253 247 0 +.0
6 0 -.0375 816431199431569e-31 0 1 16 252 627 0 ?254 249 255 250 0 0 1 31 253 79
1 0 255 256 250 0 +.0375 0 -.0375 0 -1 0 816431199431569e-31 0 1 .0225 16 255 62
6 0 ?257 252 258 253 0 0 1 30 256 792 0 258 259 253 0 +-489858719658941e-32 0 -.
06 1 0 1033940508277024e-31 16 258 625 0 ?260 255 261 256 0 0 1 30 259 795 0 238
 262 256 0 +.0375 .2 -.045 -1 0 -1496533435204172e-31 16 238 613 0 ?263 235 264
 259 0 0 1 31 262 796 0 264 265 259 0 +.0375 .2 -.0375 0 1 0 816431199431569e-31
 0 1 .0075 16 264 611 0 ?266 238 267 262 0 0 1 30 265 797 0 267 268 262 0 +.045
 .2 -.03 176872858776544e-29 0 -1 16 267 609 0 ?269 264 270 265 0 0 1 30 268 798
 0 270 271 265 0 +.06 .2 -.03 -1 0 -3809498069839915e-31 16 270 607 0 ?272 267 2
73 268 0 0 1 30 271 799 0 273 274 268 0 +.06 .2 -.0375 816431199431569e-31 0 1 1
6 273 605 0 ?275 270 276 271 0 0 1 31 274 800 0 276 277 271 0 +.0375 .2 -.0375 0
 -1 0 816431199431569e-31 0 1 .0225 16 276 603 0 ?278 273 242 274 0 0 1 30 277 8
01 0 242 279 274 0 +-489858719658941e-32 .2 -.06 1 0 1033940508277024e-31 16 242
 601 0 ?280 276 239 277 0 0 1 30 279 803 0 261 281 277 0 +-.0375 .2 -.06 0 -1 0
 16 261 634 0 ?282 258 283 279 0 0 1 30 281 804 0 283 284 279 0 +-.06 .2 -.0375
 0 -1 0 16 283 636 0 ?285 261 286 281 0 0 1 30 284 805 0 286 287 281 0 +-.06 .2
 -.03 0 -1 0 16 286 638 0 ?288 283 289 284 0 0 1 30 287 806 0 289 290 284 0 +-.0
45 .2 -.03 0 -1 0 16 289 640 0 ?291 286 292 287 0 0 1 30 290 807 0 292 293 287 0
 +-.045 .2 -.0375 0 -1 0 16 292 642 0 ?294 289 295 290 0 0 1 30 293 808 0 295 29
6 290 0 +-.0375 .2 -.045 0 -1 0 16 295 644 0 ?297 292 298 293 0 0 1 30 296 809 0
 298 299 293 0 +-.0075 .2 -.045 0 -1 0 16 298 646 0 ?300 295 301 296 0 0 1 30 29
9 812 0 302 303 296 0 +-.0375 0 -.045 1 0 -312939583406731e-30 16 302 643 0 ?304
 305 306 299 0 0 1 31 303 813 0 306 307 299 0 +-.0375 0 -.0375 0 -1 0 8164311994
31569e-31 0 1 .0075 16 306 641 0 ?308 302 309 303 0 0 1 30 307 814 0 309 310 303
 0 +-.045 0 -.03 -1932014827651755e-30 0 -1 16 309 639 0 ?311 306 312 307 0 0 1
 30 310 815 0 312 313 307 0 +-.06 0 -.03 1 0 -544236046870305e-30 16 312 637 0 ?
314 309 315 310 0 0 1 30 313 816 0 315 316 310 0 +-.06 0 -.0375 816431199431569e
-31 0 1 16 315 635 0 ?317 312 318 313 0 0 1 31 316 817 0 318 319 313 0 +-.0375 0
 -.0375 0 1 0 816431199431569e-31 0 1 .0225 16 318 633 0 ?320 315 0 316 0 0 1 30
 319 819 0 301 321 316 0 +-.0375 .2 -.045 1 0 -312939583406731e-30 16 301 622 0
 ?322 298 323 319 0 0 1 31 321 820 0 323 324 319 0 +-.0375 .2 -.0375 0 -1 0 8164
31199431569e-31 0 1 .0075 16 323 621 0 ?325 301 326 321 0 0 1 30 324 821 0 326 3
27 321 0 +-.045 .2 -.03 -1932014827651755e-30 0 -1 16 326 620 0 ?328 323 329 324
 0 0 1 30 327 822 0 329 330 324 0 +-.06 .2 -.03 1 0 -544236046870305e-30 16 329
 619 0 ?331 326 332 327 0 0 1 30 330 823 0 332 333 327 0 +-.06 .2 -.0375 8164311
99431569e-31 0 1 16 332 618 0 ?334 329 305 330 0 0 1 31 333 824 0 305 0 330 0 +-
.0375 .2 -.0375 0 1 0 816431199431569e-31 0 1 .0225 16 305 617 0 ?335 332 302 33
3 0 0 1 17 335 0 28 334 336 337 338 305 0 0 +17 334 0 28 331 335 339 340 332 0 0
 +17 336 0 28 335 341 342 280 242 0 343 -18 337 665 0 344 339 342 345 ?1 17 338
 0 346 282 344 342 335 305 0 336 -15 346 732 0 320 347 0 17 282 0 346 320 338 34
8 343 261 0 349 +17 344 0 346 338 320 337 285 283 0 340 -18 342 666 0 338 337 35
0 351 ?1 18 350 678 0 146 342 352 353 ?1 29 351 856 0 342 0 345 -.0375 .2 -.06 2
9 345 855 0 337 351 354 -.06 .2 -.0375 29 354 854 0 339 345 355 -.06 .2 -.03 18
 339 667 0 356 357 337 354 ?1 29 355 853 0 357 354 358 -.045 .2 -.03 18 357 669
 0 359 360 339 355 ?1 29 358 852 0 360 355 361 -.045 .2 -.0375 18 360 671 0 362
 363 357 358 ?1 29 361 851 0 363 358 364 -.0375 .2 -.045 18 363 673 0 365 366 36
0 361 ?1 29 364 850 0 366 361 367 -.0075 .2 -.045 18 366 675 0 200 368 363 364 ?
1 29 367 848 0 348 364 369 -.0375 0 -.06 18 348 663 0 370 371 0 367 ?1 29 369 84
7 0 371 367 372 -.06 0 -.0375 18 371 668 0 285 373 348 369 ?1 29 372 846 0 373 3
69 374 -.06 0 -.03 18 373 670 0 288 375 371 372 ?1 29 374 845 0 375 372 376 -.04
5 0 -.03 18 375 672 0 291 377 373 374 ?1 29 376 844 0 377 374 378 -.045 0 -.0375
 18 377 674 0 294 352 375 376 ?1 29 378 843 0 352 376 353 -.0375 0 -.045 18 352
 676 0 297 350 377 378 ?1 29 353 842 0 350 378 379 -.0075 0 -.045 29 379 840 0 3
80 353 381 .0375 .2 -.06 18 380 661 0 341 382 383 379 ?1 29 381 839 0 382 379 38
4 .06 .2 -.0375 18 382 660 0 385 386 380 381 ?1 29 384 838 0 386 381 387 .06 .2
 -.03 18 386 659 0 388 389 382 384 ?1 29 387 837 0 389 384 390 .045 .2 -.03 18 3
89 658 0 391 392 386 387 ?1 29 390 836 0 392 387 393 .045 .2 -.0375 18 392 657 0
 394 395 389 390 ?1 29 393 835 0 395 390 396 .0375 .2 -.045 18 395 656 0 397 398
 392 393 ?1 29 396 834 0 398 393 399 .0075 .2 -.045 18 398 655 0 29 400 395 396
 ?1 29 399 832 0 368 396 401 .0375 0 -.06 18 368 647 0 402 403 366 399 ?1 29 401
 831 0 403 399 404 .06 0 -.0375 18 403 648 0 405 406 368 401 ?1 29 404 830 0 406
 401 407 .06 0 -.03 18 406 649 0 408 409 403 404 ?1 29 407 829 0 409 404 410 .04
5 0 -.03 18 409 650 0 411 412 406 407 ?1 29 410 828 0 412 407 413 .045 0 -.0375
 18 412 651 0 414 415 409 410 ?1 29 413 827 0 415 410 416 .0375 0 -.045 18 415 6
52 0 417 383 412 413 ?1 29 416 826 0 383 413 418 .0075 0 -.045 18 383 653 0 127
 380 415 416 ?1 29 418 498 0 419 416 420 -.0375 .2 .06 18 419 383 0 72 421 78 41
8 ?1 29 420 497 0 421 418 422 -.06 .2 .0375 18 421 382 0 423 424 419 420 ?1 29 4
22 496 0 424 420 425 -.06 .2 .03 18 424 381 0 426 427 421 422 ?1 29 425 495 0 42
7 422 428 -.045 .2 .03 18 427 380 0 429 430 424 425 ?1 29 428 494 0 430 425 431
 -.045 .2 .0375 18 430 379 0 432 433 427 428 ?1 29 431 493 0 433 428 434 -.0375
 .2 .045 18 433 378 0 435 42 430 431 ?1 29 434 492 0 42 431 436 -.0075 .2 .045 1
8 42 377 0 437 38 433 434 ?1 29 436 488 0 400 434 438 -.0375 0 .06 18 400 369 0
 148 439 398 436 ?1 29 438 487 0 439 436 440 -.06 0 .0375 18 439 370 0 441 442 4
00 438 ?1 29 440 486 0 442 438 443 -.06 0 .03 18 442 371 0 444 445 439 440 ?1 29
 443 485 0 445 440 446 -.045 0 .03 18 445 372 0 447 448 442 443 ?1 29 446 484 0
 448 443 79 -.045 0 .0375 18 448 373 0 449 450 445 446 ?1 29 79 483 0 450 446 77
 -.0375 0 .045 18 450 374 0 451 78 448 79 ?1 17 451 0 452 453 175 450 182 180 0
 172 -18 78 375 0 454 419 450 77 ?1 17 454 0 455 456 300 78 146 177 0 175 -15 45
5 428 0 454 457 0 17 456 0 455 200 454 42 175 173 0 203 -17 300 0 455 454 200 35
0 458 298 0 304 +17 146 0 143 459 182 350 454 177 0 300 +17 175 0 452 451 203 78
 456 173 0 182 +15 452 424 0 451 460 0 17 203 0 452 175 453 42 435 201 0 0 +17 1
82 0 143 146 185 78 451 180 0 0 +17 185 0 143 182 188 450 449 183 0 0 +17 188 0
 143 185 191 448 447 186 0 0 +17 449 0 461 462 172 448 185 183 0 169 -15 461 420
 0 449 463 0 17 462 0 461 206 449 430 169 167 0 209 -17 172 0 461 449 206 450 45
3 170 0 185 +17 169 0 464 447 209 448 462 167 0 188 +15 464 416 0 447 465 0 17 4
47 0 464 466 169 445 188 186 0 166 -17 209 0 464 169 466 430 429 207 0 0 +17 466
 0 464 209 447 427 166 164 0 212 -17 429 0 28 426 432 427 209 207 0 466 -17 426
 0 28 423 429 424 212 210 0 467 -17 432 0 28 429 435 430 206 204 0 462 -17 435 0
 28 432 437 433 203 201 0 453 -17 206 0 461 172 462 433 432 204 0 0 +17 437 0 28
 435 322 42 200 176 0 456 -17 453 0 452 203 451 433 172 170 0 206 -17 322 0 28 4
37 325 366 468 301 0 0 +17 200 0 455 300 456 366 437 176 0 458 +17 458 0 469 468
 304 366 300 298 0 322 -15 469 752 0 304 470 0 17 468 0 469 297 458 363 322 301
 0 325 -17 304 0 469 458 297 350 459 302 0 0 +17 297 0 469 304 468 352 365 295 0
 308 +17 459 0 143 471 146 352 304 302 0 0 -17 471 0 143 472 459 377 308 306 0 0
 -17 472 0 143 473 471 375 311 309 0 0 -17 308 0 474 365 294 352 471 306 0 459 +
15 474 748 0 308 475 0 17 365 0 474 476 308 363 297 295 0 468 -17 294 0 474 308
 476 377 362 292 0 311 +17 476 0 474 294 365 360 325 323 0 328 -17 362 0 477 478
 311 360 294 292 0 476 -17 311 0 477 362 291 377 472 309 0 471 +15 477 744 0 311
 479 0 17 291 0 477 311 478 375 359 289 0 314 +17 478 0 477 291 362 357 328 326
 0 331 -17 359 0 480 481 314 357 291 289 0 478 -17 314 0 480 359 288 375 473 312
 0 472 +15 480 740 0 314 482 0 17 288 0 480 314 481 373 356 286 0 317 +17 473 0
 143 483 472 373 314 312 0 0 -17 483 0 143 370 473 371 317 315 0 0 -17 370 0 143
 260 483 348 320 318 0 282 -17 317 0 484 356 285 373 483 315 0 473 +15 484 736 0
 317 485 0 17 356 0 484 340 317 339 288 286 0 481 -17 285 0 484 317 340 371 344
 283 0 320 +17 340 0 484 285 356 337 334 332 0 335 -17 320 0 346 344 282 371 370
 318 0 483 +17 481 0 480 288 359 339 331 329 0 334 -17 331 0 28 328 334 357 481
 329 0 0 +17 328 0 28 325 331 360 478 326 0 0 +17 325 0 28 322 328 363 476 323 0
 0 +14 255 485 733 486 ?482 347 484 5 487 -0 0 482 347 22 81 1 486 1041 488 485
 489 0 0 490 491 14 482 737 490 ?479 485 480 5 492 -0 0 479 485 22 14 347 729 49
3 ?485 494 346 5 495 -0 0 485 494 22 50 487 771 0 485 492 495 0 +-.06 .2 -.0375
 1 0 -816431199431569e-31 -816431199431569e-31 0 -1 13 22 76 0 0 0 0 0 0 9 16 14
 16 200 496 ?497 0 498 5 6 -0 0 497 0 22 81 1 496 1044 488 16 499 0 493 500 501
 14 497 198 500 ?138 16 141 5 18 -0 0 138 16 22 15 498 199 0 40 16 0 17 40 0 498
 74 157 38 148 113 0 23 +17 74 0 498 72 40 62 23 10 0 142 -17 157 0 498 40 72 40
0 502 116 0 0 +17 148 0 143 197 144 400 40 113 0 503 -17 23 0 141 44 142 38 74 1
0 0 144 +15 141 197 0 44 497 0 17 44 0 141 136 23 41 144 115 0 133 +17 142 0 141
 23 136 62 70 151 0 0 -17 70 0 28 82 67 68 142 151 0 136 +17 82 0 28 84 70 75 13
5 140 0 139 +17 197 0 143 194 148 439 503 195 0 0 +17 503 0 504 502 160 400 197
 195 0 157 -15 504 404 0 503 505 0 17 502 0 504 217 503 419 157 116 0 0 -17 160
 0 504 503 217 439 506 158 0 197 +17 217 0 504 160 502 421 71 179 0 0 +17 506 0
 507 215 441 421 160 158 0 217 -15 507 408 0 441 508 0 17 215 0 507 163 506 424
 423 213 0 0 +17 441 0 507 506 163 439 194 192 0 160 -17 163 0 507 441 215 442 4
67 161 0 194 +17 194 0 143 191 197 442 441 192 0 0 +17 191 0 143 188 194 445 444
 189 0 0 +17 444 0 509 467 166 442 191 189 0 163 -15 509 412 0 444 510 0 17 467
 0 509 212 444 424 163 161 0 215 -17 166 0 509 444 212 445 466 164 0 191 +17 212
 0 509 166 467 427 426 210 0 0 +14 510 409 511 ?465 508 509 5 512 -0 0 465 508 2
2 81 1 511 1046 488 510 513 0 500 514 515 14 465 413 514 ?463 510 464 5 516 -0 0
 463 510 22 14 508 405 517 ?510 505 507 5 518 -0 0 510 505 22 50 512 444 0 510 5
16 518 0 +-.06 .2 .03 -462592926927149e-30 0 1 -1 0 -462592926927149e-30 50 516
 445 0 465 519 512 0 +-.045 .2 .03 -1 0 -1850371707708595e-30 1850371707708595e-
30 0 -1 50 518 443 0 508 512 520 0 +-.06 .2 .0375 1 0 0 0 0 1 51 255 520 442 0 5
05 518 521 0 --.0375 .2 .0375 0 -1 0 .0225 0 0 -1 14 505 401 522 ?508 147 504 5
 520 -0 0 508 147 22 50 521 3 0 89 520 523 0 +.0375 .2 .0375 0 -1 0 0 0 -1 14 89
 1 524 ?147 525 28 5 521 -0 0 147 525 22 50 523 154 0 147 521 526 0 +.0375 0 .03
75 0 -1 0 0 0 -1 14 147 102 527 ?505 89 143 5 523 +0 0 505 89 22 50 526 205 0 52
5 523 528 0 +.0075 .2 .045 -1 0 0 0 0 1 14 525 186 529 ?89 530 531 5 526 -0 0 89
 530 22 50 528 206 0 530 526 532 0 +.0375 .2 .045 231296463463574e-30 0 1 1 0 -2
31296463463574e-30 14 530 188 533 ?525 105 63 5 528 -0 0 525 105 22 51 532 207 0
 105 528 534 0 +.0375 .2 .0375 0 -1 0 .0075 0 0 -1 14 105 190 535 ?530 99 55 5 5
32 -0 0 530 99 22 50 534 208 0 99 532 536 0 +.045 .2 .03 1 0 -1850371707708595e-
30 -1850371707708595e-30 0 -1 14 99 192 537 ?105 150 95 5 534 -0 0 105 150 22 50
 536 209 0 150 534 538 0 +.06 .2 .03 462592926927149e-30 0 1 1 0 -46259292692714
9e-30 14 150 194 539 ?99 138 149 5 536 -0 0 99 138 22 50 538 210 0 138 536 18 0
 +.06 .2 .0375 -1 0 0 0 0 1 14 138 196 540 ?150 497 134 5 538 -0 0 150 497 22 51
 18 211 0 497 538 6 0 -.0375 .2 .0375 0 -1 0 .0225 0 0 -1 81 1 540 1057 488 138
 541 0 539 542 543 80 255 1 488 544 545 9000 1 1 1 1 1 1 1 1 0 FFFFTFTFFFFFFF1 8
1 1 541 941 546 138 0 540 547 548 549 81 1 539 1056 488 150 548 0 537 540 550 81
 1 542 1058 488 463 551 0 540 552 553 82 255 1 543 1281688107 14 463 417 542 ?46
0 465 461 5 519 -0 0 460 465 22 81 1 551 953 546 463 0 542 554 555 556 81 1 552
 1059 488 460 555 0 542 557 558 82 1 553 1365770798 14 460 421 552 ?457 463 452
 5 559 -0 0 457 463 22 81 1 555 954 546 460 0 552 551 560 561 81 1 557 1060 488
 457 560 0 552 562 563 82 1 558 1365901870 14 457 425 557 ?564 460 455 5 565 -0
 0 564 460 22 81 1 560 955 546 457 0 557 555 566 567 81 1 562 1061 488 564 566 0
 557 568 569 82 1 563 1467220527 14 564 686 562 ?570 457 571 5 572 -0 0 570 457
 22 81 1 566 956 546 564 0 562 560 573 574 81 1 568 1062 488 570 573 0 562 575 5
76 82 1 569 1434059311 14 570 691 568 ?577 564 578 5 579 -0 0 577 564 22 81 1 57
3 957 546 570 0 568 566 580 581 81 1 575 1063 488 577 580 0 568 582 583 82 1 576
 1434190383 14 577 695 575 ?584 570 585 5 586 -0 0 584 570 22 81 1 580 958 546 5
77 0 575 573 587 588 81 1 582 1064 488 584 587 0 575 589 590 82 1 583 1434518063
 14 584 699 582 ?591 577 592 5 593 -0 0 591 577 22 81 1 587 959 546 584 0 582 58
0 594 595 81 1 589 1065 488 591 594 0 582 596 597 82 1 590 1434649135 14 591 703
 589 ?598 584 599 5 600 -0 0 598 584 22 81 1 594 960 546 591 0 589 587 601 602 8
1 1 596 1066 488 598 601 0 589 603 604 82 1 597 1434780207 14 598 707 596 ?494 5
91 605 5 606 -0 0 494 591 22 81 1 601 961 546 598 0 596 594 607 608 81 1 603 106
7 488 494 607 0 596 609 610 82 1 604 1434911279 14 494 711 603 ?347 598 611 5 61
2 -0 0 347 598 22 81 1 607 962 546 494 0 603 601 613 614 81 1 609 1068 488 479 6
15 0 603 616 617 82 1 610 1433731631 14 479 741 609 ?475 482 477 5 618 -0 0 475
 482 22 81 1 615 966 546 479 0 609 619 620 621 81 1 616 1069 488 475 620 0 609 6
22 623 82 1 617 1437401647 14 475 745 616 ?470 479 474 5 624 -0 0 470 479 22 81
 1 620 967 546 475 0 616 615 625 626 81 1 622 1070 488 470 625 0 616 0 627 82 1
 623 1437663791 14 470 749 622 ?0 475 469 5 628 -0 0 0 475 22 81 1 625 968 546 4
70 0 622 620 0 629 82 1 627 1437925935 80 1 546 0 630 8001 0 0 0 0 3 5 0 0 0 FFF
FTFTFFFFFFF2 83 255 3 629 .792156862745098 .819607843137255 .933333333333333 79
 255 15 630 SDL/TYSA_COLOUR50 628 775 0 470 0 624 0 +-.0375 .2 -.045 -3129395834
06731e-30 0 -1 -1 0 312939583406731e-30 51 624 774 0 475 628 618 0 +-.0375 .2 -.
0375 0 -1 0 .0075 816431199431569e-31 0 1 50 618 773 0 479 624 492 0 +-.045 .2 -
.03 -1 0 1932014827651755e-30 1932014827651755e-30 0 1 50 492 772 0 482 618 487
 0 +-.06 .2 -.03 -544236046870306e-30 0 -1 -1 0 544236046870306e-30 83 3 626 .79
2156862745098 .819607843137255 .933333333333333 81 1 619 965 546 482 0 490 489 6
15 631 83 3 621 .792156862745098 .819607843137255 .933333333333333 81 1 490 1042
 488 482 619 0 486 493 632 81 1 489 964 546 485 0 486 613 619 633 83 3 631 .7921
56862745098 .819607843137255 .933333333333333 81 1 613 963 546 347 0 493 607 489
 634 83 3 633 .792156862745098 .819607843137255 .933333333333333 81 1 493 1043 4
88 347 613 0 490 496 635 83 3 634 .792156862745098 .819607843137255 .93333333333
3333 82 1 635 1436615215 82 1 632 1437139503 83 3 614 .792156862745098 .81960784
3137255 .933333333333333 15 611 714 0 417 494 0 50 612 766 0 494 495 606 0 +.037
5 .2 -.045 1496533435204172e-31 0 -1 1 0 1496533435204172e-31 51 495 770 0 347 4
87 612 0 --.0375 .2 -.0375 0 -1 0 .0225 816431199431569e-31 0 1 51 606 765 0 598
 612 600 0 +.0375 .2 -.0375 0 -1 0 .0075 816431199431569e-31 0 1 50 600 764 0 59
1 606 593 0 +.045 .2 -.03 1 0 176872858776544e-29 -176872858776544e-29 0 1 50 59
3 763 0 584 600 586 0 +.06 .2 -.03 380949806983992e-30 0 -1 1 0 380949806983992e
-30 50 586 762 0 577 593 579 0 +.06 .2 -.0375 -1 0 816431199431569e-31 -81643119
9431569e-31 0 -1 51 579 761 0 570 586 572 0 -.0375 .2 -.0375 0 -1 0 .0225 816431
199431569e-31 0 1 50 572 760 0 564 579 565 0 +-489858719658941e-32 .2 -.06 -1033
940508277024e-31 0 1 -1 0 -1033940508277024e-31 50 565 448 0 457 572 559 0 +-.00
75 .2 .045 1 0 0 0 0 1 50 559 447 0 460 565 519 0 +-.0375 .2 .045 -2312964634635
74e-30 0 1 -1 0 -231296463463574e-30 51 519 446 0 463 559 516 0 +-.0375 .2 .0375
 0 -1 0 .0075 0 0 -1 17 417 0 611 636 237 415 241 239 0 234 -17 636 0 611 263 41
7 395 234 232 0 266 -17 237 0 611 417 263 383 637 235 0 241 +17 241 0 143 638 24
5 383 417 239 0 0 +17 234 0 605 414 266 415 636 232 0 245 +15 605 710 0 414 598
 0 17 414 0 605 639 234 412 245 243 0 231 -17 266 0 605 234 639 395 394 264 0 0
 +17 245 0 143 241 248 415 414 243 0 0 +17 248 0 143 245 251 412 411 246 0 0 +17
 251 0 143 248 254 409 408 249 0 0 +17 411 0 599 640 231 409 248 246 0 228 -15 5
99 706 0 411 591 0 17 640 0 599 269 411 389 228 226 0 272 -17 231 0 599 411 269
 412 639 229 0 248 +17 228 0 592 408 272 409 640 226 0 251 +15 592 702 0 408 584
 0 17 408 0 592 641 228 406 251 249 0 225 -17 272 0 592 228 641 389 388 270 0 0
 +17 641 0 592 272 408 386 225 223 0 275 -17 388 0 28 385 391 386 272 270 0 641
 -17 385 0 28 341 388 382 275 273 0 642 -17 391 0 28 388 394 389 269 267 0 640 -
17 394 0 28 391 397 392 266 264 0 639 -17 269 0 599 231 640 392 391 267 0 0 +17
 397 0 28 394 29 395 263 238 0 636 -17 639 0 605 266 414 392 231 229 0 269 -17 2
9 0 28 397 25 398 643 107 0 637 +17 263 0 611 237 636 398 397 238 0 0 +17 643 0
 531 66 637 11 29 107 0 0 -17 637 0 531 643 127 398 237 235 0 263 -15 531 185 0
 127 525 0 17 127 0 531 637 66 383 638 125 0 237 +17 66 0 531 127 643 20 33 112
 0 638 +17 638 0 143 64 241 20 127 125 0 0 -17 64 0 143 58 638 53 61 65 0 0 -17
 58 0 143 100 64 51 54 59 0 0 -17 33 0 63 31 61 11 66 112 0 643 -15 63 187 0 61
 530 0 17 31 0 63 60 33 26 25 32 0 0 -17 60 0 63 61 31 53 56 103 0 64 +17 341 0
 28 336 385 380 278 276 0 644 -17 275 0 585 225 642 386 385 273 0 0 +17 642 0 58
5 275 405 382 222 220 0 278 -15 585 698 0 405 577 0 17 405 0 585 642 225 403 254
 252 0 222 -17 222 0 578 402 278 403 642 220 0 257 +17 278 0 578 222 644 382 341
 276 0 0 +15 578 694 0 402 570 0 17 644 0 578 278 402 380 219 198 0 280 -17 402
 0 578 644 222 368 257 255 0 219 -17 219 0 571 349 280 368 644 198 0 260 +17 280
 0 571 219 343 380 336 242 0 0 +15 571 690 0 349 564 0 17 343 0 571 280 349 342
 282 261 0 0 -17 349 0 571 343 219 348 260 258 0 0 -17 260 0 143 257 370 368 349
 258 0 0 +17 257 0 143 254 260 403 402 255 0 0 +17 254 0 143 251 257 406 405 252
 0 0 +17 225 0 585 405 275 406 641 223 0 254 +83 3 608 .792156862745098 .8196078
43137255 .933333333333333 83 3 602 .792156862745098 .819607843137255 .9333333333
33333 83 3 595 .792156862745098 .819607843137255 .933333333333333 83 3 588 .7921
56862745098 .819607843137255 .933333333333333 83 3 581 .792156862745098 .8196078
43137255 .933333333333333 83 3 574 .792156862745098 .819607843137255 .9333333333
33333 83 3 567 .792156862745098 .819607843137255 .933333333333333 83 3 561 .7921
56862745098 .819607843137255 .933333333333333 81 1 554 952 546 465 0 514 513 551
 645 83 3 556 .792156862745098 .819607843137255 .933333333333333 81 1 514 1047 4
88 465 554 0 511 517 646 81 1 513 951 546 510 0 511 647 554 648 83 3 645 .792156
862745098 .819607843137255 .933333333333333 81 1 647 950 546 508 0 517 649 513 6
50 83 3 648 .792156862745098 .819607843137255 .933333333333333 81 1 517 1048 488
 508 647 0 514 522 651 81 1 649 949 546 505 0 522 652 647 653 83 3 650 .79215686
2745098 .819607843137255 .933333333333333 81 1 522 1049 488 505 649 0 517 524 65
4 81 1 652 948 546 147 0 527 655 649 656 83 3 653 .792156862745098 .819607843137
255 .933333333333333 81 1 527 1051 488 147 652 0 524 529 657 81 1 655 947 546 89
 0 524 658 652 659 83 3 656 .792156862745098 .819607843137255 .933333333333333 8
1 1 524 1050 488 89 655 0 522 527 660 81 1 658 946 546 525 0 529 661 655 662 83
 3 659 .792156862745098 .819607843137255 .933333333333333 81 1 529 1052 488 525
 658 0 527 533 663 81 1 661 945 546 530 0 533 664 658 665 83 3 662 .792156862745
098 .819607843137255 .933333333333333 81 1 533 1053 488 530 661 0 529 535 666 81
 1 664 944 546 105 0 535 667 661 668 83 3 665 .792156862745098 .819607843137255
 .933333333333333 81 1 535 1054 488 105 664 0 533 537 669 81 1 667 943 546 99 0
 537 548 664 670 83 3 668 .792156862745098 .819607843137255 .933333333333333 81
 1 537 1055 488 99 667 0 535 539 671 81 1 548 942 546 150 0 539 541 667 672 83 3
 670 .792156862745098 .819607843137255 .933333333333333 83 3 672 .79215686274509
8 .819607843137255 .933333333333333 82 1 671 1281163819 82 1 669 1280901675 82 1
 666 1280639531 82 1 663 1462567471 82 1 660 1462698543 82 1 657 1464664623 82 1
 654 1365246510 82 1 651 1365377582 82 1 646 1365639726 82 1 550 1281425963 81 1
 547 940 546 497 0 500 499 541 673 83 3 549 .792156862745098 .819607843137255 .9
33333333333333 81 1 500 1045 488 497 547 0 496 511 674 81 1 499 939 546 16 0 496
 0 547 675 83 3 673 .792156862745098 .819607843137255 .933333333333333 83 3 675
 .792156862745098 .819607843137255 .933333333333333 82 1 674 1281950251 79 14 54
5 SWEntUnchanged82 1 515 1365508654 17 423 0 28 71 426 421 215 213 0 506 -17 71
 0 28 67 423 419 217 179 0 502 -17 72 0 498 157 74 419 67 73 0 71 -82 1 501 1383
268910 82 1 491 1436877359 19 17 226 0 1 0 9 5 S0 74 4 CI16 index_map_offset0 0
 1 dCCZ20 15 8 0 0 676 677 622 678 679 13 625 2 0 0 0 0 0 0 0 0 0 0 0 0 81 2 676
 274 680 1 0 677 0 0 0 681 81 2 677 278 682 1 676 678 0 0 0 683 81 1 678 905 684
 1 677 679 0 0 685 81 2 679 906 686 1 678 13 0 0 0 0 81 2 13 938 687 1 679 2 0 0
 0 688 80 2 687 689 690 9000 0 0 0 0 3 5 0 0 0 FFTFFFFFFFFFFF9 1 82 1 688 1 79 2
4 690 BODY_IN_LIGHTWEIGHT_PERM80 2 686 691 692 9000 0 0 0 0 3 5 0 0 0 FFTFFFFFFF
FFFF9 1 79 16 692 BODY_RECIPE_200180 1 684 693 694 9000 1 1 1 1 1 1 1 1 0 FFTFFF
FFFFFFFF1 82 1 685 22066 79 10 694 BODY_MATCH80 2 682 695 696 9000 0 0 0 0 3 5 0
 0 0 FFTFFFFFFFFFFF9 1 82 1 683 56 79 30 696 LAST_BODY_MODIFYING_FEATURE_ID80 2
 680 697 698 9000 0 0 0 0 3 5 0 0 0 FFTFFFFFFFFFFF9 1 82 1 681 670 79 19 698 ENT
_TIME_STAMP_200180 2 12 699 700 9000 0 0 0 0 3 5 0 0 0 FFTFFFFFFFFFFF9 1 82 1 14
 105 79 12 700 ATOM_ID_20011 0 
