**ABCDEFGHIJKLMNOPQRSTUVWXYZabcdefghijklmnopqrstuvwxyz**************************
**PARASOLID !"#$%&'()*+,-./:;<=>?@[\]^_`{|}~0123456789**************************
**PART1;
MC=unknown;
MC_MODEL=unknown;
MC_ID=unknown;
OS=unknown;
OS_RELEASE=unknown;
FRU=Parasolid 34.1.198;
APPL=Onshape;
SITE=unknown;
USER=unknown;
FORMAT=text;
GUISE=transmit;
KEY=BTGapi::writeModels_.xmt;
FILE=BTGapi::writeModels_.xmt;
DATE=2022-11-30T05:11:09 (UTC);
**PART2;
SCH=SCH_3401198_34101;
USFLD_SIZE=0;
**PART3;
**END_OF_HEADER*****************************************************************
T51 : TRANSMIT FILE created by modeller version 340119823 SCH_3401198_34101_1300
6231 0 12 36 CCCI7 lattice222 0 CCCI4 mesh1006 0 I8 polyline1008 0 CCCCCCCDI5 ow
ner1040 0 CCCI16 boundary_lattice222 0 CCCI13 boundary_mesh1006 0 I17 boundary_p
olyline1008 0 CCCA16 index_map_offset0 0 1 dA9 index_map82 0 A17 node_id_index_m
ap82 0 A20 schema_embedding_map82 0 A5 child12 0 A14 lowest_node_id0 0 1 dA16 me
sh_offset_data206 0 Z1 2474 2 3 0 4 0 0 0 0 0 1e3 1e-8 0 5 0 1 0 1 1 6 0 7 8 9 0
 0 10 11 12 0 0 0 0 0 0 0 81 255 1 2 2474 13 1 14 0 15 0 16 70 11 CI9 list_type0
 0 1 uI10 notransmit0 0 1 lCCCDCCDI12 finger_index0 0 1 dI12 finger_block1012 0
 CZ3 0 4 T1 0 0 8 20 1 17 17 52 255 4 2025 0 1 0 0 0 --.01 .01 .0155596324492658
5 0 0 1 .00275 .707106781186549 .707106781186547 -1 1224646799147352e-31 0 13 25
5 6 253 0 1 0 18 0 0 19 0 51 255 7 2206 0 20 21 0 0 +-.0429594981509177 .04 .002
31476134932874 -1224646799147352e-31 -1 0 .0003147613493287415 1 -12246467991473
52e-31 0 31 255 8 2212 0 22 23 0 0 +-.0429594981509177 .002099852563648925 .0023
1476134932874 -2312964634635745e-31 1 0 -1 -2312964634635745e-31 0 .000314761349
3287415 29 255 9 2125 0 12 24 0 -.0429594981509177 .002099852563648925 .002 19 9
 CCCCCCI5 frame230 0 CA5 owner12 0 Z10 88 0 1 19 0 25 0 V0 16 255 11 2140 26 ?27
 0 28 29 0 0 1 18 255 12 2123 30 31 0 32 9 ?1 81 1 30 2384 13 12 33 0 34 35 36 1
7 255 31 0 37 38 39 12 40 41 0 42 +18 32 2120 43 39 12 44 24 ?1 81 1 43 2386 13
 32 45 0 35 46 47 17 39 0 37 31 48 32 49 50 0 40 +18 44 2114 51 52 32 53 54 ?1 2
9 24 2122 0 32 54 9 -.0429594981509177 .0451092735086569 .002 29 54 2116 0 44 55
 24 -.0485949664364936 .00178509121432018 .00864730848483183 29 55 2113 0 53 56
 54 -.0435565353682187 .001785091214320185 .00251437444830382 18 53 2111 57 58 4
4 59 55 ?1 29 56 2110 0 59 60 55 -.04241431550162135 .001785091214320185 .002 18
 59 2107 61 38 53 62 56 ?1 29 60 2099 0 62 63 56 -.0483005042616828 .00209985256
3648925 .00899096154951233 18 62 2097 64 65 59 66 60 ?1 29 63 2095 0 66 67 60 -.
0483005042616828 .0451092735086569 .00899096154951233 18 66 2093 34 68 62 69 63
 ?1 29 67 2091 0 69 70 63 -.0432580167595682 .0451092735086569 .0024145678988162
8 18 69 2089 46 71 66 72 67 ?1 29 70 2088 0 72 73 67 -.0432580167595682 .0020998
52563648925 .00241456789881628 18 72 2086 35 74 69 75 70 ?1 29 73 2082 0 75 76 7
0 -.0435565353682187 .0454240348579857 .00251437444830382 18 75 2080 77 78 72 79
 73 ?1 29 76 2079 0 79 80 73 -.0485949664364936 .0454240348579857 .0086473084848
3183 18 79 2077 81 82 75 83 76 ?1 29 80 2076 0 83 84 76 -.04241431550162135 .045
4240348579857 .002 18 83 2073 85 27 79 86 80 ?1 29 84 2067 0 86 87 80 -.04859379
84612452 .0454240348579857 .00863678659139448 18 86 2064 88 89 83 90 84 ?1 29 87
 2063 0 90 91 84 -.0485937984612451 .00178509121432018 .00863678659139447 18 90
 2060 92 93 86 94 87 ?1 29 91 2041 0 95 96 87 -.04 .0454240348579857 .002 18 95
 899 97 98 99 100 91 ?1 29 96 2040 0 100 101 91 -.04 .0454240348579857 -69388939
0390723e-32 18 100 880 102 103 95 104 96 ?1 29 101 2039 0 105 106 96 -.047354049
6217739 .0454240348579857 -.000958099243547826 18 105 895 107 108 109 110 101 ?1
 29 106 2038 0 94 111 101 -.0525825756949558 .0454240348579857 .002 18 94 1886 1
12 113 90 114 106 ?1 29 111 2037 0 115 116 106 -.0502360679774998 .0454240348579
857 .002 18 115 1838 117 118 119 120 111 ?1 29 116 2036 0 121 122 111 -.04761892
46248119 .0454240348579857 .00102430150075226 18 121 1646 123 124 125 126 116 ?1
 29 122 2035 0 127 128 116 -.0477438750093234 .0454240348579857 .002 18 127 1724
 129 130 131 132 122 ?1 29 128 2034 0 132 133 122 -.0457639320225002 .0454240348
579857 .002 18 132 1713 134 135 127 136 128 ?1 29 133 2033 0 120 137 128 -.04838
10753751881 .0454240348579857 .00697569849924774 18 120 1802 138 139 115 140 133
 ?1 29 137 1885 0 114 141 133 -.0525825756949559 .00178509121432018 .002 18 114
 1881 142 143 94 119 137 ?1 29 141 1843 0 119 144 137 -.0502360679774998 .001785
09121432018 .002 18 119 1841 145 146 114 115 141 ?1 29 144 1801 0 140 147 141 -.
0483810753751881 .00178509121432018 .00697569849924774 18 140 1799 148 149 120 1
31 144 ?1 29 147 1768 0 131 150 144 -.0457639320225002 .001785091214320185 .002
 18 131 1766 151 152 140 127 147 ?1 29 150 1698 0 136 153 147 -.0477438750093234
 .00178509121432018 .002 18 136 1696 154 155 132 125 150 ?1 29 153 1672 0 126 15
6 150 -.04 .001785091214320185 .002 18 126 630 157 158 121 159 153 ?1 29 156 165
6 0 125 160 153 -.0476189246248119 .00178509121432018 .00102430150075226 18 125
 1652 161 162 136 121 156 ?1 29 160 1631 0 99 163 156 -.04 .0480578905428158 0 1
8 99 885 164 165 166 95 160 ?1 29 163 1630 0 166 167 160 -.04 .0480578905428158
 .002 18 166 879 168 169 110 99 163 ?1 29 167 1629 0 170 171 163 588539418270332
e-32 .0480578905428158 .002 18 170 47 172 173 159 174 167 ?1 29 171 1628 0 159 1
75 167 588539418270332e-32 .0480578905428158 0 18 159 52 176 177 126 170 171 ?1
 29 175 1613 0 110 178 171 -.0473540496217739 .00178509121432018 -.0009580992435
47826 18 110 1039 179 180 105 166 175 ?1 29 178 1612 0 104 181 175 -.04 .0017850
91214320185 -2643481205212215e-34 18 104 1048 182 183 100 184 178 ?1 29 181 211
 0 174 185 178 0 0 0 18 174 188 186 187 170 109 181 ?1 29 185 212 0 109 188 181
 0 0 .002 18 109 192 189 190 174 105 185 ?1 29 188 1179 0 184 191 185 -.04 69388
9390390723e-32 .002 18 184 1031 192 193 104 194 188 ?1 29 191 1180 0 194 0 188 -
.04 693889390390723e-32 0 18 194 1058 195 196 184 0 191 ?1 81 1 195 2429 13 194
 197 0 198 182 199 17 196 0 200 193 201 194 202 203 0 204 +15 255 200 1070 0 196
 205 0 17 193 0 200 206 196 184 204 207 0 208 +17 201 0 200 196 206 104 209 210
 0 202 -17 202 0 211 212 213 104 196 203 0 214 -16 203 987 215 ?196 216 217 218
 0 0 1 17 204 0 219 220 221 194 193 207 0 213 -15 219 616 0 204 222 0 17 220 0 2
19 190 204 174 213 223 0 0 -17 221 0 219 204 190 184 224 225 0 0 -16 207 951 226
 ?193 210 22 227 0 0 1 17 213 0 211 202 228 194 220 223 0 0 +15 211 231 0 213 22
9 0 17 228 0 211 213 230 174 231 232 0 220 +16 223 152 233 ?213 234 235 236 0 0
 1 81 1 233 2467 13 223 237 0 238 239 240 16 234 7 15 ?241 242 223 243 0 0 1 16
 235 156 238 ?187 223 225 244 0 0 1 30 255 236 202 0 223 244 245 0 +-.02 2449293
598294705e-33 0 -1 1224646799147352e-31 0 30 244 203 0 235 246 236 0 +0 0 .001 0
 0 -1 30 245 245 0 247 236 248 0 +-.04 .04 .002 -1224646799147352e-31 -1 0 16 24
7 213 249 ?250 251 252 245 0 0 1 30 248 246 0 251 245 253 0 +-.0476189246248119
 .04 .00102430150075226 -1224646799147352e-31 -1 0 16 251 214 254 ?255 256 247 2
48 0 0 1 30 253 247 0 256 248 257 0 +-.0457639320225002 .04 .002 -12246467991473
52e-31 -1 0 16 256 215 258 ?259 260 251 253 0 0 1 30 257 249 0 260 253 261 0 +-.
0473540496217739 .04 -.000958099243547826 -1224646799147352e-31 -1 0 16 260 217
 262 ?263 264 256 257 0 0 1 30 261 250 0 265 257 266 0 +-.04 .04 0 -122464679914
7352e-31 -1 0 16 265 218 267 ?103 232 264 261 264 264 1 30 266 251 0 232 261 268
 0 +489858719658941e-32 .04 0 -1224646799147352e-31 -1 0 16 232 219 269 ?228 270
 265 266 0 0 1 30 268 252 0 270 266 271 0 +489858719658941e-32 .04 .002 -1224646
799147352e-31 -1 0 16 270 220 272 ?273 274 232 268 0 0 1 31 271 460 0 274 268 27
5 0 +-.03 .01 .002 0 0 1 -1 1224646799147352e-31 0 .0056 16 274 458 276 ?277 278
 270 271 0 0 1 31 275 464 0 278 271 279 0 --.03 .01 216840434497101e-32 0 0 1 -1
 1224646799147352e-31 0 .0036 16 278 462 280 ?281 282 274 275 0 0 1 31 279 476 0
 282 275 283 0 +-.01 .03 .002 0 0 1 -1 1224646799147352e-31 0 .0056 16 282 474 2
84 ?285 286 278 279 0 0 1 31 283 480 0 286 279 287 0 --.01 .03 0 0 0 1 -1 122464
6799147352e-31 0 .0036 16 286 478 288 ?289 290 282 283 0 0 1 31 287 492 0 290 28
3 291 0 +-.03 .03 .002 0 0 1 -1 1224646799147352e-31 0 .0056 16 290 490 292 ?293
 294 286 287 0 0 1 31 291 496 0 294 287 295 0 --.03 .03 216840434497101e-32 0 0
 1 -1 1224646799147352e-31 0 .0036 16 294 494 296 ?297 298 290 291 0 0 1 30 295
 1618 0 210 291 299 0 +-.04 .001785091214320185 -.0687486354243376 0 0 1 16 210
 984 300 ?209 301 207 295 0 0 1 30 299 1619 0 302 295 303 0 +-.04367702481088695
 .00178509121432018 -.000479049621773911 -.991619848709566 -2293581641068075e-31
 -.129190075645216 16 302 963 304 ?305 306 307 299 0 0 1 31 303 1620 0 307 299 3
08 0 +-.048 .00178509121432018 .004 -2312964634635745e-31 1 0 -1 -23129646346357
45e-31 0 .005 16 307 966 309 ?310 302 311 303 0 0 1 31 308 1622 0 311 303 312 0
 +-.048 .00178509121432018 .004 -2312964634635745e-31 1 0 -1 -2312964634635745e-
31 0 .003 16 311 999 313 ?146 307 216 308 216 216 1 30 312 1632 0 252 308 314 0
 +-.02 .0480578905428158 0 -1 1224646799147352e-31 0 16 252 17 315 ?316 247 242
 312 0 0 1 30 314 1633 0 242 312 243 0 +588539418270332e-32 .0480578905428158 .0
01 0 0 -1 16 242 12 317 ?177 252 234 314 0 0 1 30 243 1634 0 234 314 318 0 +-.02
 .0480578905428158 .002 1 -1224646799147352e-31 0 30 318 1635 0 319 243 320 0 +-
.04 .0480578905428158 .004 0 0 1 16 319 822 321 ?322 217 301 318 0 0 1 30 320 16
78 0 323 318 324 0 +-.0475 .00178509121432018 .002 -1 -2312964634635745e-31 0 16
 323 1661 325 ?326 327 328 320 329 328 1 30 324 1680 0 330 320 331 0 --.04761892
46248119 .00178509121432018 .00102430150075226 -.1270251250626992 -2938046219802
06e-31 .991899499749247 16 330 2061 332 ?149 329 333 324 333 333 1 30 331 1740 0
 334 324 335 0 +-.0477438750093234 .04 .002 -1224646799147352e-31 -1 0 16 334 17
38 336 ?337 338 339 331 0 0 1 30 335 1807 0 338 331 340 0 --.0483810753751881 .0
4 .00697569849924774 -1224646799147352e-31 -1 0 16 338 1805 341 ?342 343 334 335
 0 0 1 30 340 1846 0 343 335 344 0 +-.0502360679774998 .04 .002 -122464679914735
2e-31 -1 0 16 343 1844 345 ?346 347 338 340 0 0 1 30 344 1893 0 347 340 348 0 --
.0525825756949558 .04 .002 -1224646799147352e-31 -1 0 16 347 1891 349 ?113 350 3
43 344 0 0 1 30 348 2044 0 350 344 351 0 +-.0388258837452083 .0454240348579857 -
.0676378064518945 .1270251250626992 0 -.991899499749247 16 350 2065 352 ?139 353
 347 348 0 0 1 31 351 2045 0 306 348 354 0 +-.048 .0454240348579857 .004 0 1 0 0
 0 1 .003 16 306 1810 355 ?356 357 302 351 0 0 1 30 354 2046 0 339 351 358 0 +-.
0475 .0454240348579857 .002 -1 0 0 16 339 1728 359 ?360 334 327 354 0 0 1 30 358
 2047 0 298 354 361 0 +-.0388258837452083 .0454240348579857 -.0676378064518945 .
1270251250626992 0 -.991899499749247 16 298 1649 362 ?363 333 294 358 0 0 1 31 3
61 2048 0 357 358 364 0 +-.048 .0454240348579857 .004 0 1 0 0 0 1 .003 16 357 80
5 365 ?366 367 306 361 0 0 1 30 364 2049 0 353 361 368 0 +-.0475 .04542403485798
57 .002 -1 0 0 16 353 1916 369 ?370 371 350 364 0 0 1 31 368 2050 0 367 364 372
 0 +-.048 .0454240348579857 .004 0 1 0 0 0 1 .005 16 367 852 373 ?374 375 357 36
8 0 0 1 30 372 2051 0 375 368 376 0 +-.04367702481088695 .0454240348579857 -.000
479049621773913 -.991619848709566 0 -.129190075645216 16 375 849 377 ?108 225 36
7 372 0 0 1 30 376 2052 0 301 372 378 0 +-.04 .0454240348579857 -.06874863542433
76 0 0 1 16 301 846 379 ?380 319 210 376 0 0 1 30 378 2053 0 327 376 381 0 +-.04
75 .0454240348579857 .002 -1 0 0 16 327 1666 382 ?48 339 323 378 0 0 1 30 381 20
70 0 371 378 383 0 --.0485937984612451 .0166425456071601 .00863678659139447 -122
4646799147352e-31 -1 -489187186776375e-49 16 371 2068 384 ?385 386 353 381 0 0 1
 31 383 2083 0 386 381 387 0 +-.048 .0454240348579857 .004 0 1 0 0 0 1 .00468523
865067126 16 386 2081 388 ?78 389 371 383 0 0 1 31 387 2085 0 389 383 390 0 +-.0
482815868363056 .0454240348579857 .00867676919115785 0 1 0 0 0 1 .00031476134932
87415 16 389 2084 391 ?82 392 386 387 0 0 1 30 390 2092 0 392 387 393 0 --.04325
80167595682 .04 .00241456789881628 -1224646799147352e-31 -1 0 16 392 2090 394 ?7
1 395 389 390 0 0 1 31 393 2096 0 395 390 396 0 --.048 .0451092735086569 .004 0
 1 0 0 0 1 .005 16 395 2094 397 ?68 398 392 393 0 0 1 31 396 2100 0 398 393 399
 0 +-.048 .002099852563648925 .004 -2312964634635745e-31 1 0 -1 -231296463463574
5e-31 0 .005 16 398 2098 400 ?74 401 395 396 0 0 1 30 399 2103 0 401 396 402 0 +
-.0483005042616828 .04 .00899096154951233 -1224646799147352e-31 -1 0 16 401 2101
 403 ?404 405 398 399 0 0 1 31 402 2117 0 405 399 406 0 --.048 .0017850912143201
8 .004 -2312964634635745e-31 1 0 -1 -2312964634635745e-31 0 .00468523865067126 1
6 405 2115 407 ?52 408 401 402 0 0 1 31 406 2119 0 408 402 409 0 --.048281586836
3056 .00178509121432018 .00867676919115785 -2312964634635745e-31 1 0 -1 -2312964
634635745e-31 0 .0003147613493287415 16 408 2118 410 ?93 41 405 406 0 0 1 30 409
 2126 0 41 406 411 0 --.0429594981509177 .00178509121432018 .002 122464679914735
2e-31 1 0 16 41 2124 412 ?31 50 408 409 0 0 1 38 12 CCCCCCCCCCCA17 intersection_
data204 0 Z411 2128 0 50 409 413 0 +414 415 416 417 418 419 16 50 2127 420 ?39 4
21 41 411 0 0 1 38 413 2131 0 421 411 422 0 -415 21 423 424 425 426 54 255 414 2
208 0 427 428 21 429 +-.0429594981509177 .0451092735086569 .00231476134932874 0
 1 0 .000629522698657483 .0003147613493287415 0 0 1 50 255 415 244 0 430 431 432
 433 +-.02 .04 .002 0 0 -1 1 -1224646799147352e-31 0 40 255 4 416 0 1 4 37206847
90627145e-20 .3387223224785725 ??-.04241431550162135 .0454240348579857 .002 -.04
257169617628575 .0453959085518326 .002 -.04276264404641035 .0452891893212541 .00
2 -.04295698910189775 .045111782517822 .002 41 3 CI8 term_use0 0 1 cCZ1 417 L?-.
04241431550162135 .0454240348579857 .002 41 2 418 TF-.0429594981509177 .04510927
35086569 .002 -.04295698910189775 .045111782517822 .002 204 2 17 INTERSECTION_DA
TA17 Intersection data7 uv_type0 0 1 u6 values0 1 1 fT20 419 4 2.094395102393195
 1.5707963267949 -.02241431550162135 -.00542403485798567 2.25260358590853 1.9967
5643628577 -.02257169617628575 -.00539590855183258 2.582700367506625 2.533145037
641205 -.02276264404641035 -.00528918932125413 3.13362154822815 3.13362142160322
 -.02295698910189775 -.005111782517822 3.141592653589795 -3.141592653589795 -.02
29594981509177 -.00510927350865692 14 255 430 236 434 ?435 436 437 6 415 -438 43
9 435 436 25 50 431 243 0 435 440 415 0 +489858719658941e-32 .04 .001 -1 1224646
799147352e-31 0 0 0 -1 52 432 454 0 436 415 441 0 --.03 .01 -.000849999999999988
 0 0 1 .00275 .707106781186549 .707106781186547 -1 1224646799147352e-31 0 141 25
5 433 411 442 442 415 141 442 413 433 433 415 14 436 452 443 ?430 444 445 6 432
 +0 0 430 444 25 52 441 470 0 444 432 446 0 --.01 .03 -.00084999999999999 0 0 1
 .00275 .707106781186549 .707106781186547 -1 1224646799147352e-31 0 14 444 468 4
47 ?436 448 449 6 441 +0 0 436 448 25 52 446 486 0 448 441 450 0 --.03 .03 -.000
849999999999988 0 0 1 .00275 .707106781186549 .707106781186547 -1 12246467991473
52e-31 0 14 448 484 451 ?444 222 452 6 446 +0 0 444 222 25 50 450 1611 0 18 446
 453 0 +-.0475 .00178509121432018 -.0687486354243376 -2312964634635745e-31 1 0 -
1 -2312964634635745e-31 0 14 18 1079 454 ?455 0 456 6 450 -0 0 455 0 25 50 453 1
627 0 457 450 458 0 +-.0265 .0480578905428158 .004 1224646799147352e-31 1 0 -1 1
224646799147352e-31 0 14 457 1 459 ?222 460 461 6 453 +0 0 222 460 25 50 458 164
5 0 462 453 463 0 +-.0476189246248119 .0166425456071601 .00102430150075226 .9918
99499749247 -1214726547443774e-31 .127025125062699 -1224646799147352e-31 -1 0 14
 462 1640 464 ?465 439 466 6 458 -467 467 465 439 25 50 463 2032 0 455 458 468 0
 +-.0475 .0454240348579857 -.0687486354243376 0 1 0 0 0 1 14 455 932 469 ?470 18
 471 6 463 +0 0 470 18 25 54 468 2211 0 472 463 473 474 +-.048 .0451092735086569
 .004 0 1 0 .00468523865067126 .0003147613493287415 0 0 1 14 472 2166 475 ?476 4
77 478 6 468 +0 0 476 477 25 51 473 2210 0 476 468 428 479 +-.0482815868363056 .
04 .00867676919115785 -1224646799147352e-31 -1 0 .0003147613493287415 1 -1224646
799147352e-31 0 141 474 480 474 474 468 38 480 2217 0 481 29 482 0 -468 473 483
 484 485 486 16 481 2191 487 ?488 489 0 480 0 0 1 31 29 2146 0 11 422 480 0 --.0
429594981509177 .0454240348579857 .00231476134932874 0 1 0 0 0 1 .00062952269865
7483 38 482 2216 0 489 480 490 0 +473 428 491 492 493 494 40 6 483 0 1 6 2738430
13639164e-19 .366470846144924 ??-.0485949664364936 .0454240348579857 .0086473084
8483183 -.0485916470022519 .0454130090010756 .00873096698193006 -.04856851296910
25 .0453835347020045 .00880618364688247 -.0485127081755585 .0453219853875978 .00
889044566055302 -.048412396414406 .0452192392697092 .00896306198063818 -.0483031
32557593 .0451118229837473 .00899079226184766 41 1 484 L?-.0485949664364936 .045
4240348579857 .00864730848483183 41 2 485 TF-.0483005042616828 .0451092735086569
 .00899096154951233 -.048303132557593 .0451118229837473 .00899079226184766 204 2
8 486 4 6.15585407610024 1.5707963267949 3.235326815686785 -.00542403485798567 6
.15877284459046 1.30533182994105 2.96854332352484 -.00541300900107556 6.16544459
959253 1.057907469726922 2.71787624739817 -.00538353470200447 6.17872815078686 .
742032964157423 2.395394174301255 -.00532198538759779 6.2002826147708 .356890473
015574 1.999380400705245 -.00521923926970921 6.22252146913313 .0080997967925759
 1.63930086984406 -.00511182298374732 6.22304821406496 0 1.63093341990952 -.0051
0927350865693 16 489 2187 495 ?65 496 481 482 0 0 1 31 490 2215 0 496 482 497 0
 +-.0435565353682187 .0451092735086569 .00251437444830382 .3170864202367465 -850
103950621002e-30 .948396648086361 .948396648086361 0 -.3170864202367465 .0003147
613493287415 54 428 2209 0 477 473 414 498 +-.048 .002099852563648925 .004 -2312
964634635745e-31 1 0 .00468523865067126 .0003147613493287415 -1 -231296463463574
5e-31 0 40 6 491 0 1 6 2738430136392165e-20 .3664708461449235 ??-.04859496643649
36 .00178509121432018 .00864730848483183 -.0485916470022519 .00179611707123029 .
00873096698193006 -.0485685129691025 .001825591370301385 .00880618364688247 -.04
85127081755585 .001887140684708065 .00889044566055302 -.048412396414406 .0019898
8680259665 .00896306198063818 -.048303132557593 .00209730308855854 .008990792261
84766 41 1 492 L?-.0485949664364936 .00178509121432018 .00864730848483183 41 2 4
93 TF-.0483005042616828 .002099852563648925 .00899096154951233 -.048303132557593
 .00209730308855854 .00899079226184766 204 28 494 4 3.23532681568678 .0382149087
856798 1.443465095715554 -1.5707963267949 2.968543323524845 .0382038829287697 1.
44638386420577 -1.305331829941044 2.71787624739817 .0381744086296986 1.453055619
20784 -1.057907469726912 2.39539417430127 .03811285931529195 1.466339170402166 -
.742032964157421 1.999380400705225 .03801011319740335 1.487893634386112 -.356890
473015557 1.639300869844045 .03790269691144145 1.51013248874844 -.00809979679254
95 1.630933419909525 .0379001474363511 1.510659233680265 220819910485186e-30 14
 477 2164 499 ?472 427 500 6 428 +0 0 472 427 25 141 498 482 498 498 428 81 1 49
9 2339 13 477 501 0 0 502 503 14 427 2162 504 ?477 505 506 6 414 +0 0 477 505 25
 15 500 2165 0 507 477 0 13 25 1965 0 0 0 0 0 0 10 18 17 507 0 500 508 509 72 51
0 511 0 0 +17 508 0 500 512 507 62 74 398 0 404 -17 509 0 500 507 512 53 52 405
 0 0 -17 510 0 513 514 515 53 507 511 0 509 -16 511 2181 516 ?507 517 496 497 0
 0 1 81 1 516 2365 13 511 518 0 495 420 519 16 517 2179 520 ?521 22 511 23 0 0 1
 16 496 2184 522 ?523 511 489 490 0 0 1 31 497 2214 0 511 490 23 0 +-.0435565353
682187 .002099852563648925 .00251437444830382 .3170864202367465 850103950621002e
-30 .948396648086361 .948396648086361 0 -.3170864202367465 .0003147613493287415
 31 23 2213 0 517 497 8 0 --.0429594981509177 .0451092735086569 .002314761349328
74 0 1 0 0 0 1 .0003147613493287415 81 1 522 2369 13 496 524 0 487 412 525 17 52
3 0 478 526 527 75 528 496 0 0 +15 478 2167 0 523 472 0 17 526 0 478 529 523 79
 78 386 0 488 -17 527 0 478 523 529 69 68 395 0 0 -17 528 0 506 521 530 69 523 4
96 0 527 -15 506 2163 0 49 427 0 17 521 0 506 49 528 32 531 517 0 0 +17 530 0 50
6 528 49 75 27 11 0 523 -17 49 0 506 530 521 83 39 50 0 0 -17 27 0 471 98 78 83
 530 11 0 48 +15 471 1910 0 78 455 0 17 98 0 471 532 27 95 48 327 0 380 -17 78 0
 471 27 82 75 526 386 0 530 +17 48 0 37 39 250 83 98 327 0 49 +15 37 235 0 31 43
0 0 17 250 0 37 48 533 95 169 247 0 0 +17 533 0 37 250 534 166 241 234 0 0 -17 1
69 0 535 165 380 166 250 247 0 322 -15 535 915 0 103 536 0 17 165 0 535 103 169
 99 322 319 0 316 -17 380 0 535 169 103 95 532 301 0 250 +17 322 0 461 241 316 1
66 165 319 0 533 +15 461 6 0 316 457 0 17 241 0 461 177 322 170 533 234 0 534 +1
7 316 0 461 322 177 99 230 252 0 537 +17 177 0 461 316 241 159 173 242 0 231 +17
 230 0 211 228 537 159 316 252 0 0 -17 537 0 211 230 212 99 103 265 0 0 -17 212
 0 211 537 202 100 214 264 0 0 -17 103 0 535 380 165 100 537 265 0 532 +17 532 0
 471 108 98 100 380 301 0 538 -17 108 0 471 374 532 105 538 375 0 539 +17 538 0
 540 214 541 100 108 375 0 212 -15 540 733 0 538 465 0 17 214 0 540 305 538 104
 212 264 0 0 +17 541 0 540 538 305 105 263 260 0 0 -17 305 0 540 541 214 110 183
 302 0 263 +17 263 0 542 310 539 110 541 260 0 0 +15 542 713 0 310 470 0 17 310
 0 542 113 263 114 180 307 0 0 +17 539 0 542 263 113 105 374 367 0 541 -17 113 0
 542 539 310 94 543 347 0 370 +17 374 0 471 544 108 94 539 367 0 0 +17 544 0 471
 124 374 115 370 353 0 366 -17 124 0 471 545 544 121 366 357 0 546 -17 370 0 547
 543 118 94 544 353 0 374 +17 366 0 548 346 546 115 124 357 0 0 +15 548 1820 0 3
66 460 0 17 346 0 548 549 366 119 118 343 0 0 +17 546 0 548 366 549 121 255 251
 0 363 -17 549 0 548 546 346 125 146 311 0 255 -17 255 0 466 155 363 125 546 251
 0 0 +17 363 0 466 255 130 121 545 298 0 0 +15 466 1745 0 130 462 0 17 130 0 466
 363 155 127 337 334 0 360 -17 545 0 471 550 124 127 363 298 0 0 -17 550 0 471 5
51 545 132 360 339 0 0 -17 551 0 471 552 550 120 356 306 0 0 -17 360 0 553 337 1
35 127 550 339 0 545 +15 553 1756 0 135 439 0 17 337 0 553 152 360 136 130 334 0
 0 +17 135 0 553 360 152 132 259 256 0 356 -17 152 0 553 135 337 131 554 328 0 5
55 -17 259 0 556 557 356 131 135 256 0 0 +17 356 0 556 259 342 132 551 306 0 550
 +15 556 668 0 557 558 0 17 342 0 556 356 557 120 559 338 0 551 +17 557 0 556 34
2 259 140 555 216 0 559 -17 559 0 560 561 139 140 342 338 0 0 -15 560 1806 0 561
 467 0 17 561 0 560 385 559 90 149 330 0 562 -17 139 0 560 559 385 120 552 350 0
 342 +17 385 0 560 139 561 86 562 371 0 552 +17 552 0 471 82 551 86 139 350 0 0
 -17 82 0 471 78 552 79 89 389 0 526 +17 89 0 563 562 488 86 82 389 0 385 -15 56
3 2169 0 65 476 0 17 562 0 563 564 89 90 385 371 0 0 -17 488 0 563 89 565 79 529
 481 0 0 +17 565 0 563 488 65 66 404 401 0 529 -17 529 0 478 527 526 66 488 481
 0 0 -17 65 0 563 565 564 62 512 489 0 508 +17 404 0 566 74 68 62 565 401 0 0 +1
5 566 2087 0 68 567 0 17 74 0 566 71 404 72 508 398 0 568 +17 68 0 566 404 71 66
 527 395 0 565 +17 71 0 566 68 74 69 568 392 0 531 +17 568 0 569 42 531 72 71 39
2 0 515 -17 531 0 569 568 40 69 521 517 0 528 -15 569 2159 0 42 20 0 17 40 0 569
 531 42 32 31 41 0 521 -17 42 0 569 40 568 12 515 22 0 570 -17 515 0 513 510 570
 72 42 22 0 507 +16 22 2174 571 ?515 207 517 8 0 0 1 17 570 0 513 515 514 12 38
 421 0 0 -15 513 2161 0 570 505 0 17 514 0 513 570 510 59 58 28 0 0 -17 38 0 37
 158 31 59 570 421 0 326 +16 421 2129 572 ?38 28 50 413 0 0 1 81 1 572 2362 13 4
21 573 0 410 400 574 16 28 2135 575 ?58 11 421 422 0 0 1 81 1 575 2343 13 28 576
 0 504 407 577 17 58 0 456 52 326 53 514 28 0 510 +31 422 2145 0 28 413 29 0 +-.
0429594981509177 .001785091214320185 .00231476134932874 -2312964634635745e-31 1
 0 -1 -2312964634635745e-31 0 .000629522698657483 15 456 2112 0 326 18 0 17 52 0
 456 93 58 44 509 405 0 512 +17 326 0 456 58 209 59 158 323 0 514 +17 209 0 456
 326 183 126 201 210 0 206 +17 158 0 37 208 38 126 326 323 0 209 -17 208 0 37 22
4 158 184 206 217 0 221 +17 224 0 37 534 208 109 221 225 0 0 +17 206 0 200 201 1
93 126 208 217 0 0 -16 217 975 578 ?208 203 319 579 0 0 1 81 1 578 2435 13 217 5
80 0 300 304 581 30 579 1132 0 217 227 218 0 +-.04 .04 .002 0 -1 156831325006856
5e-32 30 227 1136 0 207 0 579 0 +-.04 693889390390723e-32 -.0687486354243376 0 0
 1 30 218 1131 0 203 579 246 0 +-.04 .04 -542101086242752e-33 0 -1 1595492595538
56e-31 30 246 204 0 225 218 244 0 +-.02 2449293598294705e-33 .002 1 -12246467991
47352e-31 0 16 225 160 582 ?224 235 375 246 0 0 1 81 1 582 2465 13 225 583 0 186
 238 584 80 7 CCCCCDI12 legal_owners0 16 1 lCZ1 13 585 586 9000 0 0 0 0 3 5 0 0
 0 FFTFTFTTFFFFFFFF3 81 1 583 1540 585 225 587 582 588 589 590 81 1 186 2464 13
 174 589 0 189 582 591 81 1 238 2466 13 235 588 0 582 233 592 84 255 3 584 JFV81
 1 588 1539 585 235 593 238 237 583 594 84 3 592 JFR80 1 585 595 596 9000 0 0 0
 0 3 6 0 0 0 FFTFTFTTFFFFFFFF1 81 1 593 1491 597 235 0 588 598 587 599 81 1 237
 1538 585 223 598 233 600 588 601 82 255 3 594 4 4 1 81 1 598 1490 597 223 0 237
 602 593 603 81 1 600 1537 585 222 604 605 606 237 607 82 3 601 4 3 1 14 222 120
 239 ?448 457 219 6 608 -0 0 448 457 25 81 1 604 1515 597 222 0 600 609 610 611
 81 1 605 2324 612 222 600 239 613 614 615 81 1 606 1536 585 159 616 176 617 600
 618 82 3 607 4 1 2 81 1 616 1451 597 159 0 606 619 620 621 81 1 176 2469 13 159
 606 0 239 172 622 81 1 617 1535 585 170 620 172 623 606 624 82 3 618 4 1 0 81 1
 620 1452 597 170 0 617 616 625 626 81 1 172 2470 13 170 617 0 176 315 627 81 1
 623 1534 585 252 628 315 629 617 630 82 3 624 4 0 0 81 1 628 1487 597 252 0 623
 631 632 633 81 1 315 2471 13 252 623 0 172 317 634 81 1 629 1533 585 242 632 31
7 635 623 636 82 3 630 4 2 1 81 1 632 1488 597 242 0 629 628 602 637 81 1 317 24
72 13 242 629 0 315 15 638 81 1 635 1532 585 234 602 15 639 629 640 82 3 636 4 1
 1 81 1 602 1489 597 234 0 635 632 598 641 81 1 15 2473 13 234 635 0 317 2 642 8
1 1 639 1530 585 1 643 644 0 635 645 82 3 640 4 0 1 81 1 643 1528 646 1 647 639
 0 0 648 81 1 644 2309 649 1 639 650 0 0 651 82 3 645 4 0 3 80 1 649 652 653 803
8 0 0 0 0 0 0 0 0 0 TTTTTTTTTTTTTFTF10 81 1 650 2310 652 1 644 14 0 0 654 98 255
 6 651 80 97 114 116 32 49 80 1 652 655 656 8017 0 0 0 0 0 0 0 0 0 TTTTTTTTTTTTT
FTF3 81 1 14 2311 657 1 650 2 0 0 658 84 6 654 Part 180 1 657 612 659 8040 0 0 0
 0 3 5 0 0 0 TTTFFFFFFFFFFFFF2 83 255 3 658 .615686274509804 .811764705882353 .9
29411764705882 79 255 17 659 SDL/TYSA_COLOUR_279 13 656 SDL/TYSA_NAME79 14 653 S
DL/TYSA_UNAME80 1 646 597 660 9000 0 0 0 0 3 5 0 0 0 FFTFTFTTFFFFFFFF2 81 1 647
 1527 597 1 0 643 661 662 663 83 1 648 77 80 1 597 664 665 9000 0 0 0 0 3 5 0 0
 0 FFTFTFTTFFFFFFFF2 81 1 661 1526 597 536 0 666 667 647 668 81 1 662 1648 597 1
21 0 669 647 670 671 83 1 663 -1 81 1 669 1969 585 121 662 123 672 673 674 81 1
 670 1759 597 439 0 675 662 676 677 83 1 671 0 14 439 1758 678 ?462 467 553 6 41
5 -430 438 462 467 25 81 1 675 2002 585 439 670 679 680 681 682 81 1 676 1812 59
7 306 0 683 670 684 685 83 1 677 70 81 1 683 1988 585 306 676 355 686 687 688 81
 1 684 1823 597 558 0 689 676 690 691 83 1 685 49 14 558 1821 692 ?467 438 556 6
 693 +460 460 467 438 25 81 1 689 1998 585 558 684 694 695 680 696 81 1 690 1848
 597 438 0 681 684 697 698 83 1 691 63 14 438 1847 699 ?558 470 547 6 415 -439 4
30 558 470 25 81 1 681 2003 585 438 690 700 675 701 702 81 1 697 1895 597 470 0
 680 690 703 704 83 1 698 70 14 470 1894 705 ?438 455 542 6 706 -567 567 438 455
 25 81 1 680 1999 585 470 697 707 689 675 708 81 1 703 1914 597 455 0 709 697 71
0 711 83 1 704 61 81 1 709 2300 585 455 703 712 713 714 715 81 1 710 1927 597 18
 0 716 703 0 717 83 1 711 76 81 1 716 2296 585 18 710 718 719 720 721 83 1 717 7
4 81 1 718 2312 612 18 716 454 0 712 722 81 1 719 2295 585 476 0 723 724 716 725
 81 1 720 2297 585 467 0 726 716 727 728 82 3 721 10 2 2 14 467 1808 729 ?439 55
8 560 6 458 -462 462 439 558 25 81 1 726 2317 612 467 720 729 694 679 730 81 1 7
27 2298 585 567 731 732 720 713 733 82 3 728 10 3 2 14 567 228 734 ?460 465 566
 6 706 -470 470 460 465 25 81 1 731 1510 597 567 0 727 735 736 737 81 1 732 2321
 612 567 727 734 738 739 740 81 1 713 2299 585 430 741 742 727 709 743 82 3 733
 10 4 2 81 1 741 1519 597 430 0 713 744 745 746 81 1 742 2328 612 430 713 434 74
7 748 749 82 3 743 10 5 2 80 1 612 0 750 8001 0 0 0 0 3 5 0 0 0 FFFFTFTFFFFFFFFF
2 81 1 434 2348 13 430 742 0 469 734 751 81 1 747 2327 612 436 752 443 753 742 7
54 81 1 748 2329 612 435 755 756 742 757 758 83 3 749 .615686274509804 .81176470
5882353 .929411764705882 14 435 234 756 ?229 430 759 6 431 -0 0 229 430 25 81 1
 755 1557 585 435 745 748 760 752 761 81 1 756 2456 13 435 748 0 443 762 763 81
 1 757 2330 612 229 764 765 748 766 767 83 3 758 .615686274509804 .8117647058823
53 .929411764705882 14 229 232 765 ?205 435 768 6 440 -0 0 205 435 25 81 1 764 2
029 585 229 769 757 770 771 772 81 1 765 2388 13 229 757 0 46 349 773 81 1 766 2
331 612 205 774 198 757 775 776 83 3 767 .615686274509804 .811764705882353 .9294
11764705882 14 205 1075 198 ?536 229 200 6 777 +0 0 536 229 25 81 1 774 1607 585
 205 667 766 197 778 779 81 1 198 2428 13 205 766 0 459 195 780 81 1 775 2332 61
2 536 666 781 766 782 783 83 3 776 .615686274509804 .811764705882353 .9294117647
05882 14 536 920 781 ?20 205 535 6 784 +0 0 20 205 25 81 1 666 1590 585 536 661
 775 785 786 787 81 1 781 2438 13 536 775 0 226 107 788 81 1 782 2333 612 20 724
 789 775 790 791 83 3 783 .615686274509804 .811764705882353 .929411764705882 14
 20 2158 789 ?505 536 569 6 7 -0 0 505 536 25 81 1 724 2294 585 20 0 782 792 719
 793 81 1 789 2353 13 20 782 0 794 332 795 81 1 790 2334 612 505 796 502 782 797
 798 83 3 791 .615686274509804 .811764705882353 .929411764705882 14 505 2160 502
 ?427 20 513 6 21 +0 0 427 20 25 81 1 796 2307 585 505 0 790 799 800 801 81 1 50
2 2340 13 505 790 0 499 475 802 81 1 797 2335 612 427 803 504 790 501 804 83 3 7
98 .615686274509804 .811764705882353 .929411764705882 81 1 803 2305 585 427 0 79
7 576 799 805 81 1 504 2342 13 427 797 0 475 575 806 81 1 501 2336 612 477 800 4
99 797 807 808 83 3 804 .615686274509804 .811764705882353 .929411764705882 81 1
 800 2308 585 477 0 501 796 0 809 81 1 807 2337 612 472 799 475 501 723 810 83 3
 808 .615686274509804 .811764705882353 .929411764705882 81 1 799 2306 585 472 0
 807 803 796 811 81 1 475 2341 13 472 807 0 502 504 812 81 1 723 2338 612 476 71
9 794 807 0 813 83 3 810 .615686274509804 .811764705882353 .929411764705882 14 4
76 2168 794 ?0 472 563 6 473 +0 0 0 472 25 81 1 794 2352 13 476 723 0 454 789 81
4 83 3 813 .615686274509804 .811764705882353 .929411764705882 81 1 454 2351 13 1
8 718 0 729 794 815 84 3 814 JLG81 1 729 2350 13 467 726 0 734 454 816 84 3 815
 JLK81 1 734 2349 13 567 732 0 434 729 817 84 3 816 JLO84 3 817 JLS84 3 812 JLi8
2 3 811 10 8 2 82 3 809 10 10 2 84 3 806 JLe81 1 576 2304 585 28 0 575 818 803 8
19 82 3 805 10 7 2 81 1 818 2303 585 405 0 407 820 576 821 82 3 819 10 23 1 81 1
 407 2344 13 405 818 0 575 26 822 81 1 820 2302 585 11 0 26 714 818 823 82 3 821
 10 22 1 81 1 26 2345 13 11 820 0 407 388 824 81 1 714 2301 585 386 0 388 709 82
0 825 82 3 823 10 21 1 81 1 388 2346 13 386 714 0 26 469 826 82 3 825 10 20 1 81
 1 469 2347 13 455 712 0 388 434 827 84 4 826 KLRB81 1 712 2313 612 455 709 469
 718 707 828 84 3 827 JLa81 1 707 2314 612 470 680 705 712 700 829 83 3 828 .615
686274509804 .811764705882353 .929411764705882 81 1 705 2405 13 470 707 0 678 69
2 830 81 1 700 2315 612 438 681 699 707 694 831 83 3 829 .615686274509804 .81176
4705882353 .929411764705882 81 1 699 2403 13 438 700 0 129 678 832 81 1 694 2316
 612 558 689 692 700 726 833 83 3 831 .615686274509804 .811764705882353 .9294117
64705882 81 1 692 2406 13 558 694 0 705 834 835 83 3 833 .615686274509804 .81176
4705882353 .929411764705882 81 1 834 2407 13 460 739 0 692 464 836 84 3 835 JIW1
4 460 224 834 ?457 567 548 6 693 +558 558 457 567 25 81 1 739 2322 612 460 695 8
34 732 613 837 81 1 464 2408 13 462 838 0 834 313 839 84 3 836 JIS81 1 838 2319
 612 462 840 464 679 738 841 81 1 313 2409 13 311 842 0 464 843 844 84 3 839 JIK
81 1 842 1994 585 311 0 313 845 840 846 81 1 843 2410 13 216 845 0 313 309 847 8
4 4 844 KIBB16 216 1815 843 ?555 311 203 308 311 311 1 81 1 845 1993 585 216 0 8
43 848 842 849 81 1 309 2411 13 307 848 0 843 373 850 84 3 847 JI981 1 848 1991
 585 307 851 309 687 845 852 81 1 373 2412 13 367 687 0 309 355 853 84 3 850 JI1
81 1 687 1989 585 367 854 373 683 848 855 81 1 355 2413 13 306 683 0 373 365 856
 84 3 853 JIt81 1 365 2414 13 357 686 0 355 857 858 84 3 856 JIp81 1 686 1987 58
5 357 859 365 860 683 861 81 1 857 2415 13 333 860 0 365 862 863 84 3 858 JIl16
 333 1655 857 ?162 330 298 324 330 330 1 81 1 860 1986 585 333 0 857 864 686 865
 81 1 862 2416 13 328 864 0 857 359 866 84 3 863 JIh16 328 1683 862 ?554 323 329
 320 323 329 1 81 1 864 1985 585 328 0 862 867 860 868 81 1 359 2417 13 339 867
 0 862 362 869 84 3 866 JId81 1 867 1984 585 339 0 359 870 864 871 81 1 362 2418
 13 298 870 0 359 258 872 84 3 869 JIZ81 1 870 1983 585 298 0 362 873 867 874 81
 1 258 2419 13 256 873 0 362 254 875 84 3 872 JIV81 1 873 1977 585 256 0 258 876
 870 877 81 1 254 2420 13 251 876 0 258 161 878 84 3 875 JIF81 1 876 1976 585 25
1 879 254 880 873 881 81 1 161 2421 13 125 880 0 254 151 882 84 3 878 JIB81 1 88
0 1975 585 125 0 161 883 876 884 81 1 151 2422 13 131 883 0 161 97 885 84 3 882
 JIc81 1 883 1974 585 131 0 151 886 880 887 81 1 97 2423 13 95 886 0 151 134 888
 84 3 885 JIY81 1 886 1972 585 95 889 97 673 883 890 81 1 134 2424 13 132 673 0
 97 123 891 84 3 888 JIQ81 1 673 1971 585 132 0 134 669 886 892 81 1 123 2425 13
 121 669 0 134 157 893 84 3 891 JIM81 1 157 2426 13 126 672 0 123 459 894 84 3 8
93 JIE81 1 672 1968 585 126 619 157 778 669 895 81 1 459 2427 13 457 613 0 157 1
98 896 84 2 894 II81 1 613 2323 612 457 778 459 739 605 897 84 3 896 JHC81 1 778
 1636 585 457 609 613 774 672 898 83 3 897 .615686274509804 .811764705882353 .92
9411764705882 81 1 609 1514 597 457 0 778 736 604 899 82 3 898 6 0 2 81 1 736 15
12 597 460 0 695 731 609 900 83 1 899 65 81 1 695 1997 585 460 736 739 840 689 9
01 83 1 900 63 81 1 840 1995 585 462 0 838 842 695 902 82 3 901 7 4 2 82 3 902 7
 2 2 81 1 619 1450 597 126 0 672 0 616 903 82 3 895 7 0 0 83 1 903 1 82 3 892 7
 3 0 81 1 889 1464 597 95 0 886 904 905 906 82 3 890 7 4 0 81 1 904 1463 597 99
 0 907 908 889 909 81 1 905 1465 597 100 0 910 889 911 912 83 1 906 15 81 1 910
 1584 585 100 905 102 913 907 914 81 1 911 1466 597 104 0 915 905 916 917 83 1 9
12 16 81 1 915 1605 585 104 911 182 918 197 919 81 1 916 1467 597 184 0 920 911
 921 922 83 1 917 17 81 1 920 1600 585 184 916 192 923 918 924 81 1 921 1468 597
 194 0 197 916 925 926 83 1 922 18 81 1 197 1606 585 194 921 195 915 774 927 81
 1 925 1471 597 294 0 928 921 929 930 83 1 926 19 81 1 928 1570 585 294 925 296
 931 932 933 81 1 929 1472 597 290 0 931 925 934 935 83 1 930 22 81 1 931 1569 5
85 290 929 292 936 928 937 81 1 934 1473 597 286 0 938 929 939 940 83 1 935 23 8
1 1 938 1567 585 286 934 288 941 936 942 81 1 939 1474 597 282 0 941 934 943 944
 83 1 940 24 81 1 941 1566 585 282 939 284 945 938 946 81 1 943 1475 597 278 0 9
47 939 948 949 83 1 944 25 81 1 947 1564 585 278 943 280 950 945 951 81 1 948 14
76 597 274 0 950 943 952 953 83 1 949 26 81 1 950 1563 585 274 948 276 752 947 9
54 81 1 952 1477 597 270 0 955 948 956 957 83 1 953 27 81 1 955 1550 585 270 952
 272 958 760 959 81 1 956 1478 597 232 0 958 952 960 961 83 1 957 28 81 1 958 15
49 585 232 956 269 962 955 963 81 1 960 1479 597 265 0 962 956 964 965 83 1 961
 29 81 1 962 1548 585 265 960 267 966 958 967 81 1 964 1480 597 264 0 932 960 96
8 969 83 1 965 30 16 264 718 970 ?214 265 260 261 265 265 1 81 1 932 1576 585 26
4 964 970 928 971 972 81 1 968 1481 597 260 0 966 964 879 973 83 1 969 31 81 1 9
66 1547 585 260 968 262 974 962 975 81 1 879 1484 597 251 0 876 968 631 976 83 1
 973 32 81 1 631 1485 597 247 0 974 879 628 977 83 1 976 35 81 1 974 1543 585 24
7 631 249 978 966 979 83 1 977 36 81 1 249 2462 13 247 974 0 262 189 980 81 1 97
8 1542 585 109 981 189 589 974 982 82 3 979 4 6 1 81 1 981 1454 597 109 0 978 62
5 983 984 81 1 189 2463 13 109 978 0 249 186 985 81 1 589 1541 585 174 625 186 5
83 978 986 82 3 982 4 3 0 81 1 625 1453 597 174 0 589 620 981 987 82 3 986 4 2 0
 83 1 987 4 84 3 985 JFM81 1 983 1455 597 105 0 785 981 988 989 83 1 984 5 81 1
 785 1586 585 105 983 107 907 666 990 81 1 988 1458 597 110 0 918 983 908 991 83
 1 989 6 81 1 918 1601 585 110 988 179 920 915 992 81 1 908 1462 597 166 0 913 9
88 904 993 83 1 991 9 81 1 913 1583 585 166 908 168 994 910 995 83 1 993 13 81 1
 168 2442 13 166 913 0 102 377 996 81 1 994 1580 585 375 997 377 998 913 999 82
 3 995 4 6 0 81 1 997 1495 597 375 0 994 587 854 1000 81 1 377 2443 13 375 994 0
 168 379 1001 81 1 998 1579 585 301 1002 379 971 994 1003 82 3 999 4 29 1 81 1 1
002 1506 597 301 0 998 1004 1005 1006 81 1 379 2444 13 301 998 0 377 321 1007 81
 1 971 1578 585 319 1004 321 932 998 1008 82 3 1003 4 28 1 81 1 1004 1505 597 31
9 0 971 1009 1002 1010 81 1 321 2445 13 319 971 0 379 970 1011 82 3 1008 4 27 1
 81 1 970 2446 13 264 932 0 321 296 1012 84 4 1011 KFtB81 1 296 2447 13 294 928
 0 970 292 1013 84 4 1012 KFlB81 1 292 2448 13 290 931 0 296 451 1014 84 4 1013
 KFVB81 1 451 2449 13 448 614 0 292 288 1015 84 4 1014 KFRB81 1 614 2325 612 448
 936 451 605 753 1016 81 1 288 2450 13 286 938 0 451 284 1017 84 3 1015 JF281 1
 284 2451 13 282 941 0 288 447 1018 84 4 1017 KFNB81 1 447 2452 13 444 753 0 284
 280 1019 84 4 1018 KFJB81 1 753 2326 612 444 945 447 614 747 1020 81 1 280 2453
 13 278 947 0 447 276 1021 84 3 1019 JFy81 1 276 2454 13 274 950 0 280 443 1022
 84 4 1021 KFFB81 1 443 2455 13 436 747 0 276 756 1023 84 4 1022 KFBB84 3 1023 J
Fu81 1 945 1565 585 444 1024 753 947 941 1025 83 3 1020 .615686274509804 .811764
705882353 .929411764705882 81 1 1024 1517 597 444 0 945 610 744 1026 82 3 1025 4
 12 2 81 1 610 1516 597 448 0 936 604 1024 1027 81 1 744 1518 597 436 0 752 1024
 741 1028 83 1 1026 68 81 1 752 1562 585 436 744 747 755 950 1029 83 1 1028 69 8
2 3 1029 4 11 2 81 1 936 1568 585 448 610 614 938 931 1030 83 1 1027 67 82 3 103
0 4 13 2 83 3 1016 .615686274509804 .811764705882353 .929411764705882 81 1 1009
 1504 597 217 0 580 1031 1004 1032 83 1 1010 56 81 1 580 1596 585 217 1009 578 1
033 1034 1035 81 1 1031 1503 597 203 0 923 851 1009 1036 83 1 1032 55 81 1 923 1
598 585 203 1031 215 1034 920 1037 81 1 851 1500 597 307 0 848 1038 1031 1039 83
 1 1036 54 81 1 1038 1499 597 302 0 1033 859 851 1040 83 1 1039 51 81 1 1033 159
3 585 302 1038 304 786 580 1041 81 1 859 1498 597 357 0 686 854 1038 1042 83 1 1
040 50 81 1 854 1496 597 367 0 687 997 859 1043 83 1 1042 49 83 1 1043 47 81 1 3
04 2436 13 302 1033 0 578 226 1044 81 1 786 1592 585 207 1045 226 666 1033 1046
 82 3 1041 4 33 1 81 1 1045 1508 597 207 0 786 1005 735 1047 81 1 226 2437 13 20
7 786 0 304 781 1048 82 3 1046 4 32 1 84 4 1048 KFBC81 1 1005 1507 597 210 0 103
4 1002 1045 1049 81 1 735 1509 597 465 0 760 1045 731 1050 83 1 1047 59 14 465 2
30 762 ?567 462 540 6 1051 -0 0 567 462 25 81 1 760 1555 585 465 735 738 955 755
 1052 83 1 1050 60 81 1 738 2320 612 465 760 762 838 732 1053 82 3 1052 4 6 2 81
 1 762 2457 13 465 738 0 756 272 1054 83 3 1053 .615686274509804 .81176470588235
3 .929411764705882 81 1 272 2458 13 270 955 0 762 269 1055 84 3 1054 JFa81 1 269
 2459 13 232 958 0 272 267 1056 84 3 1055 JF181 1 267 2460 13 265 962 0 269 262
 1057 84 3 1056 JFx81 1 262 2461 13 260 966 0 267 249 1058 84 3 1057 JFt84 3 105
8 JFp50 1051 241 0 465 706 440 0 +-.04367702481088695 .04 -.000479049621773913 -
.129190075645216 1582122126205185e-32 .991619848709566 -.991619848709566 1214384
073693152e-31 -.129190075645216 51 706 240 0 567 693 1051 0 --.048 .04 .004 -122
4646799147352e-31 -1 0 .005 0 0 1 50 440 242 0 229 1051 431 0 +-.02 .04 0 0 0 1
 -1 1224646799147352e-31 0 51 693 238 0 460 608 706 0 --.048 .04 .004 -122464679
9147352e-31 -1 0 .003 0 0 1 50 608 196 0 222 777 693 0 +-.0265 3245314017740485e
-33 .004 1224646799147352e-31 1 0 -1 1224646799147352e-31 0 50 777 1103 0 205 78
4 608 0 +-.04 .00425 -.0687486354243376 -1 0 0 0 0 1 50 784 1109 0 536 0 777 0 +
-.04 .03575 -.0687486354243376 -1 0 0 0 0 1 81 1 1034 1597 585 210 1005 300 580
 923 1059 83 1 1049 58 81 1 300 2434 13 210 1034 0 215 578 1060 82 3 1059 4 37 1
 81 1 215 2433 13 203 923 0 192 300 1061 84 4 1060 KFVC81 1 192 2432 13 184 920
 0 179 215 1062 84 4 1061 KFZC81 1 179 2431 13 110 918 0 182 192 1063 84 3 1062
 JF081 1 182 2430 13 104 915 0 195 179 1064 84 3 1063 JF484 4 1064 KFIB84 4 1044
 KFFC82 3 1037 4 38 1 82 3 1035 4 36 1 84 4 1007 KFxB83 1 1006 57 84 4 1001 KF1B
81 1 587 1492 597 225 0 583 593 997 1065 83 1 1000 46 83 1 1065 43 81 1 102 2441
 13 100 910 0 164 168 1066 84 3 996 JFY81 1 164 2440 13 99 907 0 107 102 1067 84
 3 1066 JFc81 1 907 1585 585 99 904 164 910 785 1068 81 1 107 2439 13 105 785 0
 781 164 1069 84 3 1067 JFg84 3 1069 JFk82 3 1068 4 8 0 82 3 992 4 14 0 82 3 990
 4 9 0 84 3 980 JFZ82 3 975 4 10 1 82 3 972 4 25 1 82 3 967 4 11 1 82 3 963 4 12
 1 82 3 959 4 13 1 82 3 954 4 16 1 82 3 951 4 17 1 82 3 946 4 18 1 82 3 942 4 19
 1 82 3 937 4 20 1 82 3 933 4 21 1 82 3 927 4 19 0 82 3 924 4 13 0 82 3 919 4 18
 0 82 3 914 4 7 0 83 1 909 14 82 3 887 7 6 0 82 3 884 7 7 0 82 3 881 7 0 1 82 3
 877 7 1 1 82 3 874 7 5 1 82 3 871 7 6 1 82 3 868 7 7 1 17 554 0 456 162 555 136
 152 328 0 337 +16 329 1842 1070 ?143 328 330 320 328 323 1 81 1 1070 2393 13 32
9 1071 0 336 369 1072 17 143 0 456 180 146 114 1073 329 0 543 +17 180 0 456 183
 143 110 310 307 0 305 -17 146 0 456 143 162 119 549 311 0 1073 +17 1073 0 547 1
18 543 119 143 329 0 346 -17 543 0 547 1073 370 114 113 347 0 310 -15 547 1904 0
 543 438 0 17 118 0 547 370 1073 115 346 343 0 544 -17 162 0 456 146 554 125 155
 333 0 549 +17 155 0 466 130 255 136 162 333 0 554 -17 183 0 456 209 180 104 305
 302 0 201 -81 1 1071 2017 585 329 0 1070 1074 1075 1076 81 1 336 2392 13 334 10
75 0 341 1070 1077 81 1 369 2394 13 353 1074 0 1070 145 1078 84 4 1072 KIRB81 1
 1074 2015 585 353 0 369 1079 1071 1080 81 1 145 2395 13 119 1079 0 369 148 1081
 84 4 1078 KIJB81 1 1079 2013 585 119 0 145 1082 1074 1083 81 1 148 2396 13 140
 1082 0 145 142 1084 84 4 1081 KIEB81 1 1082 2012 585 140 0 148 1085 1079 1086 8
1 1 142 2397 13 114 1085 0 148 154 1087 84 4 1084 KIAB81 1 1085 2010 585 114 0 1
42 1088 1082 1089 81 1 154 2398 13 136 1088 0 142 112 1090 84 3 1087 JI481 1 108
8 2009 585 136 0 154 1091 1085 1092 81 1 112 2399 13 94 1091 0 154 138 1093 84 3
 1090 JI081 1 1091 2007 585 94 0 112 1094 1088 1095 81 1 138 2400 13 120 1094 0
 112 117 1096 84 3 1093 JIs81 1 1094 2006 585 120 0 138 1097 1091 1098 81 1 117
 2401 13 115 1097 0 138 129 1099 84 3 1096 JIo81 1 1097 2005 585 115 0 117 701 1
094 1100 81 1 129 2402 13 127 701 0 117 699 1101 84 3 1099 JIk81 1 701 2004 585
 127 0 129 681 1097 1102 84 3 1101 JIg82 3 1102 7 8 0 82 3 1100 7 9 0 82 3 1098
 7 10 0 82 3 1095 7 11 0 82 3 1092 7 13 0 82 3 1089 7 14 0 82 3 1086 7 16 0 82 3
 1083 7 17 0 82 3 1080 7 18 1 81 1 1075 2018 585 334 0 336 1071 1103 1104 81 1 3
41 2391 13 338 1103 0 345 336 1105 84 4 1077 KIVB81 1 1103 2019 585 338 0 341 10
75 1106 1107 81 1 345 2390 13 343 1106 0 349 341 1108 84 4 1105 KIZB81 1 1106 20
21 585 343 0 345 1103 770 1109 81 1 349 2389 13 347 770 0 765 345 1110 84 4 1108
 KIhB81 1 770 2022 585 347 0 349 1106 764 1111 84 4 1110 KIlB82 3 1111 7 25 1 82
 3 1109 7 24 1 82 3 1107 7 22 1 82 3 1104 7 21 1 82 3 1076 7 20 1 17 555 0 456 5
54 149 131 557 216 0 259 +17 149 0 456 555 93 140 561 330 0 557 +17 93 0 456 149
 52 90 564 408 0 561 +17 564 0 563 65 562 44 93 408 0 0 -82 3 865 7 8 1 82 3 861
 7 9 1 82 3 855 7 11 1 82 3 852 7 13 1 82 3 849 7 15 1 82 3 846 7 16 1 81 1 679
 2318 612 439 675 678 726 838 1112 83 3 841 .615686274509804 .811764705882353 .9
29411764705882 81 1 678 2404 13 439 679 0 699 705 1113 83 3 1112 .61568627450980
4 .811764705882353 .929411764705882 84 3 1113 JIm83 3 837 .615686274509804 .8117
64705882353 .929411764705882 84 3 832 JIq84 3 830 JIa84 4 824 KLVB84 4 822 KLZB8
4 3 802 JLm82 3 801 10 9 2 54 21 2207 0 505 414 7 1114 +-.0429594981509177 .0020
99852563648925 .00231476134932874 -2312964634635745e-31 1 0 .000629522698657483
 .0003147613493287415 -1 -2312964634635745e-31 0 141 1114 413 1114 1114 21 81 1
 332 2354 13 330 792 0 789 352 1115 84 3 795 JLC81 1 792 2293 585 330 0 332 1116
 724 1117 81 1 352 2355 13 350 1116 0 332 382 1118 84 4 1115 KLNB81 1 1116 2292
 585 350 0 352 1119 792 1120 81 1 382 2356 13 327 1119 0 352 325 1121 84 4 1118
 KLJB81 1 1119 2291 585 327 0 382 1122 1116 1123 81 1 325 2357 13 323 1122 0 382
 391 1124 84 4 1121 KLFB81 1 1122 2290 585 323 0 325 1125 1119 1126 81 1 391 235
8 13 389 1125 0 325 403 1127 84 4 1124 KLBB81 1 1125 2289 585 389 0 391 1128 112
2 1129 81 1 403 2359 13 401 1128 0 391 384 1130 84 3 1127 JL981 1 1128 2288 585
 401 0 403 1131 1125 1132 81 1 384 2360 13 371 1131 0 403 410 1133 84 3 1130 JL5
81 1 1131 2287 585 371 0 384 1134 1128 1135 81 1 410 2361 13 408 1134 0 384 572
 1136 84 3 1133 JL181 1 1134 2286 585 408 0 410 573 1131 1137 84 3 1136 JLx81 1
 573 2285 585 421 0 572 1138 1134 1139 82 3 1137 10 12 1 81 1 1138 2284 585 398
 0 400 1140 573 1141 82 3 1139 10 11 1 81 1 400 2363 13 398 1138 0 572 495 1142
 81 1 1140 2283 585 489 0 495 518 1138 1143 82 3 1141 10 10 1 81 1 495 2364 13 4
89 1140 0 400 516 1144 81 1 518 2282 585 511 0 516 1145 1140 1146 82 3 1143 10 9
 1 81 1 1145 2281 585 50 0 420 1147 518 1148 82 3 1146 10 8 1 81 1 420 2366 13 5
0 1145 0 516 397 1149 81 1 1147 2280 585 395 0 397 1150 1145 1151 82 3 1148 10 7
 1 81 1 397 2367 13 395 1147 0 420 487 1152 81 1 1150 2279 585 481 0 487 524 114
7 1153 82 3 1151 10 6 1 81 1 487 2368 13 481 1150 0 397 522 1154 81 1 524 2278 5
85 496 0 522 1155 1150 1156 82 3 1153 10 5 1 81 1 1155 2277 585 41 0 412 1157 52
4 1158 82 3 1156 10 4 1 81 1 412 2370 13 41 1155 0 522 394 1159 81 1 1157 2276 5
85 392 0 394 1160 1155 1161 82 3 1158 10 3 1 81 1 394 2371 13 392 1157 0 412 571
 1162 81 1 1160 2275 585 22 0 571 1163 1157 1164 82 3 1161 10 2 1 81 1 571 2372
 13 22 1160 0 394 520 1165 81 1 1163 2274 585 517 0 520 1166 1160 1167 82 3 1164
 10 1 1 81 1 520 2373 13 517 1163 0 571 88 1168 81 1 1166 2273 585 86 0 88 1169
 1163 1170 82 3 1167 10 0 1 81 1 88 2374 13 86 1166 0 520 92 1171 81 1 1169 2272
 585 90 0 92 1172 1166 1173 82 3 1170 10 13 0 81 1 92 2375 13 90 1169 0 88 61 11
74 81 1 1172 2271 585 59 0 61 1175 1169 1176 82 3 1173 10 12 0 81 1 61 2376 13 5
9 1172 0 92 57 1177 81 1 1175 2270 585 53 0 57 1178 1172 1179 82 3 1176 10 11 0
 81 1 57 2377 13 53 1175 0 61 64 1180 81 1 1178 2269 585 62 0 64 1181 1175 1182
 82 3 1179 10 10 0 81 1 64 2378 13 62 1178 0 57 51 1183 81 1 1181 2268 585 44 0
 51 1184 1178 1185 82 3 1182 10 9 0 81 1 51 2379 13 44 1181 0 64 77 1186 81 1 11
84 2267 585 75 0 77 1187 1181 1188 82 3 1185 10 8 0 81 1 77 2380 13 75 1184 0 51
 85 1189 81 1 1187 2266 585 83 0 85 1190 1184 1191 82 3 1188 10 7 0 81 1 85 2381
 13 83 1187 0 77 81 1192 81 1 1190 2265 585 79 0 81 1193 1187 1194 82 3 1191 10
 6 0 81 1 81 2382 13 79 1190 0 85 34 1195 81 1 1193 2264 585 66 0 34 33 1190 119
6 82 3 1194 10 5 0 81 1 34 2383 13 66 1193 0 81 30 1197 81 1 33 2263 585 12 0 30
 1198 1193 1199 82 3 1196 10 4 0 81 1 1198 2262 585 72 0 35 45 33 1200 82 3 1199
 10 3 0 81 1 35 2385 13 72 1198 0 30 43 1201 81 1 45 2261 585 32 0 43 771 1198 1
202 82 3 1200 10 2 0 81 1 771 2260 585 69 0 46 764 45 1203 82 3 1202 10 1 0 81 1
 46 2387 13 69 771 0 43 765 1204 82 3 1203 10 0 0 84 2 1204 IL84 3 1201 JLI84 3
 1197 JLQ84 3 1195 JLU84 3 1192 JLY84 3 1189 JLc84 3 1186 JLg84 3 1183 JLk84 3 1
180 JLo84 3 1177 JLs84 3 1174 JLw84 3 1171 JL084 3 1168 JLB84 3 1165 JLF84 3 116
2 JLJ84 3 1159 JLN84 3 1154 JLV84 3 1152 JLZ84 3 1149 JLd84 3 1144 JLl84 3 1142
 JLp82 3 1135 10 13 1 82 3 1132 10 14 1 82 3 1129 10 15 1 82 3 1126 10 16 1 82 3
 1123 10 17 1 82 3 1120 10 18 1 82 3 1117 10 19 1 82 3 793 10 0 2 84 3 788 JF682
 3 787 4 14 2 84 4 780 KFCB81 1 667 1524 597 205 0 774 769 661 1205 82 3 779 4 1
6 2 81 1 769 1521 597 229 0 764 745 667 1206 83 1 1205 75 81 1 745 1520 597 435
 0 755 741 769 1207 83 1 1206 72 83 1 1207 71 84 3 773 JJC82 3 772 8 0 2 15 768
 483 0 1208 229 1209 17 1208 0 768 1208 1208 0 297 294 0 0 -15 1209 467 0 1210 2
29 1211 17 1210 0 1209 1210 1210 0 289 286 0 0 -15 1211 451 0 1212 229 211 17 12
12 0 1211 1212 1212 0 281 278 0 0 -17 281 0 1213 281 281 0 1212 278 0 0 +15 1213
 457 0 281 436 0 17 289 0 1214 289 289 0 1210 286 0 0 +15 1214 473 0 289 444 0 1
7 297 0 1215 297 297 0 1208 294 0 0 +15 1215 489 0 297 448 0 84 3 763 JFi82 3 76
1 4 8 2 15 759 233 0 187 435 0 17 187 0 759 231 273 174 190 235 0 228 +17 231 0
 759 173 187 159 228 232 0 230 -17 273 0 759 187 173 109 534 270 0 224 +17 190 0
 219 221 220 109 187 235 0 273 -17 173 0 759 273 231 170 177 242 0 241 -17 534 0
 37 533 224 170 273 270 0 0 -83 3 754 .615686274509804 .811764705882353 .9294117
64705882 84 3 751 JLW79 15 750 SDL/TYSA_COLOUR83 1 746 70 83 3 740 .615686274509
804 .811764705882353 .929411764705882 83 1 737 61 83 3 730 .615686274509804 .811
764705882353 .929411764705882 82 3 725 10 1 2 83 3 722 .615686274509804 .8117647
05882353 .929411764705882 82 3 715 10 6 2 82 3 708 7 6 2 82 3 702 7 10 2 82 3 69
6 7 5 2 82 3 688 7 10 1 82 3 682 7 9 2 82 3 674 7 1 0 83 1 668 77 79 13 665 BTI/
importTag79 18 660 BTI/importMaxCount84 3 642 JFB83 1 641 40 84 3 638 JFF83 1 63
7 39 84 3 634 JFJ83 1 633 38 84 2 627 IF83 1 626 3 81 1 239 2468 13 222 605 0 23
3 176 1216 84 3 622 JFE84 3 1216 JFG83 1 621 2 83 3 615 .615686274509804 .811764
705882353 .929411764705882 83 1 611 66 83 1 603 41 83 1 599 42 79 9 596 BTI/DetI
d84 3 591 JFI82 3 590 4 5 1 79 12 586 BTI/ExportId84 4 581 KFRC17 512 0 500 509
 508 44 65 489 0 564 -84 4 577 KLdB84 3 574 JLt84 3 525 JLR84 3 519 JLh84 3 503
 JLq141 479 480 1217 1217 473 141 1217 482 479 479 473 15 452 488 0 293 448 1215
 17 293 0 452 293 293 0 1218 290 0 0 +17 1218 0 437 1218 1218 0 293 290 0 0 -15
 437 482 0 1218 430 1219 15 1219 466 0 1220 430 1221 17 1220 0 1219 1220 1220 0
 285 282 0 0 -15 1221 450 0 1222 430 37 17 1222 0 1221 1222 1222 0 277 274 0 0 -
17 277 0 445 277 277 0 1222 274 0 0 +15 445 456 0 277 436 1213 17 285 0 449 285
 285 0 1220 282 0 0 +15 449 472 0 285 444 1214 141 429 411 429 429 414 40 4 423
 0 1 4 3720684790627265e-20 .3387223224785685 ??-.04241431550162135 .00178509121
4320185 .002 -.04257169617628575 .00181321752047327 .002 -.04276264404641035 .00
1919936751051725 .002 -.04295698910189775 .002097343554483855 .002 41 1 424 L?-.
04241431550162135 .001785091214320185 .002 41 2 425 TF-.0429594981509177 .002099
852563648925 .002 -.04295698910189775 .002097343554483855 .002 204 20 426 4 -.02
241431550162135 .0382149087856798 3.66519142918809 -1.5707963267949 -.0225716961
7628575 .03818678247952675 3.823399912703425 -1.99675643628577 -.022762644046410
35 .0380800632489483 4.15349669430152 -2.5331450376412 -.02295698910189775 .0379
0265644551615 4.70441787502307 -3.133621421603245 -.0229594981509177 .0379001474
363511 4.71238898038469 -3.141592653589795 84 3 240 JFN84 4 199 KFMB84 3 47 JLE8
4 3 36 JLM19 19 254 0 1 0 10 6 0 S0 74 4 CI16 index_map_offset0 0 1 dCCZ20 17 8
 0 0 710 643 800 644 650 14 723 2 0 0 0 0 0 0 0 0 0 0 0 0 84 3 16 JFD1 0 
