**ABCDEFGHIJKLMNOPQRSTUVWXYZabcdefghijklmnopqrstuvwxyz**************************
**PARASOLID !"#$%&'()*+,-./:;<=>?@[\]^_`{|}~0123456789**************************
**PART1;
MC=unknown;
MC_MODEL=unknown;
MC_ID=unknown;
OS=unknown;
OS_RELEASE=unknown;
FRU=Parasolid 34.1.198;
APPL=Onshape;
SITE=unknown;
USER=unknown;
FORMAT=text;
GUISE=transmit;
KEY=BTGapi::writeModels_.xmt;
FILE=BTGapi::writeModels_.xmt;
DATE=2022-11-30T05:11:12 (UTC);
**PART2;
SCH=SCH_3401198_34101;
USFLD_SIZE=0;
**PART3;
**END_OF_HEADER*****************************************************************
T51 : TRANSMIT FILE created by modeller version 340119823 SCH_3401198_34101_1300
6231 0 12 36 CCCI7 lattice222 0 CCCI4 mesh1006 0 I8 polyline1008 0 CCCCCCCDI5 ow
ner1040 0 CCCI16 boundary_lattice222 0 CCCI13 boundary_mesh1006 0 I17 boundary_p
olyline1008 0 CCCA16 index_map_offset0 0 1 dA9 index_map82 0 A17 node_id_index_m
ap82 0 A20 schema_embedding_map82 0 A5 child12 0 A14 lowest_node_id0 0 1 dA16 me
sh_offset_data206 0 Z1 2213 2 3 0 4 0 0 0 0 0 1e3 1e-8 0 5 0 1 0 1 1 6 0 7 8 9 0
 0 10 11 12 0 0 0 0 0 0 0 81 255 1 2 2213 13 1 14 0 15 0 16 70 11 CI9 list_type0
 0 1 uI10 notransmit0 0 1 lCCCDCCDI12 finger_index0 0 1 dI12 finger_block1012 0
 CZ3 0 4 T1 0 0 9 20 1 17 17 52 255 4 1623 0 1 0 0 0 --.01 .01 .0219411561795359
 0 0 1 .00275 .707106781186549 .707106781186547 -1 1224646799147352e-31 0 13 255
 6 253 0 1 0 18 0 0 19 0 52 7 2000 20 21 22 0 23 +-.048 .0315 .004 0 -1 0 .00435
892546260205 .707106781186547 .707106781186549 0 0 -1 38 12 CCCCCCCCCCCA17 inter
section_data204 0 Z8 2006 0 24 25 0 0 +26 7 27 28 29 30 29 255 9 1944 0 12 31 0
 -.04 .0276127142113667 .002 19 9 CCCCCCI5 frame230 0 CA5 owner12 0 Z10 88 0 1 1
9 0 32 0 V0 16 255 11 1794 33 ?34 0 35 36 0 0 1 18 255 12 1937 37 38 0 39 9 ?1 8
1 1 37 2168 13 12 40 0 41 42 43 17 255 38 0 44 45 46 12 47 48 0 49 +18 39 1749 4
1 50 12 51 52 ?1 81 1 41 2167 13 39 53 0 54 37 55 17 50 0 56 57 49 39 58 59 0 60
 +18 51 1744 61 62 39 63 31 ?1 29 52 1753 0 39 64 31 -.0444822267378242 .0315 .0
01425994859282246 29 64 1738 0 63 65 52 -.04 .0130853464473971 0 29 31 1943 0 51
 52 9 -.04 .01238728578863326 .002 18 63 1734 66 67 51 68 64 ?1 29 65 1733 0 68
 69 64 -.04 .0269146535526029 0 18 68 1729 70 71 63 72 65 ?1 29 69 1722 0 72 73
 65 -.0444822267378242 .0085 .001425994859282244 18 72 1718 74 75 68 76 69 ?1 29
 73 1708 0 76 77 69 -.04385831522498245 .00874037369874985 .002 18 76 1706 78 79
 72 80 73 ?1 29 77 1705 0 80 81 73 -.04385831522498245 .03125962630125015 .002 1
8 80 1703 82 83 76 84 77 ?1 29 81 1702 0 84 85 77 -.04412698680759795 .0085 .002
 18 84 1698 86 87 80 88 81 ?1 29 85 1697 0 88 89 81 -.04412698680759795 .0315 .0
02 18 88 1693 54 90 84 91 85 ?1 29 89 1683 0 91 92 85 -.04324919064279525 .03085
892546260205 .002441215072084715 18 91 1681 93 94 88 95 89 ?1 29 92 1680 0 95 96
 89 -.04324919064279525 .00914107453739796 .002441215072084715 18 95 1678 42 97
 91 98 92 ?1 29 96 1677 0 98 99 92 -.0473540496217739 .00914107453739796 -.00095
8099243547826 18 98 1673 100 101 95 102 96 ?1 29 99 1672 0 102 103 96 -.04735404
96217739 .03085892546260205 -.000958099243547826 18 102 1668 104 105 98 106 99 ?
1 29 103 1658 0 107 108 99 -.04 .0678480697159713 0 18 107 885 109 110 111 112 1
03 ?1 29 108 1657 0 111 113 103 -.04 .0678480697159713 .002 18 111 879 114 47 11
5 107 108 ?1 29 113 1656 0 116 117 108 .055975479637427 .0678480697159713 .002 1
8 116 47 118 119 120 121 113 ?1 29 117 1655 0 120 122 113 .055975479637427 .0678
480697159713 0 18 120 52 123 124 106 116 117 ?1 29 122 1646 0 121 125 117 .05597
5479637427 -685501919687127e-32 0 18 121 188 126 127 116 128 122 ?1 29 125 1643
 0 128 129 122 .055975479637427 -685501919687127e-32 .002 18 128 192 130 131 121
 132 125 ?1 29 129 639 0 106 133 125 -.0476189246248119 .0315 .00102430150075226
 18 106 635 134 57 102 120 129 ?1 29 133 1167 0 132 135 129 -.0457639320225002 .
0315 .002 18 132 897 136 137 128 138 133 ?1 29 135 1171 0 138 139 133 -.04576393
20225002 .0085 .002 18 138 1041 140 141 132 115 135 ?1 29 139 1172 0 115 142 135
 -.0476189246248119 .0085 .00102430150075226 18 115 1042 143 144 138 111 139 ?1
 29 142 1179 0 112 145 139 -.04 693889390390723e-32 .002 18 112 1031 146 147 107
 148 142 ?1 29 145 1180 0 148 0 142 -.04 693889390390723e-32 0 18 148 1058 149 1
50 112 0 145 ?1 81 1 149 2176 13 148 151 0 152 143 153 17 150 0 154 147 155 148
 67 156 0 157 +15 255 154 1070 0 150 158 0 17 147 0 154 62 150 112 157 159 0 160
 +17 155 0 154 150 62 63 161 35 0 162 +17 67 0 163 164 165 63 150 156 0 155 -16
 156 987 166 ?150 167 168 169 0 0 1 17 157 0 170 171 172 148 147 159 0 165 -15 1
70 616 0 157 173 0 17 171 0 170 131 157 121 165 174 0 0 -17 172 0 170 157 131 11
2 175 176 0 0 -16 159 951 177 ?147 178 24 179 0 0 1 17 165 0 163 67 180 148 171
 174 0 0 +15 163 231 0 165 181 0 17 180 0 163 165 182 121 183 184 0 171 +16 174
 152 185 ?165 186 187 188 0 0 1 81 1 185 2206 13 174 189 0 190 191 192 16 186 7
 15 ?193 194 174 195 0 0 1 16 187 156 190 ?127 174 176 196 0 0 1 30 255 188 202
 0 174 197 198 0 +-.02 2449293598294705e-33 0 -1 1224646799147352e-31 0 30 197 2
04 0 176 199 188 0 +-.02 2449293598294705e-33 .002 1 -1224646799147352e-31 0 30
 198 245 0 48 188 200 0 +-.04 .04 .002 -1224646799147352e-31 -1 0 16 48 213 201
 ?38 202 203 198 203 203 1 30 200 246 0 202 198 204 0 +-.0476189246248119 .04 .0
0102430150075226 -1224646799147352e-31 -1 0 16 202 214 205 ?206 207 48 200 0 0 1
 30 204 247 0 207 200 208 0 +-.0457639320225002 .04 .002 -1224646799147352e-31 -
1 0 16 207 215 209 ?210 211 202 204 0 0 1 30 208 249 0 211 204 212 0 +-.04735404
96217739 .04 -.000958099243547826 -1224646799147352e-31 -1 0 16 211 1669 213 ?21
4 215 207 208 0 0 1 30 212 250 0 216 208 217 0 +-.04 .04 0 -1224646799147352e-31
 -1 0 16 216 218 218 ?71 184 215 212 215 215 1 31 255 217 460 0 219 212 220 0 +-
.03 .01 .002 0 0 1 -1 1224646799147352e-31 0 .0056 16 219 458 221 ?222 223 224 2
17 0 0 1 31 220 464 0 223 217 225 0 --.03 .01 216840434497101e-32 0 0 1 -1 12246
46799147352e-31 0 .0036 16 223 462 226 ?227 228 219 220 0 0 1 31 225 476 0 228 2
20 229 0 +-.01 .03 .002 0 0 1 -1 1224646799147352e-31 0 .0056 16 228 474 230 ?23
1 232 223 225 0 0 1 31 229 480 0 232 225 233 0 --.01 .03 0 0 0 1 -1 122464679914
7352e-31 0 .0036 16 232 478 234 ?235 236 228 229 0 0 1 31 233 492 0 236 229 237
 0 +-.03 .03 .002 0 0 1 -1 1224646799147352e-31 0 .0056 16 236 490 238 ?239 240
 232 233 0 0 1 31 237 496 0 240 233 241 0 --.03 .03 216840434497101e-32 0 0 1 -1
 1224646799147352e-31 0 .0036 16 240 494 242 ?243 244 236 237 0 0 1 30 241 647 0
 244 237 245 0 +-.04380946231240595 .0085 .001512150750376135 -.991899499749248
 -2294228464032895e-31 -.127025125062688 16 244 1719 246 ?144 247 240 241 0 0 1
 30 245 653 0 247 241 196 0 +-.04380946231240595 .0315 .001512150750376135 -.991
899499749248 0 -.127025125062688 16 247 1750 248 ?57 249 244 245 0 0 1 30 196 16
47 0 187 245 250 0 +.055975479637427 -693889390390723e-32 .001 0 0 -1 30 250 164
8 0 224 196 251 0 +.055975479637427 .04 .002 -1224646799147352e-31 -1 0 16 224 2
20 252 ?253 219 184 250 0 0 1 30 251 1650 0 184 250 254 0 +.055975479637427 .04
 0 -1224646799147352e-31 -1 0 16 184 219 255 ?180 224 216 251 0 0 1 30 254 1659
 0 256 251 257 0 +-.02 .0678480697159713 0 -1 1224646799147352e-31 0 16 256 17 2
58 ?259 203 194 254 0 0 1 30 257 1660 0 194 254 195 0 +.055975479637427 .0678480
697159713 .001 0 0 -1 16 194 12 260 ?124 256 186 257 0 0 1 30 195 1661 0 186 257
 261 0 +-.02 .0678480697159713 .002 1 -1224646799147352e-31 0 30 261 1662 0 178
 195 262 0 +-.04 .0678480697159713 .004 0 0 1 16 178 822 263 ?264 168 159 261 0
 0 1 30 262 1684 0 249 261 265 0 --.04324919064279525 .04 .002441215072084715 -1
224646799147352e-31 -1 0 16 249 1682 266 ?94 267 247 262 0 0 1 31 265 1686 0 267
 262 268 0 --.048 .03085892546260205 .004 0 1 0 0 0 1 .005 16 267 1685 269 ?105
 270 249 265 0 0 1 31 268 1689 0 270 265 271 0 +-.048 .00914107453739796 .004 0
 1 0 0 0 1 .005 16 270 1687 272 ?273 274 267 268 0 0 1 30 271 1709 0 274 268 275
 0 +-.04385831522498245 .04 .002 0 -1 0 16 274 1707 276 ?79 277 270 271 0 0 1 38
 275 1711 0 277 271 278 0 +7 279 280 281 282 283 16 277 1710 284 ?83 285 274 275
 0 0 1 38 278 1714 0 285 275 286 0 +22 279 287 288 289 290 50 255 279 239 0 291
 292 293 294 +-.0445906781637722 .04 .002 0 0 1 -1 1224646799147352e-31 0 40 255
 2 280 0 1 2 1235201950445238e-21 .00665428992687998 ??-.04412698680759795 .0315
 .002 -.04385831522498245 .03125962630125015 .002 41 3 CI8 term_use0 0 1 cCZ1 28
1 L?-.04412698680759795 .0315 .002 41 1 282 L?-.04385831522498245 .0312596263012
5015 .002 204 2 17 INTERSECTION_DATA17 Intersection data7 uv_type0 0 1 u6 values
0 1 1 fT8 283 4 1.094119856890712 0 -.000463691356174274 .0085 1.12092589557511
 .000240373698749845 -.000732362938789763 .00874037369874985 14 255 291 226 295
 ?296 297 298 6 279 -0 0 296 297 32 51 255 292 238 0 296 299 279 0 --.048 .04 .0
04 -1224646799147352e-31 -1 0 .003 0 0 1 51 293 240 0 297 279 300 0 --.048 .04 .
004 -1224646799147352e-31 -1 0 .005 0 0 1 141 255 294 275 301 301 279 141 301 27
8 294 294 279 14 297 228 302 ?291 18 303 6 293 -0 0 291 18 32 50 300 241 0 18 29
3 304 305 +-.04367702481088695 .04 -.000479049621773913 -.129190075645216 158212
2126205185e-32 .991619848709566 -.991619848709566 1214384073693152e-31 -.1291900
75645216 14 18 230 306 ?297 0 307 6 300 -0 0 297 0 32 50 304 242 0 181 300 308 0
 +-.02 .04 0 0 0 1 -1 1224646799147352e-31 0 141 305 309 310 310 300 38 309 1768
 0 311 312 313 0 +7 300 314 315 316 317 141 310 313 305 305 300 38 313 1774 0 31
8 309 319 0 +22 300 320 321 322 323 16 318 1772 324 ?101 325 311 313 0 0 1 31 31
9 1780 0 325 313 326 0 +-.048 .0315 .004 0 1 0 0 0 1 .004358925462602045 52 22 2
002 327 328 26 7 329 +-.048 .00914107453739795 .004 0 1 0 .005 .707106781186549
 .707106781186547 0 0 1 40 4 320 0 1 4 .000378327160491925 .30411824208418 ??-.0
4 .0130853464473971 0 -.04339980545084425 .0105364981554322 -.000442932968662501
5 -.0457151151556005 .00940716401992492 -.000744575817269057 -.0473540496217739
 .00914107453739795 -.000958099243547826 41 1 321 L?-.04 .0130853464473971 0 41
 1 322 L?-.0473540496217739 .00914107453739795 -.000958099243547826 204 16 323 4
 2.034443935795705 .00394427190999915 -.003708099243547815 .0269146535526029 2.3
38806066758465 .00139542361803426 -.000279562133012416 .02946350184456775 2.6927
90699819485 .0002660894825269655 .00205531418856303 .03059283598007505 3.0120404
8644097 -3469446951953605e-33 .00370809924354783 .03085892546260205 81 2 327 200
3 330 22 0 0 20 331 332 333 14 328 1966 334 ?0 335 336 6 22 +0 0 0 335 32 50 26
 2004 331 335 337 22 338 --.04385831522498245 .04 .002 -.58661870683475 71840072
1645135e-31 .809863255612653 -1224646799147352e-31 -1 0 141 329 25 339 340 22 38
 25 2007 0 341 36 8 0 -26 22 342 343 344 345 141 339 326 346 329 22 141 340 278
 329 347 22 141 347 312 340 346 22 38 312 1762 0 348 349 309 0 +299 22 350 351 3
52 353 141 346 313 347 339 22 16 348 1760 354 ?355 311 59 312 0 0 1 38 349 1756
 0 59 286 312 0 +299 7 356 357 358 359 50 299 237 0 360 361 292 362 +-.043809462
31240595 .04 .001512150750376135 -.127025125062688 155560912819313e-31 .99189949
9749248 -.991899499749248 1214726547443778e-31 -.127025125062688 40 3 350 0 1 3
 .000392855867462943 .1163806092268678 ??-.0444822267378242 .0085 .0014259948592
82244 -.0406109616101961 .01181681392168534 .001921758731642395 -.04 .0123872857
8863326 .002 41 1 351 L?-.0444822267378242 .0085 .001425994859282244 41 1 352 L?
-.04 .01238728578863326 .002 204 12 353 4 .000678258659862536 .0315 2.2024915351
2067 -.000641074537397951 -.003224621751516595 .02818318607831465 1.844973086351
005 .002675739384287385 -.00384057287393428 .02761271421136675 1.81577498992176
 .00324621125123531 14 360 222 363 ?364 296 56 6 299 +0 0 364 296 32 50 361 196
 0 173 365 299 0 +-.0265 3245314017740485e-33 .004 1224646799147352e-31 1 0 -1 1
224646799147352e-31 0 141 362 349 366 366 299 141 366 312 362 362 299 14 173 120
 191 ?367 364 170 6 361 -0 0 367 364 32 50 365 1103 0 158 368 361 369 +-.04 .004
25 -.0687486354243376 -1 0 0 0 0 1 14 158 1075 370 ?371 372 154 6 365 +0 0 371 3
72 32 50 368 1104 0 372 373 365 0 +-.0475 .0085 -.0687486354243376 -231296463463
5745e-31 1 0 -1 -2312964634635745e-31 0 141 369 326 369 369 365 38 326 1945 0 35
 319 36 0 +22 365 374 375 376 377 16 35 1789 378 ?155 11 325 326 0 0 1 38 36 194
6 0 11 326 25 0 +7 373 379 380 381 382 40 2 374 0 1 2 .0002069884993649675 .1825
932104537565 ??-.04 .01238728578863326 .002 -.04 .0130853464473971 9533099107998
9e-32 41 1 375 L?-.04 .01238728578863326 .002 41 1 376 L?-.04 .0130853464473971
 95330991079989e-32 204 8 377 4 1.81577498992176 .00324621125123532 .07074863542
43376 .00813728578863326 2.0344439357957 .003944271909999155 .0687486354243376 .
00883534644739711 50 373 1109 0 383 384 368 385 +-.04 .03575 -.0687486354243376
 -1 0 0 0 0 1 40 2 379 0 1 2 .000206988499364962 .1825932104537575 ??-.04 .02691
46535526029 0 -.04 .0276127142113667 .002 41 1 380 L?-.04 .0269146535526029 0 41
 1 381 L?-.04 .0276127142113667 .002 204 8 382 4 1.10714871779409 .0045853464473
9712 .0687486354243376 -.00883534644739712 1.325817663668032 .003887285788633285
 .0707486354243376 -.00813728578863328 14 383 920 386 ?21 371 387 6 373 +0 0 21
 371 32 50 384 1112 0 371 0 373 0 +-.0475 .0315 -.0687486354243376 0 1 0 0 0 1 1
41 385 36 385 385 373 14 371 932 388 ?383 158 389 6 384 +0 0 383 158 32 81 1 388
 2122 13 371 390 0 370 386 391 15 389 911 0 60 371 0 13 32 89 0 0 0 0 0 0 10 18
 17 60 0 389 90 392 39 57 247 0 393 -17 90 0 389 137 60 88 393 325 0 394 +17 392
 0 389 60 137 106 395 396 0 397 -17 57 0 56 206 50 106 60 247 0 392 +17 393 0 39
8 58 399 39 90 325 0 0 -15 398 1963 0 400 21 0 17 58 0 398 401 393 12 50 59 0 0
 -17 399 0 398 393 402 88 83 277 0 0 -16 325 1778 403 ?90 35 318 319 0 0 1 81 1
 403 2149 13 325 404 0 354 33 405 80 7 CCCCCDI12 legal_owners0 16 1 lCZ1 13 406
 407 9000 0 0 0 0 3 5 0 0 0 FFTFTFTTFFFFFFFF3 81 1 404 2067 406 325 0 403 408 40
9 410 81 1 354 2148 13 348 409 0 411 403 412 81 1 33 2150 13 11 408 0 403 413 41
4 84 255 3 405 JLl81 1 408 2066 406 11 0 33 415 404 416 81 1 413 2151 13 311 415
 0 33 269 417 84 3 414 JLh16 311 1766 413 ?418 318 348 309 0 0 1 81 1 415 2065 4
06 311 0 413 419 408 420 81 1 269 2152 13 267 419 0 413 284 421 84 3 417 JLd81 1
 419 2064 406 267 0 269 422 415 423 81 1 284 2153 13 277 422 0 269 424 425 84 3
 421 JLZ81 1 422 2063 406 277 0 284 426 419 427 81 1 424 2154 13 59 426 0 284 26
6 428 84 3 425 JLV16 59 1754 424 ?50 348 429 349 0 0 1 81 1 426 2062 406 59 0 42
4 430 422 431 81 1 266 2155 13 249 430 0 424 276 432 84 3 428 JLR81 1 430 2061 4
06 249 0 266 433 426 434 81 1 276 2156 13 274 433 0 266 435 436 84 3 432 JLN81 1
 433 2060 406 274 0 276 437 430 438 81 1 435 2157 13 341 437 0 276 439 440 84 3
 436 JLJ16 341 1984 435 ?97 24 0 25 0 0 1 81 1 437 2059 406 341 0 435 441 433 44
2 81 1 439 2158 13 24 441 0 435 66 443 84 3 440 JLF16 24 1977 439 ?444 159 341 8
 0 0 1 81 1 441 2058 406 24 0 439 445 437 446 81 1 66 2159 13 63 445 0 439 100 4
47 84 3 443 JLB81 1 445 2057 406 63 0 66 448 441 449 81 1 100 2160 13 98 448 0 6
6 86 450 84 3 447 JL081 1 448 2056 406 98 0 100 451 445 452 81 1 86 2161 13 84 4
51 0 100 74 453 84 3 450 JLw81 1 451 2055 406 84 0 86 454 448 455 81 1 74 2162 1
3 72 454 0 86 61 456 84 3 453 JLs81 1 454 2054 406 72 0 74 457 451 458 81 1 61 2
163 13 51 457 0 74 70 459 84 3 456 JLo81 1 457 2053 406 51 0 61 460 454 461 81 1
 70 2164 13 68 460 0 61 104 462 84 3 459 JLk81 1 460 2052 406 68 0 70 463 457 46
4 81 1 104 2165 13 102 463 0 70 54 465 84 3 462 JLg81 1 463 2051 406 102 0 104 4
66 460 467 81 1 54 2166 13 88 466 0 104 41 468 84 3 465 JLc81 1 466 2050 406 88
 0 54 53 463 469 84 3 468 JLY80 1 406 470 471 9000 0 0 0 0 3 6 0 0 0 FFTFTFTTFFF
FFFFF1 81 1 53 2049 406 39 0 41 40 466 472 82 255 3 469 10 6 0 81 1 40 2048 406
 12 0 37 473 53 474 82 3 472 10 5 0 81 1 473 2047 406 95 0 42 475 40 476 82 3 47
4 10 4 0 81 1 42 2169 13 95 473 0 37 78 477 81 1 475 2046 406 76 0 78 478 473 47
9 82 3 476 10 3 0 81 1 78 2170 13 76 475 0 42 93 480 81 1 478 2045 406 91 0 93 4
81 475 482 82 3 479 10 2 0 81 1 93 2171 13 91 478 0 78 82 483 81 1 481 2044 406
 80 0 82 484 478 485 82 3 482 10 1 0 81 1 82 2172 13 80 481 0 93 486 487 81 1 48
4 1663 406 364 488 489 490 481 491 82 3 485 10 0 0 14 364 1 486 ?173 360 492 6 3
37 +0 0 173 360 32 81 1 488 1514 493 364 0 484 494 495 496 81 1 489 2105 497 364
 484 486 498 499 500 81 1 490 1651 406 501 502 503 504 484 505 82 3 491 9 0 2 14
 501 234 506 ?181 507 508 6 509 -0 0 181 507 32 81 1 502 1520 493 501 0 490 510
 511 512 81 1 503 2111 497 501 490 506 513 514 515 81 1 504 1627 406 181 511 514
 151 490 516 82 3 505 8 0 2 14 181 232 152 ?372 501 517 6 304 -0 0 372 501 32 81
 1 511 1521 493 181 0 504 502 518 519 81 1 514 2112 497 181 504 152 503 520 521
 81 1 151 1606 406 148 522 149 523 504 524 82 3 516 6 0 2 81 1 522 1468 493 148
 0 151 525 526 527 81 1 523 1604 406 115 528 143 529 151 530 82 3 524 4 19 0 81
 1 528 1461 493 115 0 523 531 532 533 81 1 143 2177 13 115 523 0 149 140 534 81
 1 529 1603 406 138 531 140 535 523 536 82 3 530 4 17 0 81 1 531 1460 493 138 0
 529 537 528 538 81 1 140 2178 13 138 529 0 143 146 539 81 1 535 1600 406 112 52
5 146 540 529 541 82 3 536 4 16 0 81 1 525 1467 493 112 0 535 542 522 543 81 1 1
46 2179 13 112 535 0 140 544 545 81 1 540 1599 406 167 546 544 547 535 548 82 3
 541 4 13 0 16 167 999 544 ?549 550 156 551 0 0 1 81 1 546 1502 493 167 0 540 55
2 553 554 81 1 544 2180 13 167 540 0 146 177 555 81 1 547 1592 406 159 556 177 5
57 540 558 82 3 548 4 39 1 81 1 556 1508 493 159 0 547 553 559 560 81 1 177 2181
 13 159 547 0 544 136 561 81 1 557 1588 406 132 537 136 562 547 563 82 3 558 4 3
2 1 81 1 537 1457 493 132 0 557 564 531 565 81 1 136 2182 13 132 557 0 177 109 5
66 81 1 562 1585 406 107 542 109 567 557 568 82 3 563 4 11 0 81 1 542 1463 493 1
07 0 562 532 525 569 81 1 109 2183 13 107 562 0 136 114 570 81 1 567 1583 406 11
1 532 114 571 562 572 82 3 568 4 8 0 81 1 532 1462 493 111 0 567 528 542 573 81
 1 114 2184 13 111 567 0 109 263 574 81 1 571 1578 406 178 553 263 575 567 576 8
2 3 572 4 6 0 81 1 553 1505 493 178 0 571 546 556 577 81 1 263 2185 13 178 571 0
 114 578 579 81 1 575 1577 406 396 552 578 580 571 581 82 3 576 4 27 1 16 396 80
5 578 ?395 582 550 583 0 0 1 81 1 552 1498 493 396 0 575 584 546 585 81 1 578 21
86 13 396 575 0 263 134 586 81 1 580 1573 406 106 587 134 588 575 589 82 3 581 4
 26 1 81 1 587 1449 493 106 0 580 0 590 591 81 1 134 2187 13 106 580 0 578 242 5
92 81 1 588 1570 406 240 526 242 593 580 594 82 3 589 4 5 0 81 1 526 1471 493 24
0 0 588 522 595 596 81 1 242 2188 13 240 588 0 134 238 597 81 1 593 1569 406 236
 595 238 598 588 599 82 3 594 4 21 1 81 1 595 1472 493 236 0 593 526 600 601 81
 1 238 2189 13 236 593 0 242 602 603 81 1 598 1568 406 367 604 605 606 593 607 8
2 3 599 4 20 1 14 367 484 602 ?608 173 609 6 610 +0 0 608 173 32 81 1 604 1516 4
93 367 0 598 495 611 612 81 1 605 2107 497 367 598 602 499 613 614 81 1 606 1567
 406 232 600 234 615 598 616 82 3 607 4 13 2 81 1 600 1473 493 232 0 606 595 617
 618 81 1 234 2191 13 232 606 0 602 230 619 81 1 615 1566 406 228 617 230 620 60
6 621 82 3 616 4 19 1 81 1 617 1474 493 228 0 615 600 622 623 81 1 230 2192 13 2
28 615 0 234 624 625 81 1 620 1565 406 608 611 613 626 615 627 82 3 621 4 18 1 1
4 608 468 624 ?628 367 629 6 630 +0 0 628 367 32 81 1 611 1517 493 608 0 620 604
 631 632 81 1 613 2108 497 608 620 624 605 633 634 81 1 626 1564 406 223 622 226
 635 620 636 82 3 627 4 12 2 81 1 622 1475 493 223 0 626 617 637 638 81 1 226 21
94 13 223 626 0 624 221 639 81 1 635 1563 406 219 637 221 640 626 641 82 3 636 4
 17 1 81 1 637 1476 493 219 0 635 622 642 643 81 1 221 2195 13 219 635 0 226 644
 645 81 1 640 1562 406 628 631 633 646 635 647 82 3 641 4 16 1 14 628 452 644 ?5
07 608 648 6 649 +0 0 507 608 32 81 1 631 1518 493 628 0 640 611 510 650 81 1 63
3 2109 497 628 640 644 613 513 651 81 1 646 1552 406 296 652 653 654 640 655 82
 3 647 4 11 2 14 296 224 656 ?360 291 657 6 292 +0 0 360 291 32 81 1 652 1512 49
3 296 0 646 658 494 659 81 1 653 2103 497 296 646 656 660 498 661 81 1 654 1550
 406 224 642 252 662 646 663 82 3 655 4 3 2 81 1 642 1477 493 224 0 654 637 664
 665 81 1 252 2198 13 224 654 0 656 255 666 81 1 662 1549 406 184 664 255 667 65
4 668 82 3 663 4 13 1 81 1 664 1478 493 184 0 662 642 669 670 81 1 255 2199 13 1
84 662 0 252 209 671 81 1 667 1545 406 207 669 209 672 662 673 82 3 668 4 12 1 8
1 1 669 1483 493 207 0 667 664 674 675 81 1 209 2200 13 207 667 0 255 205 676 81
 1 672 1544 406 202 674 205 677 667 678 82 3 673 4 8 1 81 1 674 1484 493 202 0 6
72 669 679 680 81 1 205 2201 13 202 672 0 209 130 681 81 1 677 1542 406 128 564
 130 682 672 683 82 3 678 4 7 1 81 1 564 1454 493 128 0 677 684 537 685 81 1 130
 2202 13 128 677 0 205 126 686 81 1 682 1541 406 121 684 126 687 677 688 82 3 68
3 4 3 0 81 1 684 1453 493 121 0 682 689 564 690 81 1 126 2203 13 121 682 0 130 6
91 692 81 1 687 1540 406 176 584 691 693 682 694 82 3 688 4 2 0 16 176 160 691 ?
175 187 582 197 0 0 1 81 1 584 1492 493 176 0 687 695 552 696 81 1 691 2204 13 1
76 687 0 126 190 697 81 1 693 1539 406 187 695 190 189 687 698 82 3 694 4 5 1 81
 1 695 1491 493 187 0 693 699 584 700 81 1 190 2205 13 187 693 0 691 185 701 81
 1 189 1538 406 174 699 185 702 693 703 82 3 698 4 4 1 81 1 699 1490 493 174 0 1
89 704 695 705 81 1 702 1537 406 173 495 499 706 189 707 82 3 703 4 3 1 81 1 495
 1515 493 173 0 702 488 604 708 81 1 499 2106 497 173 702 191 489 605 709 81 1 7
06 1536 406 120 590 123 710 702 711 82 3 707 4 1 2 81 1 590 1451 493 120 0 706 5
87 689 712 81 1 123 2208 13 120 706 0 191 118 713 81 1 710 1535 406 116 689 118
 714 706 715 82 3 711 4 1 0 81 1 689 1452 493 116 0 710 590 684 716 81 1 118 220
9 13 116 710 0 123 258 717 81 1 714 1534 406 256 679 258 718 710 719 82 3 715 4
 0 0 81 1 679 1487 493 256 0 714 674 720 721 81 1 258 2210 13 256 714 0 118 260
 722 81 1 718 1533 406 194 720 260 723 714 724 82 3 719 4 2 1 81 1 720 1488 493
 194 0 718 679 704 725 81 1 260 2211 13 194 718 0 258 15 726 81 1 723 1532 406 1
86 704 15 727 718 728 82 3 724 4 1 1 81 1 704 1489 493 186 0 723 720 699 729 81
 1 15 2212 13 186 723 0 260 2 730 81 1 727 1530 406 1 731 732 0 723 733 82 3 728
 4 0 1 81 1 731 1528 734 1 735 727 0 0 736 81 1 732 2097 737 1 727 738 0 0 739 8
2 3 733 4 0 3 80 1 737 740 741 8038 0 0 0 0 0 0 0 0 0 TTTTTTTTTTTTTFTF10 81 1 73
8 2098 740 1 732 14 0 0 742 98 255 6 739 80 97 114 116 32 49 80 1 740 743 744 80
17 0 0 0 0 0 0 0 0 0 TTTTTTTTTTTTTFTF3 81 1 14 2099 745 1 738 2 0 0 746 84 6 742
 Part 180 1 745 497 747 8040 0 0 0 0 3 5 0 0 0 TTTFFFFFFFFFFFFF2 83 255 3 746 .6
15686274509804 .811764705882353 .929411764705882 79 255 17 747 SDL/TYSA_COLOUR_2
79 13 744 SDL/TYSA_NAME79 14 741 SDL/TYSA_UNAME80 1 734 493 748 9000 0 0 0 0 3 5
 0 0 0 FFTFTFTTFFFFFFFF2 81 1 735 1527 493 1 0 731 749 750 751 83 1 736 77 80 1
 493 752 753 9000 0 0 0 0 3 5 0 0 0 FFTFTFTTFFFFFFFF2 81 1 749 1526 493 383 0 75
4 755 735 756 81 1 750 1671 493 211 0 757 735 758 759 83 1 751 -1 81 1 757 2078
 406 211 750 213 760 761 762 81 1 758 1696 493 582 0 763 750 764 765 83 1 759 32
 16 582 1694 766 ?137 176 396 199 0 0 1 81 1 763 2082 406 582 758 766 767 768 76
9 81 1 764 1701 493 550 0 768 758 770 771 83 1 765 48 16 550 1699 772 ?141 396 1
67 773 0 0 1 81 1 768 2083 406 550 764 772 763 774 775 81 1 770 1721 493 244 0 7
76 764 777 778 83 1 771 52 81 1 776 2080 406 244 770 246 761 767 779 81 1 777 17
32 493 215 0 780 770 781 782 83 1 778 21 16 215 1730 783 ?162 216 211 212 216 21
6 1 81 1 780 2076 406 215 777 783 784 760 785 81 1 781 1742 493 203 0 761 777 78
6 787 83 1 782 31 16 203 1740 788 ?45 48 256 198 48 48 1 81 1 761 2079 406 203 7
81 788 757 776 789 81 1 786 1752 493 247 0 767 781 0 790 83 1 787 37 81 1 767 20
81 406 247 786 248 776 763 791 83 1 790 20 81 1 248 2135 13 247 767 0 766 246 79
2 82 3 791 10 23 1 81 1 766 2134 13 582 763 0 772 248 793 81 1 246 2136 13 244 7
76 0 248 788 794 84 4 792 KLdB81 1 788 2137 13 203 761 0 246 213 795 84 4 794 KL
ZB81 1 213 2138 13 211 757 0 788 201 796 84 4 795 KLVB81 1 201 2139 13 48 760 0
 213 783 797 84 4 796 KLRB81 1 760 2077 406 48 0 201 780 757 798 81 1 783 2140 1
3 215 780 0 201 166 799 84 4 797 KLNB81 1 166 2141 13 156 784 0 783 218 800 84 4
 799 KLJB81 1 784 2075 406 156 0 166 801 780 802 81 1 218 2142 13 216 801 0 166
 803 804 84 4 800 KLFB81 1 801 2074 406 216 0 218 805 784 806 81 1 803 2143 13 4
29 805 0 218 378 807 84 4 804 KLBB16 429 1723 803 ?75 59 285 286 0 0 1 81 1 805
 2073 406 429 0 803 808 801 809 81 1 378 2144 13 35 808 0 803 324 810 84 3 807 J
L981 1 808 2072 406 35 0 378 811 805 812 81 1 324 2145 13 318 811 0 378 272 813
 84 3 810 JL581 1 811 2071 406 318 0 324 814 808 815 81 1 272 2146 13 270 814 0
 324 411 816 84 3 813 JL181 1 814 2070 406 270 0 272 817 811 818 81 1 411 2147 1
3 285 817 0 272 354 819 84 3 816 JLx16 285 1712 411 ?87 429 277 278 0 0 1 81 1 8
17 2069 406 285 0 411 409 814 820 84 3 819 JLt81 1 409 2068 406 348 0 354 404 81
7 821 82 3 820 10 11 1 82 3 821 10 10 1 17 87 0 298 141 79 84 822 285 0 823 +15
 298 693 0 79 291 0 17 141 0 298 824 87 138 823 550 0 549 +17 79 0 298 87 83 76
 825 274 0 826 +17 822 0 336 97 827 76 87 285 0 0 -17 823 0 828 75 549 84 141 55
0 0 827 -15 828 1066 0 823 372 0 17 75 0 828 144 823 72 827 429 0 829 +17 549 0
 828 823 144 138 830 167 0 210 +17 827 0 336 822 831 84 75 429 0 0 -15 336 1967
 0 831 328 0 17 831 0 336 827 161 72 355 348 0 0 -17 161 0 336 831 832 51 155 35
 0 0 -17 355 0 56 49 829 51 831 348 0 45 +15 56 646 0 829 360 0 17 49 0 56 50 35
5 12 45 203 0 34 -17 829 0 56 355 206 72 144 244 0 831 -17 45 0 44 160 38 51 49
 203 0 161 +15 44 235 0 175 507 0 17 160 0 44 175 45 112 62 168 0 172 +17 175 0
 44 833 160 128 172 176 0 0 +17 62 0 154 155 147 51 160 168 0 355 -16 168 975 83
4 ?160 156 178 835 0 0 1 81 1 834 2132 13 168 774 0 836 772 837 30 835 1132 0 16
8 179 169 0 +-.04 .04 .002 0 -1 1568313250068565e-32 30 179 1136 0 159 0 835 0 +
-.04 693889390390723e-32 -.0687486354243376 0 0 1 30 169 1131 0 156 835 551 0 +-
.04 .04 -542101086242752e-33 0 -1 159549259553856e-31 31 551 1128 0 167 169 773
 0 +-.048 .0085 .004 -2312964634635745e-31 1 0 -1 -2312964634635745e-31 0 .003 3
0 773 1127 0 550 551 583 0 +-.04459067816377215 .0085 .002 -1 -2312964634635745e
-31 0 31 583 1124 0 396 773 199 0 +-.048 .0315 .004 0 1 0 0 0 1 .003 30 199 1123
 0 582 583 197 0 +-.0445906781637722 .0315 .002 -1 0 0 81 1 774 2084 406 168 0 8
34 768 838 839 81 1 836 2131 13 335 840 0 841 834 842 81 1 772 2133 13 550 768 0
 834 766 843 84 4 837 KLpB84 4 843 KLlB14 335 1964 836 ?328 21 844 6 26 +0 0 328
 21 32 81 1 840 2118 497 335 838 836 845 846 847 81 1 841 2130 13 21 845 0 334 8
36 848 84 3 842 JLC14 21 1962 841 ?335 383 398 6 7 +0 0 335 383 32 81 1 845 2117
 497 21 849 841 850 840 851 81 1 334 2129 13 328 846 0 363 841 852 84 3 848 JLG8
1 1 846 2119 497 328 853 334 840 0 854 81 1 363 2128 13 360 498 0 295 334 855 84
 3 852 JLK81 1 498 2104 497 360 856 363 653 489 857 81 1 295 2127 13 291 660 0 3
02 363 858 84 3 855 JLO81 1 660 2102 497 291 859 295 860 653 861 81 1 302 2126 1
3 297 860 0 306 295 862 84 3 858 JLS81 1 860 2101 497 297 863 302 864 660 865 81
 1 306 2125 13 18 864 0 866 302 867 84 3 862 JLW81 1 864 2100 497 18 868 306 0 8
60 869 81 1 866 2124 13 507 513 0 386 306 870 84 3 867 JLa14 507 236 866 ?501 62
8 871 6 308 -0 0 501 628 32 81 1 513 2110 497 507 872 866 633 503 873 81 1 386 2
123 13 383 850 0 388 866 874 84 3 870 JLe81 1 850 2116 497 383 754 386 390 845 8
75 84 3 874 JLi80 1 497 0 876 8001 0 0 0 0 3 5 0 0 0 FFFFTFTFFFFFFFFF2 81 1 754
 2093 406 383 749 850 872 877 878 81 1 390 2115 497 371 877 388 879 850 880 83 3
 875 .615686274509804 .811764705882353 .929411764705882 81 1 877 2094 406 371 75
5 390 754 881 882 81 1 879 2114 497 158 881 370 520 390 883 83 3 880 .6156862745
09804 .811764705882353 .929411764705882 81 1 881 2095 406 158 884 879 877 885 88
6 81 1 370 2121 13 158 879 0 887 388 888 81 1 520 2113 497 372 885 887 514 879 8
89 83 3 883 .615686274509804 .811764705882353 .929411764705882 14 372 1079 887 ?
158 181 828 6 368 -0 0 158 181 32 81 1 885 2096 406 372 518 520 881 0 890 81 1 8
87 2120 13 372 520 0 0 370 891 83 3 889 .615686274509804 .811764705882353 .92941
1764705882 84 3 891 JLu81 1 518 1523 493 372 0 885 511 884 892 82 3 890 10 11 2
 81 1 884 1524 493 158 0 881 518 755 893 83 1 892 74 81 1 755 1525 493 371 0 877
 884 749 894 83 1 893 75 83 1 894 76 84 3 888 JLq82 3 886 10 10 2 82 3 882 10 9
 2 81 1 872 2092 406 507 510 513 868 754 895 82 3 878 10 8 2 81 1 510 1519 493 5
07 0 872 631 502 896 81 1 868 2091 406 18 559 864 863 872 897 82 3 895 10 7 2 81
 1 559 1509 493 18 0 868 556 898 899 81 1 863 2090 406 297 898 860 859 868 900 8
2 3 897 10 6 2 81 1 898 1510 493 297 0 863 559 658 901 81 1 859 2089 406 291 658
 660 856 863 902 82 3 900 10 5 2 81 1 658 1511 493 291 0 859 898 652 903 81 1 85
6 2088 406 360 494 498 853 859 904 82 3 902 10 4 2 81 1 494 1513 493 360 0 856 6
52 488 905 81 1 853 2087 406 328 0 846 849 856 906 82 3 904 10 3 2 81 1 849 2086
 406 21 0 845 838 853 907 82 3 906 10 2 2 81 1 838 2085 406 335 0 840 774 849 90
8 82 3 907 10 1 2 82 3 908 10 0 2 83 1 905 64 83 1 903 62 83 1 901 61 83 1 899 6
0 83 1 896 70 79 15 876 SDL/TYSA_COLOUR83 3 873 .615686274509804 .81176470588235
3 .929411764705882 15 871 482 0 909 507 910 50 308 244 0 507 304 649 0 +-.02 .04
 .002 0 0 -1 1 -1224646799147352e-31 0 52 649 454 0 628 308 630 0 --.03 .01 -.00
0849999999999988 0 0 1 .00275 .707106781186549 .707106781186547 -1 1224646799147
352e-31 0 52 630 470 0 608 649 610 0 --.01 .03 -.00084999999999999 0 0 1 .00275
 .707106781186549 .707106781186547 -1 1224646799147352e-31 0 52 610 486 0 367 63
0 509 0 --.03 .03 -.000849999999999988 0 0 1 .00275 .707106781186549 .7071067811
86547 -1 1224646799147352e-31 0 50 509 1642 0 501 610 337 0 +.055975479637427 .0
4 .001 -1 1224646799147352e-31 0 0 0 -1 50 337 1654 0 364 509 26 0 +-.0265 .0678
480697159713 .004 1224646799147352e-31 1 0 -1 1224646799147352e-31 0 17 909 0 87
1 909 909 0 239 236 0 0 -15 910 466 0 911 507 912 17 911 0 910 911 911 0 231 228
 0 0 -15 912 450 0 913 507 44 17 913 0 912 913 913 0 222 219 0 0 -17 222 0 648 2
22 222 0 913 219 0 0 +15 648 456 0 222 628 914 15 914 457 0 227 628 0 17 227 0 9
14 227 227 0 915 223 0 0 +17 915 0 916 915 915 0 227 223 0 0 -15 916 451 0 915 1
81 163 17 231 0 629 231 231 0 911 228 0 0 +15 629 472 0 231 608 917 15 917 473 0
 235 608 0 17 235 0 917 235 235 0 918 232 0 0 +17 918 0 919 918 918 0 235 232 0
 0 -15 919 467 0 918 181 916 17 239 0 609 239 239 0 909 236 0 0 +15 609 488 0 23
9 367 920 15 920 489 0 243 367 0 17 243 0 920 243 243 0 921 240 0 0 +17 921 0 51
7 921 921 0 243 240 0 0 -15 517 483 0 921 181 919 83 3 869 .615686274509804 .811
764705882353 .929411764705882 83 3 865 .615686274509804 .811764705882353 .929411
764705882 83 3 861 .615686274509804 .811764705882353 .929411764705882 83 3 857 .
615686274509804 .811764705882353 .929411764705882 83 3 854 .615686274509804 .811
764705882353 .929411764705882 83 3 851 .615686274509804 .811764705882353 .929411
764705882 83 3 847 .615686274509804 .811764705882353 .929411764705882 15 844 196
5 0 444 335 0 17 444 0 844 922 825 91 402 24 0 0 +17 922 0 844 826 444 95 94 249
 0 273 -17 825 0 844 444 826 80 79 274 0 0 -17 402 0 398 399 923 80 444 24 0 825
 -17 923 0 398 402 400 91 105 267 0 444 -17 400 0 398 923 401 102 418 311 0 0 -1
7 105 0 303 214 94 102 923 267 0 924 +15 303 1679 0 214 297 0 17 214 0 303 273 1
05 98 924 211 0 925 +17 94 0 303 105 273 91 922 249 0 923 +17 924 0 307 418 101
 102 214 211 0 400 -15 307 733 0 162 18 0 17 418 0 307 162 924 68 400 311 0 164
 +17 101 0 307 924 162 98 832 318 0 214 +17 162 0 307 101 418 63 164 215 0 832 +
17 832 0 336 161 925 63 101 318 0 0 -17 925 0 336 832 97 98 273 270 0 0 -17 97 0
 336 925 822 95 826 341 0 922 +17 273 0 303 94 214 95 925 270 0 0 +17 826 0 844
 825 922 76 97 341 0 822 -17 164 0 163 926 67 68 162 215 0 401 -17 926 0 163 182
 164 107 71 216 0 0 -17 401 0 398 400 58 68 34 11 0 0 -17 34 0 387 47 71 12 401
 11 0 58 +15 387 915 0 71 383 0 17 47 0 387 110 34 111 38 48 0 264 -17 71 0 387
 34 110 68 926 216 0 418 +17 110 0 387 71 47 107 264 178 0 259 -17 264 0 492 193
 259 111 110 178 0 46 +17 259 0 492 264 124 107 182 256 0 926 +15 492 6 0 259 36
4 0 17 124 0 492 259 193 120 119 194 0 183 +17 182 0 163 180 926 120 259 256 0 0
 -17 193 0 492 124 264 116 46 186 0 833 +17 119 0 508 253 183 116 124 194 0 193
 -17 183 0 508 119 127 120 180 184 0 182 -15 508 233 0 127 501 0 17 127 0 508 18
3 253 121 131 187 0 180 +17 253 0 508 127 119 128 833 224 0 175 +17 131 0 170 17
2 171 128 127 187 0 253 -17 833 0 44 46 175 116 253 224 0 0 -17 46 0 44 38 833 1
11 193 186 0 0 -82 3 839 10 26 1 17 206 0 56 829 57 115 397 202 0 0 +17 144 0 82
8 549 75 115 829 244 0 830 +17 830 0 657 397 210 115 549 167 0 206 -15 657 668 0
 397 296 0 17 397 0 657 395 830 106 206 202 0 0 -17 210 0 657 830 395 138 824 20
7 0 0 +17 395 0 657 210 397 132 392 396 0 824 +17 824 0 298 394 141 132 210 207
 0 0 -17 394 0 298 83 824 88 137 582 0 399 -17 83 0 298 79 394 80 399 277 0 402
 +17 137 0 389 392 90 132 394 582 0 395 +82 3 818 10 12 1 82 3 815 10 13 1 82 3
 812 10 14 1 82 3 809 10 15 1 31 286 1725 0 429 278 349 0 --.048 .0085 .004 -231
2964634635745e-31 1 0 -1 -2312964634635745e-31 0 .00435892546260205 82 3 806 10
 16 1 82 3 802 10 17 1 82 3 798 10 19 1 84 4 793 KLhB82 3 789 10 21 1 82 3 785 1
0 18 1 82 3 779 10 22 1 82 3 775 10 25 1 82 3 769 10 24 1 82 3 762 10 20 1 83 1
 756 77 79 13 753 BTI/importTag79 18 748 BTI/importMaxCount84 3 730 JFB83 1 729
 40 84 3 726 JFF83 1 725 39 84 3 722 JFJ83 1 721 38 84 2 717 IF83 1 716 3 81 1 1
91 2207 13 173 499 0 185 123 927 84 3 713 JFE84 3 927 JFG83 1 712 2 83 3 709 .61
5686274509804 .811764705882353 .929411764705882 83 1 708 66 83 1 705 41 84 3 701
 JFR83 1 700 42 84 3 697 JFV83 1 696 43 84 3 692 JFI83 1 690 4 84 3 686 JFM83 1
 685 5 84 3 681 JFd83 1 680 35 84 3 676 JFh83 1 675 34 84 3 671 JFx83 1 670 29 8
1 1 656 2197 13 296 653 0 644 252 928 84 3 666 JF181 1 644 2196 13 628 633 0 221
 656 929 84 3 928 JFO84 3 929 JFu83 1 665 28 83 3 661 .615686274509804 .81176470
5882353 .929411764705882 83 1 659 63 83 3 651 .615686274509804 .811764705882353
 .929411764705882 83 1 650 69 84 4 645 KFBB83 1 643 27 81 1 624 2193 13 608 613
 0 230 226 930 84 4 639 KFFB84 3 930 JFy83 1 638 26 83 3 634 .615686274509804 .8
11764705882353 .929411764705882 83 1 632 68 84 4 625 KFJB83 1 623 25 81 1 602 21
90 13 367 605 0 238 234 931 84 4 619 KFNB84 3 931 JF283 1 618 24 83 3 614 .61568
6274509804 .811764705882353 .929411764705882 83 1 612 67 84 4 603 KFRB83 1 601 2
3 84 4 597 KFVB83 1 596 22 84 3 592 JFU83 1 591 0 84 4 586 KFpB83 1 585 49 84 4
 579 KFtB83 1 577 56 84 3 574 JFY83 1 573 13 84 3 570 JFg83 1 569 14 84 3 566 JF
s83 1 565 8 84 4 561 KFBC83 1 560 59 84 4 555 KFdC83 1 554 53 84 3 545 JF083 1 5
43 18 84 4 539 KFAB83 1 538 11 84 4 534 KFEB83 1 533 12 83 1 527 19 81 1 152 217
5 13 181 514 0 506 149 932 83 3 521 .615686274509804 .811764705882353 .929411764
705882 81 1 506 2174 13 501 503 0 486 152 933 84 3 932 JHC81 1 486 2173 13 364 4
89 0 82 506 934 84 3 933 JJC84 3 934 JKC83 1 519 72 83 3 515 .615686274509804 .8
11764705882353 .929411764705882 83 1 512 71 83 3 500 .615686274509804 .811764705
882353 .929411764705882 83 1 496 65 84 2 487 IL84 3 483 JLE84 3 480 JLI84 3 477
 JLM79 9 471 BTI/DetId82 3 467 10 7 0 82 3 464 10 8 0 82 3 461 10 9 0 82 3 458 1
0 10 0 82 3 455 10 11 0 82 3 452 10 12 0 82 3 449 10 13 0 82 3 446 10 0 1 82 3 4
42 10 1 1 82 3 438 10 2 1 82 3 434 10 3 1 82 3 431 10 4 1 82 3 427 10 5 1 82 3 4
23 10 6 1 82 3 420 10 7 1 82 3 416 10 8 1 84 3 412 JLp82 3 410 10 9 1 79 12 407
 BTI/ExportId84 3 391 JLm40 2 356 0 1 2 .000492910198362961 .122312476383508 ??-
.04 .0276127142113667 .002 -.0444822267378242 .0315 .001425994859282246 41 1 357
 L?-.04 .0276127142113667 .002 41 1 358 L?-.0444822267378242 .0315 .001425994859
282246 204 8 359 4 -.003840572873934285 .01238728578863328 1.325817663668032 .00
3887285788633285 .000678258659862532 .0085 .939101118469126 0 40 2 342 0 1 2 397
9630251679005e-20 .0877315509402936 ??-.04324919064279525 .00914107453739796 .00
2441215072084715 -.04385831522498245 .00874037369874985 .002 41 1 343 L?-.043249
19064279525 .00914107453739796 .002441215072084715 41 1 344 L?-.0438583152249824
5 .00874037369874985 .002 204 8 345 4 .03085892546260205 .000752132632226144 1.8
87837943101885 3469446951953605e-33 .03125962630125015 -430007376140702e-32 2.02
0666758014685 -.000400700838648098 81 2 331 2005 330 26 0 0 327 0 935 936 141 33
8 25 937 937 26 141 937 8 338 338 26 80 2 330 938 939 8044 0 0 0 0 3 5 0 0 0 FFF
FTFFFTTFFFFFF3 2 84 6 935 BAAAAB83 3 936 1100148945399398e-33 .00075213263222614
1 .000641074537397953 79 17 939 SDL/TYSA_BLEND_ID81 2 20 2001 330 7 0 0 0 327 94
0 941 84 6 332 BAAAAB83 3 333 -.000641074537397952 -2602085213965205e-33 .000641
074537397953 84 6 940 BAAAAB83 3 941 0 .000641074537397954 .000641074537397953 4
0 4 314 0 1 4 .000739149585911565 .325301804296035 ??-.0473540496217739 .0308589
2546260205 -.000958099243547829 -.0455776723859891 .03054770377623875 -.00072666
9517968894 -.042128045826692 .028594307294487 -.000277245762763416 -.04 .0269146
535526029 -109264671316775e-32 41 1 315 L?-.0473540496217739 .03085892546260205
 -.000958099243547829 41 1 316 L?-.04 .0269146535526029 -109264671316775e-32 204
 16 317 4 .129552167148825 .000641074537397954 .003708099243547825 .009141074537
39795 .473582363133026 .000952296223761268 .0019167098939937 .00945229622376126
 .941250415914825 .002905692705512985 -.00156206936177276 .01140569270551296 1.1
0714871779409 .00458534644739713 -.00370809924354782 .01308534644739712 40 2 287
 0 1 2 1235201950443942e-21 .00665428992688003 ??-.04385831522498245 .0087403736
9874985 .002 -.04412698680759795 .0085 .002 41 1 288 L?-.04385831522498245 .0087
4037369874985 .002 41 1 289 L?-.04412698680759795 .0085 .002 204 8 290 4 2.02066
675801468 -.000400700838648099 -.000732362938789765 .03125962630125015 2.0474727
9669908 -.000641074537397953 -.00046369135617427 .0315 84 3 192 JFN84 4 153 KFMB
84 3 55 JLU84 3 43 JLQ19 19 254 0 1 0 10 6 0 S0 40 2 27 0 1 2 3979630251679405e-
20 .0877315509402936 ??-.04385831522498245 .03125962630125015 .002 -.04324919064
279525 .03085892546260205 .002441215072084715 41 1 28 L?-.04385831522498245 .031
25962630125015 .002 41 1 29 L?-.04324919064279525 .03085892546260205 .0024412150
72084715 204 8 30 4 .00874037369874985 -475268805223727e-32 1.12092589557511 .00
0240373698749845 .00914107453739796 .000752132632226142 1.253754710487906 .00064
1074537397954 141 23 8 942 943 7 141 942 36 944 23 7 141 943 275 23 945 7 141 94
5 349 943 944 7 141 944 309 945 942 7 74 4 CI16 index_map_offset0 0 1 dCCZ20 17
 9 0 0 786 731 885 331 732 738 14 846 2 0 0 0 0 0 0 0 0 0 0 0 84 3 16 JFD1 0 
