**ABCDEFGHIJKLMNOPQRSTUVWXYZabcdefghijklmnopqrstuvwxyz**************************
**PARASOLID !"#$%&'()*+,-./:;<=>?@[\]^_`{|}~0123456789**************************
**PART1;
MC=unknown;
MC_MODEL=unknown;
MC_ID=unknown;
OS=unknown;
OS_RELEASE=unknown;
FRU=Parasolid 36.0.180;
APPL=Onshape;
SITE=unknown;
USER=unknown;
FORMAT=text;
GUISE=transmit;
KEY=BTGapi::writeModels_.xmt;
FILE=BTGapi::writeModels_.xmt;
DATE=2024-08-06T06:49:20 (UTC);
**PART2;
SCH=SCH_3600180_36001;
USFLD_SIZE=0;
**PART3;
**END_OF_HEADER*****************************************************************
T51 : TRANSMIT FILE created by modeller version 360018023 SCH_3600180_36001_1300
6231 0 12 36 CCCI7 lattice222 0 CCCI4 mesh1006 0 I8 polyline1008 0 CCCCCCCDI5 ow
ner1040 0 CCCI16 boundary_lattice222 0 CCCI13 boundary_mesh1006 0 I17 boundary_p
olyline1008 0 CCCA16 index_map_offset0 0 1 dA9 index_map82 0 A17 node_id_index_m
ap82 0 A20 schema_embedding_map82 0 A5 child12 0 A14 lowest_node_id0 0 1 dA16 me
sh_offset_data206 0 Z1 2479 2 3 0 4 0 0 0 0 0 1e3 1e-8 0 5 0 1 0 1 2 6 0 7 8 9 0
 0 10 11 12 0 0 0 0 0 0 0 81 255 1 2 2479 13 1 14 0 15 0 16 70 11 CI9 list_type0
 0 1 uI10 notransmit0 0 1 lCCCDCCDI12 finger_index0 0 1 dI12 finger_block1012 0
 CZ3 0 4 T1 0 0 8 20 1 17 17 50 255 4 1628 0 1 0 0 0 +.0745776605019159 .2 -.042
 1 0 -653144959545255e-31 653144959545255e-31 0 1 13 255 6 225 0 1 0 18 0 0 19 0
 51 255 7 2175 0 20 21 0 0 +.0558242231477245 .00417577685227552 .054 0 0 1 .004
175776852275515 1 0 0 31 255 8 2180 0 22 23 0 0 +.0558242231477245 .004175776852
275495 .054 0 0 1 1 0 0 .004175776852275515 29 255 9 2094 0 12 24 0 -.054 370125
1545806805e-21 .056 19 9 CCCCCCI5 frame230 0 CA5 owner12 0 Z10 75 0 1 19 0 25 0
 V0 16 255 11 2101 26 ?27 0 28 29 0 0 1 18 255 12 2090 30 31 0 32 9 ?1 81 1 30 2
392 13 12 33 0 34 35 36 17 255 31 0 37 38 39 12 40 28 0 41 +18 32 2079 34 42 12
 43 24 ?1 81 1 34 2391 13 32 44 0 45 30 46 17 42 0 47 48 49 32 50 51 0 39 +18 43
 2068 45 52 32 53 54 ?1 29 24 2083 0 32 54 9 -.015 3701251545806805e-21 .056 29
 54 2072 0 43 55 24 -.015 0 .0558242231477245 29 55 2061 0 53 56 54 .015 0 .0558
242231477245 18 53 2057 57 58 43 59 55 ?1 29 56 2050 0 59 60 55 .015 37012515458
17215e-21 .056 18 59 2046 61 62 53 63 56 ?1 29 60 2039 0 63 64 56 .054 370125154
5806805e-21 .056 18 63 2035 65 66 59 67 60 ?1 29 64 2022 0 67 68 60 .054 .004175
776852275495 .06 18 67 2018 69 70 63 71 64 ?1 29 68 2011 0 71 72 64 -.054 .00417
577685227552 .06 18 71 2007 35 73 67 74 68 ?1 29 72 2000 0 74 75 68 .056 3701251
545806805e-21 .054 18 74 1996 76 77 71 78 72 ?1 29 75 1989 0 78 79 72 .056 37012
51545806805e-21 .042 18 78 1985 80 81 74 82 75 ?1 29 79 1978 0 82 83 75 .06 .004
175776852275495 .054 18 82 1974 84 85 78 86 79 ?1 29 83 1973 0 86 87 79 .06 .004
175776852275495 .042 18 86 1969 88 89 82 90 83 ?1 29 87 1962 0 90 91 83 -.06 .00
4175776852275495 .054 18 90 1958 92 93 86 94 87 ?1 29 91 1951 0 94 95 87 -.06 .0
04175776852275495 .02755614874380415 18 94 1947 96 97 90 98 91 ?1 29 95 1940 0 9
8 99 91 -.056 3701251545806805e-21 .054 18 98 1936 100 27 94 101 95 ?1 29 99 193
5 0 101 102 95 -.056 370125154581114e-20 .02755614874380415 18 101 1931 103 104
 98 105 99 ?1 29 102 1867 0 105 106 99 -.015 .2 -.0487911517491265 18 105 1863 1
07 108 101 109 102 ?1 29 106 1857 0 109 110 102 .054 .2 -.0487911517491264 18 10
9 1854 111 112 105 113 106 ?1 29 110 1847 0 113 114 106 .054 .196117996393613 -.
0526731553555132 18 113 1843 115 116 109 117 110 ?1 29 114 1842 0 117 118 110 -.
015 .196117996393613 -.0526731553555132 18 117 1839 119 120 113 121 114 ?1 29 11
8 1822 0 122 123 114 .054 .2 -.03922603475501125 18 122 1583 124 125 126 127 118
 ?1 29 123 1821 0 127 128 118 .06 .2 -.03322603475501125 18 127 1506 129 130 122
 131 123 ?1 29 128 1820 0 132 133 123 .056 .2 -.03322603475501125 18 132 1635 13
4 135 121 126 128 ?1 29 133 1819 0 121 136 128 .056 0 -.03322603475501125 18 121
 1641 137 138 117 132 133 ?1 29 136 1818 0 131 139 133 .06 0 -.03322603475501125
 18 131 1476 140 141 127 142 136 ?1 29 139 1619 0 143 144 136 -.06 .2 .027556148
74380415 18 143 380 145 146 147 148 139 ?1 29 144 1618 0 147 149 139 -.056 .2 .0
2755614874380415 18 147 379 150 151 152 143 144 ?1 29 149 1596 0 153 154 144 .05
4 0 -.0526731553555132 18 153 646 155 156 157 0 149 ?1 29 154 1595 0 142 158 149
 -.015 0 -.0526731553555132 18 142 1464 159 160 131 161 154 ?1 29 158 1593 0 126
 162 154 .054 0 -.03922603475501125 18 126 1589 163 164 132 122 158 ?1 29 162 14
35 0 157 165 158 .054 0 -.03522603475501125 18 157 651 166 167 168 153 162 ?1 29
 165 1432 0 169 170 162 .054 .2 -.03522603475501125 18 169 655 171 172 173 168 1
65 ?1 29 170 1431 0 173 174 165 .015 .2 -.03522603475501125 18 173 654 175 176 1
77 169 170 ?1 29 174 1430 0 168 178 170 .015 0 -.03522603475501125 18 168 652 17
9 180 169 157 174 ?1 29 178 71 0 161 181 174 .015 .2 .056 18 161 69 182 183 142
 184 178 ?1 29 181 68 0 184 185 178 .054 .2 .056 18 184 66 186 187 161 188 181 ?
1 29 185 65 0 188 189 181 .056 .2 .054 18 188 63 190 191 184 192 185 ?1 29 189 6
2 0 192 193 185 .056 .2 .042 18 192 60 194 195 188 196 189 ?1 29 193 59 0 196 19
7 189 .06 .2 .042 18 196 57 198 199 192 200 193 ?1 29 197 56 0 200 201 193 .06 .
2 .054 18 200 54 202 203 196 204 197 ?1 29 201 53 0 204 205 197 .054 .2 .06 18 2
04 51 206 207 200 208 201 ?1 29 205 491 0 208 209 201 -.015 .2 .056 18 208 376 2
10 211 204 212 205 ?1 29 209 492 0 212 213 205 -.054 .2 .056 18 212 377 214 215
 208 152 209 ?1 29 213 493 0 152 216 209 -.056 .2 .054 18 152 378 217 218 212 14
7 213 ?1 29 216 496 0 148 219 213 -.06 .2 .054 18 148 381 220 221 143 177 216 ?1
 29 219 497 0 177 0 216 -.054 .2 .06 18 177 382 222 223 148 173 219 ?1 81 1 222
 2451 13 177 224 0 225 220 226 17 223 0 227 228 229 177 207 230 0 231 -15 255 22
7 199 0 228 232 0 17 228 0 227 70 223 71 233 234 0 235 +17 229 0 227 223 70 204
 236 237 0 238 -17 207 0 239 203 231 204 223 230 0 229 +16 230 13 15 ?207 240 24
1 242 0 0 1 17 231 0 239 207 221 177 243 244 0 233 -15 239 4 0 245 246 0 17 221
 0 239 231 146 148 247 248 0 249 -17 243 0 250 251 233 148 231 244 0 0 +16 244 3
42 252 ?243 248 253 254 0 0 1 17 233 0 250 243 73 177 228 234 0 0 -15 250 403 0
 251 255 0 17 73 0 250 233 251 71 256 257 0 228 +16 234 341 258 ?228 241 259 260
 0 0 1 81 1 258 2361 13 234 261 0 262 263 264 16 241 2058 265 ?180 230 234 266 0
 0 1 16 259 343 262 ?251 234 267 268 0 0 1 30 255 260 452 0 234 268 242 0 +-.054
 .2 .06 0 -1 0 30 268 453 0 259 269 260 0 +-.06 .2 .054 0 -1 0 30 242 15 0 230 2
60 270 0 +0 .2 .06 1 0 -1284980352575412e-31 31 270 19 0 240 242 271 0 +.054 .2
 .054 0 1 0 0 0 -1 .006 16 240 17 272 ?203 273 230 270 0 0 1 30 271 23 0 273 270
 274 0 +.06 .2 .054 0 0 -1 16 273 21 275 ?199 276 240 271 0 0 1 30 274 27 0 276
 271 277 0 +.06 .2 .042 -1 0 0 16 276 25 278 ?195 279 273 274 0 0 1 30 277 31 0
 279 274 280 0 +.056 .2 .042 0 0 1 16 279 29 281 ?191 282 276 277 0 0 1 31 280 3
5 0 282 277 283 0 +.054 .2 .054 0 -1 0 0 0 -1 .002 16 282 33 284 ?187 285 279 28
0 0 0 1 30 283 39 0 285 280 286 0 +.054 .2 .056 -1 0 0 16 285 37 287 ?183 288 28
2 283 0 0 1 30 286 43 0 288 283 266 0 +.015 .2 .056 0 0 -1 16 288 41 289 ?176 29
0 285 286 0 0 1 30 266 155 0 241 286 291 0 +.015 0 .056 0 0 -1 30 291 216 0 290
 266 292 0 +.015 .2 .056 0 -1 0 16 290 176 293 ?294 295 288 291 0 0 1 30 292 217
 0 295 291 296 0 +.054 .2 .056 0 -1 0 16 295 177 297 ?298 299 290 292 0 0 1 30 2
96 218 0 299 292 300 0 +.056 .2 .054 0 -1 0 16 299 178 301 ?302 303 295 296 0 0
 1 30 300 219 0 303 296 304 0 +.056 .2 .042 0 -1 0 16 303 179 305 ?306 307 299 3
00 0 0 1 30 304 220 0 307 300 308 0 +.06 .2 .042 0 -1 0 16 307 180 309 ?310 311
 303 304 0 0 1 30 308 221 0 311 304 312 0 +.06 .2 .054 0 -1 0 16 311 181 313 ?31
4 237 307 308 0 0 1 30 312 222 0 237 308 315 0 +.054 .2 .06 0 -1 0 16 237 182 26
3 ?236 316 311 312 0 0 1 30 315 1437 0 317 312 318 0 +.054 .2 -.0392260347550112
5 0 -1 0 16 317 601 319 ?164 253 320 315 0 0 1 31 318 1439 0 321 315 322 0 +.054
 0 -.03322603475501125 0 -1 0 653144959545255e-31 0 1 .006 16 321 625 323 ?324 3
25 326 318 0 0 1 31 322 1441 0 327 318 328 0 +.054 .2 -.03322603475501125 0 -1 0
 653144959545255e-31 0 1 .006 16 327 602 329 ?330 331 332 322 0 0 1 30 328 1446
 0 333 322 334 0 +.054 .2 -.03522603475501125 0 -1 0 16 333 611 335 ?336 320 337
 328 0 0 1 30 334 1447 0 332 328 338 0 +.054 0 -.03522603475501125 -1 0 65314495
9545255e-31 16 332 630 339 ?340 327 325 334 0 0 1 30 338 1448 0 337 334 341 0 +.
015 .2 -.03522603475501125 0 -1 0 16 337 613 342 ?343 333 344 338 0 0 1 30 341 1
449 0 344 338 345 0 +.054 .2 -.03522603475501125 -1 0 653144959545255e-31 16 344
 612 346 ?347 337 348 341 0 0 1 31 345 1450 0 348 341 349 0 +.054 .2 -.033226034
75501125 0 1 0 653144959545255e-31 0 1 .002 16 348 610 225 ?350 344 331 345 0 0
 1 30 349 1451 0 320 345 351 0 +.056 .2 -.03322603475501125 0 -1 0 16 320 609 35
2 ?138 317 333 349 0 0 1 31 351 1452 0 325 349 353 0 +.054 0 -.03322603475501125
 0 1 0 653144959545255e-31 0 1 .002 16 325 629 354 ?355 332 321 351 0 0 1 30 353
 1588 0 356 351 357 0 +.054 .2 -.03922603475501125 0 0 1 16 356 1855 358 ?125 35
9 360 353 0 0 1 30 357 1594 0 359 353 361 0 +.054 0 -.03922603475501125 0 0 1 16
 359 1592 362 ?363 364 356 357 0 0 1 30 361 1599 0 316 357 365 0 +-.015 .2 -.052
6731553555132 0 -1 0 16 316 1840 366 ?367 360 237 361 0 0 1 30 365 1600 0 326 36
1 368 0 +-391886975727153e-32 0 -.0526731553555132 1 0 631835393030158e-31 16 32
6 624 369 ?370 321 22 365 0 0 1 30 368 1601 0 360 365 371 0 +.054 .2 -.052673155
3555132 0 -1 0 16 360 1844 372 ?156 356 316 368 0 0 1 30 371 1622 0 373 368 374
 0 +-.056 .2 .02755614874380415 0 -1 0 16 373 347 375 ?376 267 377 371 0 0 1 30
 374 1623 0 378 371 379 0 +-.06 .2 .02755614874380415 1 0 0 16 378 346 380 ?381
 382 248 374 0 0 1 30 379 1624 0 267 374 383 0 +-.06 .2 .02755614874380415 0 -1
 0 16 267 345 384 ?385 259 373 379 0 0 1 30 383 1823 0 331 379 386 0 +.06 .2 -.0
3322603475501125 0 -1 0 16 331 608 387 ?141 348 327 383 0 0 1 30 386 1826 0 388
 383 389 0 -.056 0 -.03322603475501125 1 0 0 16 388 1644 390 ?391 392 364 386 0
 0 1 30 389 1827 0 364 386 393 0 -.056 .2 -.03322603475501125 1 0 0 16 364 1638
 394 ?395 388 359 389 0 0 1 30 393 1850 0 392 389 396 0 +-391886975727153e-32 .1
96117996393613 -.0526731553555132 1 0 631835393030158e-31 16 392 1848 397 ?398 3
99 388 393 0 0 1 31 396 1860 0 399 393 400 0 +.054 .196117996393613 -.0487911517
491265 1 0 0 0 0 -1 .003882003606386785 16 399 1858 401 ?112 402 392 396 0 0 1 3
0 400 1870 0 402 396 403 0 -.054 .2 -.0487911517491265 1 0 631835393030158e-31 1
6 402 1868 404 ?108 405 399 400 0 0 1 31 403 1876 0 405 400 406 0 --.015 .196117
996393613 -.0487911517491265 1 0 0 0 0 -1 .003882003606386785 16 405 1874 407 ?1
20 408 402 403 0 0 1 30 406 1943 0 408 403 409 0 --.056 370125154581114e-20 .054
 0 0 1 16 408 1941 410 ?411 412 405 406 0 0 1 31 409 1954 0 412 406 413 0 --.055
8242231477245 .004175776852275515 .02755614874380415 0 0 1 1 0 0 .00417577685227
5515 16 412 1952 414 ?97 415 408 409 0 0 1 30 413 1965 0 415 409 416 0 --.06 .00
4175776852275515 .054 0 0 -1 16 415 1963 417 ?93 418 412 413 0 0 1 30 416 1981 0
 418 413 419 0 +.06 .00417577685227552 .054 0 0 -1 16 418 1979 420 ?89 421 415 4
16 0 0 1 31 419 1992 0 421 416 422 0 -.0558242231477245 .00417577685227552 .042
 0 0 1 1 0 0 .004175776852275515 16 421 1990 423 ?81 424 418 419 0 0 1 30 422 20
03 0 424 419 425 0 +.056 3701251545817215e-21 .054 0 0 1 16 424 2001 426 ?77 257
 421 422 0 0 1 31 425 2014 0 257 422 427 0 --.054 .00417577685227552 .054 0 -1 0
 0 0 -1 .006 16 257 2012 428 ?73 429 424 425 0 0 1 30 427 2025 0 429 425 430 0 +
.054 .00417577685227552 .06 1 0 -1284980352575412e-31 16 429 2023 431 ?70 432 25
7 427 0 0 1 31 430 2031 0 432 427 433 0 -.054 .00417577685227552 .054 0 -1 0 0 0
 -1 .006 16 432 2029 434 ?85 435 429 430 0 0 1 31 433 2042 0 435 430 436 0 -.054
 3701251545817215e-21 .054 0 1 0 0 0 1 .002 16 435 2040 437 ?66 438 432 433 0 0
 1 30 436 2053 0 438 433 439 0 +-536579121191323e-33 3701251545817215e-21 .056 -
1 0 1284980352575412e-31 16 438 2051 440 ?62 441 435 436 0 0 1 31 439 2064 0 441
 436 442 0 -.015 .00417577685227552 .0558242231477245 -1 0 0 0 0 1 .004175776852
275515 16 441 2062 443 ?58 444 438 439 0 0 1 30 442 2075 0 444 439 445 0 --.054
 0 .0558242231477245 1 0 -1284980352575412e-31 16 444 2073 446 ?52 51 441 442 0
 0 1 31 445 2086 0 51 442 447 0 --.015 .00417577685227552 .0558242231477245 1 0
 0 0 0 -1 .004175776852275515 16 51 2084 448 ?42 28 444 445 0 0 1 30 447 2097 0
 28 445 29 0 +-536579121191323e-33 3701251545817215e-21 .056 -1 0 12849803525754
12e-31 16 28 2095 449 ?31 11 51 447 0 0 1 31 29 2103 0 11 447 450 0 --.054 37012
51545817215e-21 .054 0 1 0 0 0 1 .002 31 450 2183 0 451 29 452 0 +-.055824223147
7245 .004175776852275495 .054 0 0 -1 -1 0 0 .004175776852275515 16 451 2156 453
 ?454 455 0 450 0 0 1 31 452 2182 0 455 450 23 0 +-.054 .004175776852275495 .055
8242231477245 -1 0 0 0 0 1 .004175776852275515 16 455 2153 456 ?457 458 451 452
 0 0 1 31 23 2181 0 458 452 8 0 +.054 .004175776852275495 .0558242231477245 -1 0
 0 0 0 1 .004175776852275515 16 458 2146 459 ?460 22 455 23 0 0 1 81 1 459 2335
 13 458 461 0 456 462 463 17 460 0 464 235 465 67 466 458 0 0 +16 22 2143 467 ?4
68 326 458 8 0 0 1 81 1 467 2387 13 22 469 0 426 103 470 17 468 0 471 472 473 82
 474 22 0 0 +15 471 2130 0 468 475 0 17 472 0 471 466 468 67 85 432 0 460 -17 47
3 0 471 468 466 74 66 435 0 0 -17 474 0 476 477 478 74 468 22 0 473 -15 476 2128
 0 479 20 0 17 477 0 476 479 474 78 77 424 0 0 -17 478 0 476 474 479 82 89 418 0
 468 -17 479 0 476 478 477 86 81 421 0 0 -17 89 0 480 481 314 86 478 418 0 310 +
15 480 195 0 314 482 0 17 481 0 480 483 89 196 310 307 0 484 -17 314 0 480 89 48
3 82 485 311 0 478 +17 310 0 486 81 484 86 481 307 0 479 +15 486 193 0 310 487 0
 17 81 0 486 488 310 78 479 421 0 306 +17 484 0 486 310 488 196 195 276 0 0 -17
 488 0 486 484 81 192 306 303 0 489 -17 195 0 239 191 199 192 484 276 0 488 +17
 191 0 239 187 195 188 489 279 0 490 +17 199 0 239 195 203 196 483 273 0 481 +17
 203 0 239 199 207 200 238 240 0 485 +17 483 0 480 314 481 200 199 273 0 0 -17 2
38 0 491 236 485 204 203 240 0 0 -17 485 0 491 238 85 200 314 311 0 483 -15 491
 197 0 236 492 0 17 85 0 491 485 236 82 472 432 0 314 +17 236 0 491 85 238 67 22
9 237 0 472 +14 255 492 198 493 ?482 232 491 6 494 -0 0 482 232 25 81 1 493 2345
 13 492 495 0 496 497 498 14 482 196 497 ?487 492 480 6 499 -0 0 487 492 25 14 2
32 200 496 ?492 500 227 6 501 -0 0 492 500 25 51 494 211 0 492 499 501 0 -.054 .
2 .054 0 -1 0 .006 0 0 -1 13 25 1551 0 0 0 0 0 0 10 18 14 18 1629 502 ?500 0 503
 6 504 +0 0 500 0 25 81 1 502 2423 13 18 505 0 506 352 507 14 500 1577 508 ?232
 18 509 6 510 +0 0 232 18 25 15 503 1630 0 138 18 0 50 504 1634 0 18 511 512 0 +
.056 .1 -.03322603475501125 0 0 1 0 -1 0 50 511 1616 0 513 514 504 0 +-.06 .2 .0
2755614874380415 0 0 1 -1 0 0 51 512 1898 0 515 504 516 0 +-416414848471012e-32
 .196117996393613 -.0487911517491265 1 0 631835393030158e-31 .003882003606386785
 631835393030158e-31 0 -1 14 515 1886 517 ?20 518 519 6 512 +0 0 20 518 25 51 51
6 2179 0 520 512 521 0 +-.0558242231477245 .004175776852275515 .054 0 0 1 .00417
5776852275515 1 0 0 14 520 2135 522 ?0 523 524 6 516 +0 0 0 523 25 54 255 521 21
78 0 523 516 525 0 +-.054 .00417577685227552 .054 0 -1 0 .001824223147724485 .00
4175776852275515 0 0 -1 14 523 2133 526 ?520 527 528 6 521 +0 0 520 527 25 51 52
5 2177 0 527 521 21 0 +-536579121191323e-33 .00417577685227552 .0558242231477245
 -1 0 1284980352575412e-31 .004175776852275515 1284980352575412e-31 0 1 14 527 2
131 529 ?523 475 464 6 525 +0 0 523 475 25 54 21 2176 0 475 525 7 0 +.054 .00417
577685227552 .054 0 -1 0 .001824223147724485 .004175776852275515 0 0 -1 14 475 2
129 530 ?527 20 471 6 21 +0 0 527 20 25 81 1 530 2333 13 475 531 0 526 456 532 1
4 20 2127 533 ?475 515 476 6 7 +0 0 475 515 25 81 1 533 2353 13 20 534 0 522 535
 536 80 7 CCCCCDI12 legal_owners0 17 1 lCZ1 13 537 538 9000 0 0 0 0 3 5 0 0 0 FF
TFTFTTFFFFFFFFF3 81 1 534 2326 539 20 540 533 541 531 542 81 1 522 2352 13 520 5
43 0 544 533 545 81 1 535 2354 13 253 546 0 533 547 548 84 255 3 536 JLC16 253 2
069 535 ?160 244 317 549 0 0 1 81 1 546 2275 537 253 550 535 551 540 552 81 1 54
7 2355 13 553 551 0 535 554 555 84 4 548 KLFC16 553 353 547 ?39 556 557 558 0 0
 1 81 1 551 2274 537 553 559 547 560 546 561 81 1 554 2356 13 556 560 0 547 562
 563 84 4 555 KLBC16 556 351 554 ?41 377 553 564 0 0 1 81 1 560 2273 537 556 565
 554 566 551 567 81 1 562 2357 13 377 566 0 554 375 568 84 4 563 KL9B16 377 349
 562 ?569 373 556 269 0 0 1 81 1 566 2272 537 377 570 562 571 560 572 81 1 375 2
358 13 373 571 0 562 384 573 84 4 568 KL5B81 1 571 2271 537 373 574 375 575 566
 576 81 1 384 2359 13 267 575 0 375 262 577 84 4 573 KL1B81 1 575 2270 537 267 5
78 384 579 571 580 81 1 262 2360 13 259 579 0 384 258 581 84 4 577 KLxB81 1 579
 2269 537 259 582 262 261 575 583 84 4 581 KLtB80 1 537 584 585 9000 0 0 0 0 3 6
 0 0 0 FFTFTFTTFFFFFFFFF1 81 1 582 1156 586 259 0 579 587 578 588 81 1 261 2268
 537 234 587 258 589 579 590 82 255 3 583 10 27 1 81 1 587 1155 586 234 0 261 59
1 582 592 81 1 589 2267 537 237 593 263 594 261 595 82 3 590 10 26 1 81 1 593 11
32 586 237 0 589 596 597 598 81 1 263 2362 13 237 589 0 258 313 599 81 1 594 226
6 537 311 597 313 600 589 601 82 3 595 10 25 1 81 1 597 1133 586 311 0 594 593 6
02 603 81 1 313 2363 13 311 594 0 263 309 604 81 1 600 2265 537 307 602 309 605
 594 606 82 3 601 10 24 1 81 1 602 1134 586 307 0 600 597 607 608 81 1 309 2364
 13 307 600 0 313 305 609 81 1 605 2264 537 303 607 305 610 600 611 82 3 606 10
 23 1 81 1 607 1135 586 303 0 605 602 612 613 81 1 305 2365 13 303 605 0 309 301
 614 81 1 610 2263 537 299 612 301 615 605 616 82 3 611 10 22 1 81 1 612 1136 58
6 299 0 610 607 617 618 81 1 301 2366 13 299 610 0 305 297 619 81 1 615 2262 537
 295 617 297 620 610 621 82 3 616 10 21 1 81 1 617 1137 586 295 0 615 612 622 62
3 81 1 297 2367 13 295 615 0 301 293 624 81 1 620 2261 537 290 622 293 625 615 6
26 82 3 621 10 20 1 81 1 622 1138 586 290 0 620 617 627 628 81 1 293 2368 13 290
 620 0 297 265 629 81 1 625 2260 537 241 630 265 631 620 632 82 3 626 10 19 1 81
 1 630 2060 586 241 0 625 633 550 634 81 1 265 2369 13 241 625 0 293 414 635 81
 1 631 2259 537 412 0 414 636 625 637 82 3 632 10 18 1 81 1 414 2370 13 412 631
 0 265 410 638 81 1 636 2258 537 408 0 410 639 631 640 82 3 637 10 17 1 81 1 410
 2371 13 408 636 0 414 417 641 81 1 639 2257 537 415 0 417 642 636 643 82 3 640
 10 16 1 81 1 417 2372 13 415 639 0 410 448 644 81 1 642 2256 537 51 0 448 645 6
39 646 82 3 643 10 15 1 81 1 448 2373 13 51 642 0 417 446 647 81 1 645 2255 537
 444 0 446 648 642 649 82 3 646 10 14 1 81 1 446 2374 13 444 645 0 448 449 650 8
1 1 648 2254 537 28 0 449 651 645 652 82 3 649 10 13 1 81 1 449 2375 13 28 648 0
 446 26 653 81 1 651 2253 537 11 0 26 654 648 655 82 3 652 10 12 1 81 1 26 2376
 13 11 651 0 449 428 656 81 1 654 2252 537 257 0 428 657 651 658 82 3 655 10 11
 1 81 1 428 2377 13 257 654 0 26 431 659 81 1 657 2251 537 429 0 431 660 654 661
 82 3 658 10 10 1 81 1 431 2378 13 429 657 0 428 434 662 81 1 660 2250 537 432 0
 434 663 657 664 82 3 661 10 9 1 81 1 434 2379 13 432 660 0 431 437 665 81 1 663
 2249 537 435 0 437 666 660 667 82 3 664 10 8 1 81 1 437 2380 13 435 663 0 434 4
40 668 81 1 666 2248 537 438 0 440 669 663 670 82 3 667 10 7 1 81 1 440 2381 13
 438 666 0 437 443 671 81 1 669 2247 537 441 0 443 672 666 673 82 3 670 10 6 1 8
1 1 443 2382 13 441 669 0 440 453 674 81 1 672 2246 537 451 0 453 675 669 676 82
 3 673 10 5 1 81 1 453 2383 13 451 672 0 443 420 677 81 1 675 2245 537 418 0 420
 678 672 679 82 3 676 10 4 1 81 1 420 2384 13 418 675 0 453 423 680 81 1 678 224
4 537 421 0 423 681 675 682 82 3 679 10 3 1 81 1 423 2385 13 421 678 0 420 426 6
83 81 1 681 2243 537 424 0 426 469 678 684 82 3 682 10 2 1 81 1 426 2386 13 424
 681 0 423 467 685 81 1 469 2242 537 22 0 467 686 681 687 82 3 684 10 1 1 81 1 6
86 2241 537 101 0 103 688 469 689 82 3 687 10 0 1 81 1 103 2388 13 101 686 0 467
 96 690 81 1 688 2240 537 94 0 96 691 686 692 82 3 689 10 15 0 81 1 96 2389 13 9
4 688 0 103 45 693 81 1 691 2239 537 43 0 45 44 688 694 82 3 692 10 14 0 81 1 45
 2390 13 43 691 0 96 34 695 81 1 44 2238 537 32 0 34 33 691 696 82 3 694 10 13 0
 81 1 33 2237 537 12 0 30 697 44 698 82 3 696 10 12 0 81 1 697 2236 537 71 0 35
 699 33 700 82 3 698 10 11 0 81 1 35 2393 13 71 697 0 30 69 701 81 1 699 2235 53
7 67 0 69 702 697 703 82 3 700 10 10 0 81 1 69 2394 13 67 699 0 35 65 704 81 1 7
02 2234 537 63 0 65 705 699 706 82 3 703 10 9 0 81 1 65 2395 13 63 702 0 69 57 7
07 81 1 705 2233 537 53 0 57 708 702 709 82 3 706 10 8 0 81 1 57 2396 13 53 705
 0 65 61 710 81 1 708 2232 537 59 0 61 711 705 712 82 3 709 10 7 0 81 1 61 2397
 13 59 708 0 57 100 713 81 1 711 2231 537 98 0 100 714 708 715 82 3 712 10 6 0 8
1 1 100 2398 13 98 711 0 61 92 716 81 1 714 2230 537 90 0 92 717 711 718 82 3 71
5 10 5 0 81 1 92 2399 13 90 714 0 100 88 719 81 1 717 2229 537 86 0 88 720 714 7
21 82 3 718 10 4 0 81 1 88 2400 13 86 717 0 92 80 722 81 1 720 2228 537 78 0 80
 723 717 724 82 3 721 10 3 0 81 1 80 2401 13 78 720 0 88 84 725 81 1 723 2227 53
7 82 0 84 726 720 727 82 3 724 10 2 0 81 1 84 2402 13 82 723 0 80 76 728 81 1 72
6 2226 537 74 0 76 729 723 730 82 3 727 10 1 0 81 1 76 2403 13 74 726 0 84 731 7
32 81 1 729 1925 537 733 734 735 736 726 737 82 3 730 10 0 0 14 733 685 731 ?738
 739 740 6 514 -0 0 738 739 25 81 1 734 1233 586 733 0 729 741 742 743 81 1 735
 2321 539 733 729 731 744 745 746 81 1 736 1924 537 500 0 747 748 729 749 82 3 7
37 9 4 2 81 1 747 2303 539 500 736 508 505 750 751 81 1 748 1922 537 246 752 753
 754 736 755 82 3 749 9 3 2 14 246 1 756 ?757 758 239 6 759 -0 0 757 758 25 81 1
 752 1224 586 246 0 748 760 761 762 81 1 753 2312 539 246 748 756 763 764 765 81
 1 754 1921 537 515 0 541 766 748 767 82 3 755 9 1 2 81 1 541 2325 539 515 754 5
17 768 534 769 81 1 766 1920 537 360 633 372 770 754 771 82 3 767 9 0 2 81 1 633
 1846 586 360 0 766 772 630 773 81 1 372 2408 13 360 766 0 517 358 774 81 1 770
 1919 537 356 0 358 775 766 776 82 3 771 9 7 1 81 1 358 2409 13 356 770 0 372 36
6 777 81 1 775 1918 537 316 0 366 778 770 779 82 3 776 9 6 1 81 1 366 2410 13 31
6 775 0 358 780 781 81 1 778 1917 537 557 782 780 783 775 784 82 3 779 9 5 1 16
 557 354 780 ?785 553 786 787 0 0 1 81 1 782 1502 586 557 0 778 788 789 790 81 1
 780 2411 13 557 778 0 366 397 791 81 1 783 1916 537 392 0 397 792 778 793 82 3
 784 9 4 1 81 1 397 2412 13 392 783 0 780 401 794 81 1 792 1915 537 399 0 401 79
5 783 796 82 3 793 9 3 1 81 1 401 2413 13 399 792 0 397 407 797 81 1 795 1914 53
7 405 0 407 798 792 799 82 3 796 9 2 1 81 1 407 2414 13 405 795 0 401 404 800 81
 1 798 1913 537 402 0 404 801 795 802 82 3 799 9 1 1 81 1 404 2415 13 402 798 0
 407 115 803 81 1 801 1912 537 113 0 115 804 798 805 82 3 802 9 0 1 81 1 115 241
6 13 113 801 0 404 119 806 81 1 804 1911 537 117 0 119 807 801 808 82 3 805 9 3
 0 81 1 119 2417 13 117 804 0 115 111 809 81 1 807 1910 537 109 0 111 810 804 81
1 82 3 808 9 2 0 81 1 111 2418 13 109 807 0 119 107 812 81 1 810 1909 537 105 0
 107 813 807 814 82 3 811 9 1 0 81 1 107 2419 13 105 810 0 111 394 815 81 1 813
 1837 537 364 0 394 816 810 817 82 3 814 9 0 0 81 1 394 2420 13 364 813 0 107 39
0 818 81 1 816 1836 537 388 0 390 819 813 820 82 3 817 8 3 1 81 1 390 2421 13 38
8 816 0 394 506 821 81 1 819 1835 537 738 742 745 822 816 823 82 3 820 8 2 1 14
 738 690 506 ?824 733 825 6 826 -0 0 824 733 25 81 1 742 1234 586 738 0 819 734
 827 828 81 1 745 2322 539 738 819 506 735 829 830 81 1 822 1834 537 18 0 505 83
1 819 832 82 3 823 8 1 2 81 1 505 2302 539 18 822 502 0 747 833 81 1 831 1833 53
7 320 834 352 835 822 836 82 3 832 8 0 2 81 1 834 1180 586 320 0 831 837 838 839
 81 1 352 2424 13 320 831 0 502 387 840 81 1 835 1832 537 331 0 387 841 831 842
 82 3 836 8 1 1 81 1 387 2425 13 331 835 0 352 134 843 81 1 841 1831 537 132 844
 134 845 835 846 82 3 842 8 0 1 81 1 844 1637 586 132 0 841 847 772 848 81 1 134
 2426 13 132 841 0 387 137 849 81 1 845 1830 537 121 772 137 850 841 851 82 3 84
6 8 3 0 81 1 772 1643 586 121 0 845 844 633 852 81 1 137 2427 13 121 845 0 134 1
29 853 81 1 850 1829 537 127 0 129 854 845 855 82 3 851 8 2 0 81 1 129 2428 13 1
27 850 0 137 140 856 81 1 854 1828 537 131 0 140 857 850 858 82 3 855 8 1 0 81 1
 140 2429 13 131 854 0 129 319 859 81 1 857 1612 537 317 837 319 860 854 861 82
 3 858 8 0 0 81 1 837 1176 586 317 0 857 862 834 863 81 1 319 2430 13 317 857 0
 140 362 864 81 1 860 1611 537 359 0 362 865 857 866 82 3 861 6 2 1 81 1 362 243
1 13 359 860 0 319 124 867 81 1 865 1609 537 122 868 124 869 860 870 82 3 866 6
 1 1 81 1 868 1585 586 122 0 865 789 847 871 81 1 124 2432 13 122 865 0 362 163
 872 81 1 869 1607 537 126 847 163 873 865 874 82 3 870 6 3 0 81 1 847 1591 586
 126 0 869 868 844 875 81 1 163 2433 13 126 869 0 124 155 876 81 1 873 1606 537
 153 596 155 877 869 878 82 3 874 6 1 0 81 1 596 1117 586 153 0 873 879 593 880
 81 1 155 2434 13 153 873 0 163 159 881 81 1 877 1570 537 142 0 159 882 873 883
 82 3 878 6 0 0 81 1 159 2435 13 142 877 0 155 884 885 81 1 882 1563 537 518 886
 768 887 877 888 82 3 883 5 1 0 14 518 710 884 ?515 824 889 6 890 -0 0 515 824 2
5 81 1 886 1239 586 518 0 882 827 891 892 81 1 768 2324 539 518 882 884 829 541
 893 81 1 887 1560 537 321 894 323 895 882 896 82 3 888 5 1 2 81 1 894 1195 586
 321 0 887 897 898 899 81 1 323 2437 13 321 887 0 884 369 900 81 1 895 1559 537
 326 788 369 901 887 902 82 3 896 5 6 1 81 1 788 1472 586 326 0 895 891 782 903
 81 1 369 2438 13 326 895 0 323 329 904 81 1 901 1557 537 327 789 329 905 895 90
6 82 3 902 5 5 1 81 1 789 1514 586 327 0 901 782 868 907 81 1 329 2439 13 327 90
1 0 369 908 909 81 1 905 1412 537 824 827 829 910 901 911 82 3 906 5 3 1 14 824
 706 908 ?518 738 912 6 913 -0 0 518 738 25 81 1 827 1238 586 824 0 905 742 886
 914 81 1 829 2323 539 824 905 908 745 768 915 81 1 910 1387 537 169 916 171 917
 905 918 82 3 911 4 22 2 81 1 916 1105 586 169 0 910 919 920 921 81 1 171 2441 1
3 169 910 0 908 175 922 81 1 917 1386 537 173 919 175 923 910 924 82 3 918 4 36
 0 81 1 919 1104 586 173 0 917 925 916 926 81 1 175 2442 13 173 917 0 171 179 92
7 81 1 923 1385 537 168 920 179 928 917 929 82 3 924 4 35 0 81 1 920 1111 586 16
8 0 923 916 879 930 81 1 179 2443 13 168 923 0 175 166 931 81 1 928 1384 537 157
 879 166 932 923 933 82 3 929 4 34 0 81 1 879 1112 586 157 0 928 920 596 934 81
 1 166 2444 13 157 928 0 179 339 935 81 1 932 1365 537 332 936 339 937 928 938 8
2 3 933 4 33 0 81 1 936 1190 586 332 0 932 939 897 940 81 1 339 2445 13 332 932
 0 166 354 941 81 1 937 1364 537 325 897 354 942 932 943 82 3 938 4 70 1 81 1 89
7 1191 586 325 0 937 936 894 944 81 1 354 2446 13 325 937 0 339 342 945 81 1 942
 1352 537 337 946 342 947 937 948 82 3 943 4 69 1 81 1 946 1182 586 337 0 942 83
8 949 950 81 1 342 2447 13 337 942 0 354 346 951 81 1 947 1351 537 344 949 346 9
52 942 953 82 3 948 4 57 1 81 1 949 1183 586 344 0 947 946 939 954 81 1 346 2448
 13 344 947 0 342 335 955 81 1 952 1350 537 333 838 335 956 947 957 82 3 953 4 5
6 1 81 1 838 1181 586 333 0 952 834 946 958 81 1 335 2449 13 333 952 0 346 225 9
59 81 1 956 1349 537 348 939 225 224 952 960 82 3 957 4 55 1 81 1 939 1184 586 3
48 0 956 949 936 961 81 1 225 2450 13 348 956 0 335 222 962 81 1 224 1331 537 17
7 925 222 963 956 964 82 3 960 4 54 1 81 1 925 1096 586 177 0 224 965 919 966 81
 1 963 1330 537 148 965 220 967 224 968 82 3 964 4 27 0 81 1 965 1095 586 148 0
 963 969 925 970 81 1 220 2452 13 148 963 0 222 145 971 81 1 967 1329 537 143 96
9 145 972 963 973 82 3 968 4 26 0 81 1 969 1094 586 143 0 967 974 965 975 81 1 1
45 2453 13 143 967 0 220 150 976 81 1 972 1328 537 147 974 150 977 967 978 82 3
 973 4 25 0 81 1 974 1093 586 147 0 972 979 969 980 81 1 150 2454 13 147 972 0 1
45 217 981 81 1 977 1327 537 152 979 217 982 972 983 82 3 978 4 24 0 81 1 979 10
92 586 152 0 977 984 974 985 81 1 217 2455 13 152 977 0 150 214 986 81 1 982 132
6 537 212 984 214 987 977 988 82 3 983 4 23 0 81 1 984 1091 586 212 0 982 989 97
9 990 81 1 214 2456 13 212 982 0 217 210 991 81 1 987 1325 537 208 989 210 992 9
82 993 82 3 988 4 22 0 81 1 989 1090 586 208 0 987 994 984 995 81 1 210 2457 13
 208 987 0 214 996 997 81 1 992 1308 537 786 998 996 999 987 1000 82 3 993 4 21
 0 16 786 352 996 ?1001 557 1002 1003 0 0 1 81 1 998 1163 586 786 0 992 559 1004
 1005 81 1 996 2458 13 786 992 0 210 1006 1007 81 1 999 1306 537 1002 1004 1006
 1008 992 1009 82 3 1000 4 34 1 16 1002 350 1006 ?1010 786 382 1011 0 0 1 81 1 1
004 1164 586 1002 0 999 998 1012 1013 81 1 1006 2459 13 1002 999 0 996 1014 1015
 81 1 1008 1304 537 382 1012 1014 1016 999 1017 82 3 1009 4 32 1 16 382 348 1014
 ?1018 1002 378 1019 0 0 1 81 1 1012 1165 586 382 0 1008 1004 1020 1021 81 1 101
4 2460 13 382 1008 0 1006 380 1022 81 1 1016 1302 537 378 1020 380 1023 1008 102
4 82 3 1017 4 30 1 81 1 1020 1166 586 378 0 1016 1012 1025 1026 81 1 380 2461 13
 378 1016 0 1014 1027 1028 81 1 1023 1300 537 248 1025 1027 1029 1016 1030 82 3
 1024 4 28 1 16 248 344 1027 ?247 378 244 1031 0 0 1 81 1 1025 1167 586 248 0 10
23 1020 862 1032 81 1 1027 2462 13 248 1023 0 380 252 1033 81 1 1029 1298 537 24
4 862 252 1034 1023 1035 82 3 1030 4 26 1 81 1 862 1168 586 244 0 1029 1025 837
 1036 81 1 252 2463 13 244 1029 0 1027 182 1037 81 1 1034 1265 537 161 1038 182
 1039 1029 1040 82 3 1035 4 24 1 81 1 1038 1076 586 161 0 1034 0 1041 1042 81 1
 182 2464 13 161 1034 0 252 186 1043 81 1 1039 1264 537 184 1041 186 1044 1034 1
045 82 3 1040 4 6 0 81 1 1041 1077 586 184 0 1039 1038 1046 1047 81 1 186 2465 1
3 184 1039 0 182 190 1048 81 1 1044 1263 537 188 1046 190 1049 1039 1050 82 3 10
45 4 5 0 81 1 1046 1078 586 188 0 1044 1041 1051 1052 81 1 190 2466 13 188 1044
 0 186 194 1053 81 1 1049 1262 537 192 1051 194 1054 1044 1055 82 3 1050 4 4 0 8
1 1 1051 1079 586 192 0 1049 1046 1056 1057 81 1 194 2467 13 192 1049 0 190 198
 1058 81 1 1054 1261 537 196 1056 198 1059 1049 1060 82 3 1055 4 3 0 81 1 1056 1
080 586 196 0 1054 1051 1061 1062 81 1 198 2468 13 196 1054 0 194 202 1063 81 1
 1059 1260 537 200 1061 202 1064 1054 1065 82 3 1060 4 2 0 81 1 1061 1081 586 20
0 0 1059 1056 994 1066 81 1 202 2469 13 200 1059 0 198 206 1067 81 1 1064 1259 5
37 204 994 206 1068 1059 1069 82 3 1065 4 1 0 81 1 994 1082 586 204 0 1064 1061
 989 1070 81 1 206 2470 13 204 1064 0 202 289 1071 81 1 1068 1258 537 288 627 28
9 1072 1064 1073 82 3 1069 4 0 0 81 1 627 1139 586 288 0 1068 622 1074 1075 81 1
 289 2471 13 288 1068 0 206 287 1076 81 1 1072 1257 537 285 1074 287 1077 1068 1
078 82 3 1073 4 7 1 81 1 1074 1140 586 285 0 1072 627 1079 1080 81 1 287 2472 13
 285 1072 0 289 284 1081 81 1 1077 1256 537 282 1079 284 1082 1072 1083 82 3 107
8 4 6 1 81 1 1079 1141 586 282 0 1077 1074 1084 1085 81 1 284 2473 13 282 1077 0
 287 281 1086 81 1 1082 1255 537 279 1084 281 1087 1077 1088 82 3 1083 4 5 1 81
 1 1084 1142 586 279 0 1082 1079 1089 1090 81 1 281 2474 13 279 1082 0 284 278 1
091 81 1 1087 1254 537 276 1089 278 1092 1082 1093 82 3 1088 4 4 1 81 1 1089 114
3 586 276 0 1087 1084 1094 1095 81 1 278 2475 13 276 1087 0 281 275 1096 81 1 10
92 1253 537 273 1094 275 1097 1087 1098 82 3 1093 4 3 1 81 1 1094 1144 586 273 0
 1092 1089 1099 1100 81 1 275 2476 13 273 1092 0 278 272 1101 81 1 1097 1252 537
 240 1099 272 1102 1092 1103 82 3 1098 4 2 1 81 1 1099 1145 586 240 0 1097 1094
 591 1104 81 1 272 2477 13 240 1097 0 275 15 1105 81 1 1102 1251 537 230 591 15
 1106 1097 1107 82 3 1103 4 1 1 81 1 591 1146 586 230 0 1102 1099 587 1108 81 1
 15 2478 13 230 1102 0 272 2 1109 81 1 1106 1249 537 1 1110 1111 0 1102 1112 82
 3 1107 4 0 1 81 1 1110 1247 1113 1 891 1106 0 0 1114 81 1 1111 2299 1115 1 1106
 1116 0 0 1117 82 3 1112 4 0 3 80 1 1115 1118 1119 8038 0 0 0 0 0 0 0 0 0 TTTTTT
TTTTTTTFTFT10 81 1 1116 2300 1118 1 1111 14 0 0 1120 98 255 8 1117 109 121 95 10
9 111 100 101 108 80 1 1118 1121 1122 8017 0 0 0 0 0 0 0 0 0 TTTTTTTTTTTTTFTFT3
 81 1 14 2301 1123 1 1116 2 0 0 1124 84 8 1120 my_model80 1 1123 539 1125 8040 0
 0 0 0 3 5 0 0 0 TTTFFFFFFFFFFFFFF2 83 255 3 1124 .792156862745098 .819607843137
255 .933333333333333 79 255 17 1125 SDL/TYSA_COLOUR_279 13 1122 SDL/TYSA_NAME79
 14 1119 SDL/TYSA_UNAME80 1 1113 586 1126 9000 0 0 0 0 3 5 0 0 0 FFTFTFTTFFFFFFF
FF2 81 1 891 1246 586 1 0 1110 886 788 1127 83 1 1114 169 80 1 586 1128 1129 900
0 0 0 0 0 3 5 0 0 0 FFTFTFTTFFFFFFFFF2 83 1 1127 -.5 79 13 1129 BTI/importTag79
 18 1126 BTI/importMaxCount84 3 1109 JFB83 1 1108 70 84 3 1105 JFF83 1 1104 69 8
4 3 1101 JFJ83 1 1100 68 84 3 1096 JFN83 1 1095 67 84 3 1091 JFR83 1 1090 66 84
 3 1086 JFV83 1 1085 65 84 3 1081 JFZ83 1 1080 64 84 3 1076 JFd83 1 1075 63 84 2
 1071 IF83 1 1070 6 84 3 1067 JFE83 1 1066 5 84 3 1063 JFI83 1 1062 4 84 3 1058
 JFM83 1 1057 3 84 3 1053 JFQ83 1 1052 2 84 3 1048 JFU83 1 1047 1 84 3 1043 JFY8
3 1 1042 0 84 4 1037 KFhB83 1 1036 92 84 4 1033 KFpB83 1 1032 91 17 247 0 1130 3
85 249 143 221 248 0 0 +30 1031 475 0 248 254 1019 0 +-.06 .2 .054 0 0 -1 31 254
 476 0 244 0 1031 0 +-.054 .2 .054 0 -1 0 0 0 -1 .006 30 1019 473 0 382 1031 101
1 0 +-.056 .2 .042 0 0 1 31 1011 472 0 1002 1019 1003 0 +-.054 .2 .054 0 1 0 0 0
 -1 .002 30 1003 471 0 786 1011 787 0 +-.054 .2 .056 1 0 0 30 787 470 0 557 1003
 549 0 +-.015 .2 .056 0 0 -1 30 549 460 0 253 787 558 0 +-.015 0 .056 0 0 -1 30
 558 458 0 553 549 564 0 +-.015 .2 .056 0 -1 0 30 564 457 0 556 558 269 0 +-.054
 .2 .056 0 -1 0 30 269 456 0 377 564 268 0 +-.056 .2 .054 0 -1 0 15 1130 407 0 3
85 1131 0 17 385 0 1130 93 247 94 1132 267 0 1133 +17 249 0 1130 247 93 148 251
 259 0 243 -17 93 0 1130 249 385 90 1133 415 0 251 +17 251 0 250 73 243 90 249 2
59 0 256 +17 256 0 528 1134 457 90 73 257 0 454 -15 528 2134 0 457 523 0 17 1134
 0 528 1135 256 98 454 451 0 1136 -17 457 0 528 256 1135 71 1137 455 0 0 +17 454
 0 524 1133 1136 90 1134 451 0 0 +15 524 2136 0 454 520 0 17 1133 0 524 104 454
 94 93 415 0 0 -17 1136 0 524 454 104 98 411 408 0 0 -17 104 0 524 1136 1133 101
 97 412 0 411 -17 411 0 1138 1139 569 101 1136 408 0 376 +15 1138 415 0 569 1140
 0 17 1139 0 1138 1018 411 147 376 373 0 381 -17 569 0 1138 411 1018 98 1141 377
 0 1134 +17 376 0 1142 97 381 101 1139 373 0 0 +15 1142 411 0 376 513 0 17 97 0
 1142 1132 376 94 104 412 0 385 +17 381 0 1142 376 1132 147 146 378 0 0 +17 1132
 0 1142 381 97 143 385 267 0 247 -17 146 0 239 221 151 143 381 378 0 1132 -17 15
1 0 239 146 218 147 1018 382 0 1139 -17 218 0 239 151 215 152 1010 1002 0 1141 -
17 1018 0 1138 569 1139 152 151 382 0 0 +17 215 0 239 218 211 212 1001 786 0 38
 -17 1010 0 1143 41 1141 212 218 1002 0 0 +17 1141 0 1143 1010 27 152 569 377 0
 1018 -15 1143 419 0 41 1144 0 17 27 0 1143 1141 41 98 1135 11 0 569 +17 41 0 11
43 27 1010 12 38 556 0 1137 +17 1135 0 528 457 1134 12 27 11 0 0 -17 38 0 37 100
1 31 212 41 556 0 1010 -17 1137 0 464 40 235 12 457 455 0 1135 -15 464 2132 0 46
0 527 0 17 40 0 464 50 1137 32 31 28 0 0 -17 235 0 464 1137 460 71 70 429 0 457
 -17 70 0 227 229 228 67 235 429 0 236 +17 50 0 464 1145 40 43 42 51 0 0 -17 114
5 0 464 1146 50 53 52 444 0 0 -17 1146 0 464 465 1145 59 58 441 0 0 -17 52 0 114
7 160 1148 43 1145 444 0 49 +15 1147 103 0 1148 757 0 17 160 0 1147 370 52 142 4
9 253 0 367 +17 1148 0 1147 52 340 53 180 241 0 1145 -17 49 0 47 42 367 43 160 2
53 0 50 -15 47 427 0 49 739 0 17 367 0 47 49 120 142 1149 316 0 1150 +17 120 0 4
7 367 785 117 1151 405 0 1149 +17 1149 0 740 398 1150 117 367 316 0 1152 -17 115
0 0 740 1149 156 142 370 326 0 0 -15 740 1531 0 1149 733 0 17 156 0 740 1150 398
 153 1153 360 0 1154 +17 370 0 1147 363 160 153 1150 326 0 0 +17 363 0 1147 324
 370 126 1154 359 0 0 +17 324 0 1147 391 363 131 1155 321 0 0 +17 1154 0 509 115
3 164 153 363 359 0 370 -15 509 1578 0 1153 500 0 17 1153 0 509 112 1154 113 156
 360 0 0 -17 164 0 509 1154 125 126 1156 317 0 1155 +17 125 0 509 164 112 122 24
5 356 0 1157 +17 1156 0 825 330 1155 122 164 317 0 0 -17 1155 0 825 1156 141 126
 324 321 0 363 -15 825 1540 0 141 738 0 17 141 0 825 1155 330 131 1158 331 0 115
9 +17 330 0 825 141 1156 127 1157 327 0 0 +17 1158 0 503 395 1159 127 141 331 0
 330 -17 1159 0 503 1158 138 131 391 388 0 324 -17 138 0 503 1159 395 121 1160 3
20 0 1161 +17 391 0 1147 355 324 121 1159 388 0 0 +17 355 0 1147 340 391 157 116
1 325 0 0 +17 340 0 1147 1148 355 168 167 332 0 0 +17 1161 0 912 1160 336 121 35
5 325 0 391 -15 912 709 0 1161 824 0 17 1160 0 912 350 1161 132 138 320 0 395 -1
7 336 0 912 1161 350 157 1162 333 0 355 +17 350 0 912 336 1160 169 135 348 0 0 +
17 1162 0 889 347 167 169 336 333 0 350 -15 889 713 0 167 518 0 17 347 0 889 343
 1162 173 172 344 0 0 +17 167 0 889 1162 343 157 340 332 0 336 -17 343 0 889 167
 347 168 1163 337 0 340 +17 1163 0 1164 1165 180 173 343 337 0 347 -15 1164 185
 0 294 758 0 17 1165 0 1164 294 1163 161 176 288 0 0 -17 180 0 1164 1163 58 168
 1148 241 0 343 +17 58 0 1164 180 294 53 1146 441 0 1148 +17 294 0 1164 58 1165
 59 1166 290 0 1146 +17 1166 0 1167 1168 62 161 294 290 0 1165 -15 1167 187 0 29
8 1169 0 17 1168 0 1167 298 1166 184 183 285 0 0 -17 62 0 1167 1166 298 59 465 4
38 0 294 +17 298 0 1167 62 1168 63 1170 295 0 466 +17 465 0 464 460 1146 63 62 4
38 0 0 -17 1170 0 1171 1172 66 184 298 295 0 1168 -17 466 0 471 473 472 63 460 4
58 0 465 -15 1171 189 0 302 1173 0 17 1172 0 1171 302 1170 188 187 282 0 0 -17 6
6 0 1171 1170 302 63 473 435 0 298 +17 302 0 1171 66 1172 74 490 299 0 474 +17 4
90 0 1174 489 77 188 302 299 0 1172 -15 1174 191 0 306 1175 0 17 489 0 1174 306
 490 192 191 279 0 0 -17 77 0 1174 490 306 74 477 424 0 302 +17 306 0 1174 77 48
9 78 488 303 0 477 +14 1175 192 1176 ?1173 487 1174 6 1177 -0 0 1173 487 25 81 1
 1176 2348 13 1175 1178 0 1179 1180 1181 14 1173 190 1180 ?1169 1175 1171 6 1182
 -0 0 1169 1175 25 14 487 194 1179 ?1175 482 486 6 1183 -0 0 1175 482 25 50 1177
 208 0 1175 1182 1183 0 +.056 .2 .042 1 0 0 0 0 -1 51 1182 207 0 1173 1184 1177
 0 +.054 .2 .054 0 -1 0 .002 0 0 -1 50 1183 209 0 487 1177 499 0 +.06 .2 .042 0
 0 1 1 0 0 50 499 210 0 482 1183 494 0 +.06 .2 .054 -1 0 0 0 0 1 50 1184 206 0 1
169 1185 1182 0 +.054 .2 .056 0 0 1 1 0 0 14 1169 188 1186 ?758 1173 1167 6 1184
 -0 0 758 1173 25 50 1185 205 0 758 1187 1184 0 +.015 .2 .056 -1 0 0 0 0 1 14 75
8 186 544 ?246 1169 1164 6 1185 -0 0 246 1169 25 50 1187 154 0 757 759 1185 0 +.
054 0 .054 0 -1 0 0 0 -1 14 757 102 1188 ?255 246 1147 6 1187 +0 0 255 246 25 50
 759 3 0 246 1189 1187 0 +.054 .2 .054 0 -1 0 0 0 -1 51 1189 441 0 255 1190 759
 0 --.054 .2 .054 0 -1 0 .006 0 0 -1 14 255 400 1191 ?1131 757 250 6 1189 -0 0 1
131 757 25 50 1190 442 0 1131 1192 1189 0 +-.06 .2 .054 1 0 0 0 0 1 14 1131 404
 1193 ?513 255 1130 6 1190 -0 0 513 255 25 50 1192 444 0 1140 1194 1190 0 +-.056
 .2 .042 -1 0 0 0 0 -1 14 1140 412 1195 ?1144 513 1138 6 1192 -0 0 1144 513 25 5
1 1194 445 0 1144 1196 1192 0 +-.054 .2 .054 0 -1 0 .002 0 0 -1 14 1144 416 1197
 ?1198 1140 1143 6 1194 -0 0 1198 1140 25 50 1196 446 0 1198 1199 1194 0 +-.054
 .2 .056 0 0 1 -1 0 0 14 1198 420 1200 ?739 1144 37 6 1196 -0 0 739 1144 25 50 1
199 447 0 739 0 1196 0 +-.015 .2 .056 1 0 0 0 0 1 14 739 424 462 ?733 1198 47 6
 1199 -0 0 733 1198 25 81 1 462 2336 13 739 744 0 459 1201 1202 81 1 744 2320 53
9 739 1203 462 1204 735 1205 81 1 1201 2337 13 513 1206 0 462 1188 1207 84 4 120
2 KLGB14 513 408 1201 ?1140 1131 1142 6 511 -0 0 1140 1131 25 81 1 1206 2316 539
 513 1208 1201 1209 1210 1211 81 1 1188 2338 13 757 764 0 1201 1200 1212 84 4 12
07 KLCB81 1 764 2313 539 757 1213 1188 753 1214 1215 81 1 1200 2339 13 1198 1204
 0 1188 1197 1216 84 3 1212 JL+81 1 1204 2319 539 1198 1217 1200 1218 744 1219 8
1 1 1197 2340 13 1144 1218 0 1200 1195 1220 84 3 1216 JL681 1 1218 2318 539 1144
 1221 1197 1210 1204 1222 81 1 1195 2341 13 1140 1210 0 1197 1193 1223 84 3 1220
 JL281 1 1210 2317 539 1140 1224 1195 1206 1218 1225 81 1 1193 2342 13 1131 1209
 0 1195 1191 1226 84 3 1223 JLy81 1 1209 2315 539 1131 1227 1193 1214 1206 1228
 81 1 1191 2343 13 255 1214 0 1193 496 1229 84 3 1226 JLu81 1 1214 2314 539 255
 1230 1191 764 1209 1231 81 1 496 2344 13 232 750 0 1191 493 1232 84 3 1229 JLq8
1 1 750 2304 539 232 1233 496 747 495 1234 84 3 1232 JLm80 1 539 0 1235 8001 0 0
 0 0 3 5 0 0 0 FFFFTFTFFFFFFFFFF2 81 1 1233 2285 537 232 898 750 1236 1230 1237
 81 1 495 2305 539 492 1236 493 750 1238 1239 83 3 1234 .792156862745098 .819607
843137255 .933333333333333 81 1 1236 2284 537 492 1240 495 1241 1233 1242 81 1 1
238 2306 539 482 1241 497 495 1243 1244 83 3 1239 .792156862745098 .819607843137
255 .933333333333333 81 1 1241 2283 537 482 1245 1238 1246 1236 1247 81 1 497 23
46 13 482 1238 0 493 1179 1248 81 1 1243 2307 539 487 1246 1179 1238 1178 1249 8
3 3 1244 .792156862745098 .819607843137255 .933333333333333 81 1 1246 2282 537 4
87 1250 1243 1251 1241 1252 81 1 1179 2347 13 487 1243 0 497 1176 1253 81 1 1178
 2308 539 1175 1251 1176 1243 1254 1255 83 3 1249 .792156862745098 .819607843137
255 .933333333333333 81 1 1251 2281 537 1175 1256 1178 1257 1246 1258 81 1 1254
 2309 539 1173 1257 1180 1178 1259 1260 83 3 1255 .792156862745098 .819607843137
255 .933333333333333 81 1 1257 2280 537 1173 1261 1254 1262 1251 1263 81 1 1180
 2349 13 1173 1254 0 1176 1186 1264 81 1 1259 2310 539 1169 1262 1186 1254 763 1
265 83 3 1260 .792156862745098 .819607843137255 .933333333333333 81 1 1262 2279
 537 1169 1266 1259 1267 1257 1268 81 1 1186 2350 13 1169 1259 0 1180 544 1269 8
1 1 763 2311 539 758 1267 544 1259 753 1270 83 3 1265 .792156862745098 .81960784
3137255 .933333333333333 81 1 1267 2278 537 758 760 763 1271 1262 1272 81 1 544
 2351 13 758 763 0 1186 522 1273 83 3 1270 .792156862745098 .819607843137255 .93
3333333333333 84 3 1273 JLK81 1 760 1223 586 758 0 1267 1266 752 1274 81 1 1271
 2277 537 520 0 543 540 1267 1275 82 3 1272 10 2 2 81 1 543 2330 539 520 1271 52
2 1276 0 1277 81 1 540 2276 537 20 0 534 546 1271 1278 82 3 1275 10 1 2 82 3 127
8 10 0 2 81 1 1276 2329 539 523 1279 526 1280 543 1281 83 3 1277 .79215686274509
8 .819607843137255 .933333333333333 81 1 1279 2297 537 523 0 1276 1282 1283 1284
 81 1 526 2332 13 523 1276 0 529 530 1285 81 1 1280 2328 539 527 1283 529 531 12
76 1286 83 3 1281 .792156862745098 .819607843137255 .933333333333333 81 1 1283 2
298 537 527 0 1280 1279 0 1287 81 1 529 2331 13 527 1280 0 0 526 1288 81 1 531 2
327 539 475 1282 530 534 1280 1289 83 3 1286 .792156862745098 .819607843137255 .
933333333333333 81 1 1282 2296 537 475 0 531 1290 1279 1291 83 3 1289 .792156862
745098 .819607843137255 .933333333333333 81 1 1290 2295 537 455 0 456 461 1282 1
292 82 3 1291 10 18 2 81 1 456 2334 13 455 1290 0 530 459 1293 81 1 461 2294 537
 458 0 459 1203 1290 1294 82 3 1292 10 35 1 81 1 1203 2293 537 739 741 744 1208
 461 1295 82 3 1294 10 34 1 81 1 741 1232 586 739 0 1203 1296 734 1297 81 1 1208
 2292 537 513 1298 1206 1213 1203 1299 82 3 1295 10 17 2 81 1 1298 1228 586 513
 0 1208 1300 1301 1302 81 1 1213 2291 537 757 761 764 1217 1208 1303 82 3 1299 1
0 16 2 81 1 761 1225 586 757 0 1213 752 1304 1305 81 1 1217 2290 537 1198 1296 1
204 1221 1213 1306 82 3 1303 10 15 2 81 1 1296 1231 586 1198 0 1217 1307 741 130
8 81 1 1221 2289 537 1144 1307 1218 1224 1217 1309 82 3 1306 10 14 2 81 1 1307 1
230 586 1144 0 1221 1301 1296 1310 81 1 1224 2288 537 1140 1301 1210 1227 1221 1
311 82 3 1309 10 13 2 81 1 1301 1229 586 1140 0 1224 1298 1307 1312 81 1 1227 22
87 537 1131 1300 1209 1230 1224 1313 82 3 1311 10 12 2 81 1 1300 1227 586 1131 0
 1227 1304 1298 1314 81 1 1230 2286 537 255 1304 1214 1233 1227 1315 82 3 1313 1
0 11 2 81 1 1304 1226 586 255 0 1230 761 1300 1316 82 3 1315 10 10 2 83 1 1316 1
50 83 1 1314 151 83 1 1312 153 83 1 1310 154 83 1 1308 155 83 1 1305 149 83 1 13
02 152 83 1 1297 156 84 4 1293 KLNC84 4 1288 KLSB82 3 1287 10 20 2 84 4 1285 KLO
B82 3 1284 10 19 2 81 1 1266 1222 586 1169 0 1262 1261 760 1317 83 1 1274 147 81
 1 1261 1221 586 1173 0 1257 1256 1266 1318 83 1 1317 146 81 1 1256 1220 586 117
5 0 1251 1250 1261 1319 83 1 1318 145 81 1 1250 1219 586 487 0 1246 1245 1256 13
20 83 1 1319 144 81 1 1245 1218 586 482 0 1241 1240 1250 1321 83 1 1320 143 81 1
 1240 1217 586 492 0 1236 898 1245 1322 83 1 1321 142 81 1 898 1216 586 232 0 12
33 894 1240 1323 83 1 1322 141 83 1 1323 140 84 3 1269 JLO82 3 1268 10 3 2 84 3
 1264 JLS82 3 1263 10 4 2 82 3 1258 10 5 2 84 3 1253 JLa82 3 1252 10 6 2 84 3 12
48 JLe82 3 1247 10 7 2 82 3 1242 10 8 2 82 3 1237 10 9 2 79 15 1235 SDL/TYSA_COL
OUR83 3 1231 .792156862745098 .819607843137255 .933333333333333 83 3 1228 .79215
6862745098 .819607843137255 .933333333333333 83 3 1225 .792156862745098 .8196078
43137255 .933333333333333 83 3 1222 .792156862745098 .819607843137255 .933333333
333333 83 3 1219 .792156862745098 .819607843137255 .933333333333333 83 3 1215 .7
92156862745098 .819607843137255 .933333333333333 83 3 1211 .792156862745098 .819
607843137255 .933333333333333 83 3 1205 .792156862745098 .819607843137255 .93333
3333333333 15 37 423 0 39 1198 0 17 39 0 37 31 1001 32 48 553 0 40 +17 1001 0 37
 39 38 208 215 786 0 0 +17 48 0 47 785 42 208 39 553 0 1001 -17 785 0 47 120 48
 105 211 557 0 1151 +17 211 0 239 215 108 208 785 557 0 48 -17 1151 0 519 1324 1
152 105 120 405 0 0 -15 519 1887 0 1151 515 0 17 1324 0 519 116 1151 109 108 402
 0 0 -17 1152 0 519 1151 116 117 398 392 0 0 -17 116 0 519 1152 1324 113 112 399
 0 398 -17 398 0 740 156 1149 113 1152 392 0 1153 +17 112 0 509 125 1153 109 116
 399 0 245 +17 245 0 239 108 1157 109 125 356 0 1324 -17 108 0 239 211 245 105 1
324 402 0 785 +17 1157 0 239 245 130 122 330 327 0 1156 -17 130 0 239 1157 135 1
27 395 364 0 1158 -17 135 0 239 130 172 132 350 348 0 1160 -17 395 0 503 138 115
8 132 130 364 0 0 +17 172 0 239 135 176 169 347 344 0 1162 -17 176 0 239 172 183
 173 1165 288 0 1163 +17 183 0 239 176 187 161 1168 285 0 1166 +17 187 0 239 183
 191 184 1172 282 0 1170 +84 3 1181 JLW84 4 1028 KFxB83 1 1026 90 84 4 1022 KF5B
83 1 1021 89 84 4 1015 KFBC83 1 1013 88 84 4 1007 KFJC81 1 559 1161 586 553 0 55
1 565 998 1325 83 1 1005 87 81 1 565 1160 586 556 0 560 570 559 1326 83 1 1325 8
5 81 1 570 1159 586 377 0 566 574 565 1327 83 1 1326 84 81 1 574 1158 586 373 0
 571 578 570 1328 83 1 1327 83 81 1 578 1157 586 267 0 575 582 574 1329 83 1 132
8 82 83 1 1329 81 84 4 997 KFUB83 1 995 14 84 4 991 KFYB83 1 990 15 84 4 986 KFc
B83 1 985 16 84 4 981 KFgB83 1 980 17 84 4 976 KFkB83 1 975 18 84 4 971 KFoB83 1
 970 19 83 1 966 20 84 4 962 KFZD83 1 961 108 84 4 959 KFdD83 1 958 105 84 4 955
 KFhD83 1 954 107 84 4 951 KFlD83 1 950 106 84 4 945 KFVE83 1 944 115 84 4 941 K
FZE83 1 940 114 84 4 935 KFEC83 1 934 36 84 4 931 KFIC83 1 930 35 84 4 927 KFMC8
3 1 926 28 81 1 908 2440 13 824 829 0 329 171 1330 84 4 922 KFQC84 4 1330 KFaB83
 1 921 29 83 3 915 .792156862745098 .819607843137255 .933333333333333 83 1 914 1
62 51 913 1457 0 824 826 510 0 +.054 .2 -.03322603475501125 0 -1 0 .002 65314495
9545255e-31 0 1 51 826 1456 0 738 890 913 0 -.054 .2 -.03322603475501125 0 -1 0
 .006 653144959545255e-31 0 1 50 510 1582 0 500 913 514 0 +.054 .2 -.03922603475
501125 1 0 0 0 0 -1 50 514 1603 0 733 510 511 0 +-391886975727153e-32 .2 -.05267
31553555132 -631835393030158e-31 0 1 -1 0 -631835393030158e-31 50 890 1454 0 518
 501 826 0 +.054 .2 -.03522603475501125 -653144959545255e-31 0 -1 1 0 -653144959
545255e-31 50 501 212 0 232 494 890 0 +0 .2 .06 -1284980352575412e-31 0 -1 -1 0
 1284980352575412e-31 84 3 909 JGN83 1 907 112 84 3 904 JGV83 1 903 120 81 1 884
 2436 13 518 768 0 159 323 1331 84 3 900 JGZ84 3 1331 JGG83 1 899 119 83 3 893 .
792156862745098 .819607843137255 .933333333333333 83 1 892 163 84 3 885 JGE84 2
 881 IH83 1 880 41 84 3 876 JHE83 1 875 41 84 3 872 JHM83 1 871 34 84 3 867 JHF8
4 3 864 JHJ83 1 863 1e2 84 2 859 IJ84 3 856 JJE84 3 853 JJI83 1 852 37 84 3 849
 JJM83 1 848 30 84 3 843 JJB84 3 840 JJF83 1 839 104 83 3 833 .792156862745098 .
819607843137255 .933333333333333 81 1 506 2422 13 738 745 0 390 502 1332 83 3 83
0 .792156862745098 .819607843137255 .933333333333333 84 3 1332 JJG83 1 828 158 8
4 3 821 JJJ84 3 818 JJN84 2 815 IK84 3 812 JKE84 3 809 JKI84 3 806 JKM84 3 803 J
KB84 3 800 JKF84 3 797 JKJ84 3 794 JKN84 3 791 JKR83 1 790 86 84 3 781 JKV84 3 7
77 JKZ81 1 517 2407 13 515 541 0 756 372 1333 84 3 774 JKd81 1 756 2406 13 246 7
53 0 508 517 1334 84 3 1333 JKC81 1 508 2405 13 500 747 0 731 756 1335 84 3 1334
 JKG81 1 731 2404 13 733 735 0 76 508 1336 84 3 1335 JKO84 3 1336 JKS83 1 773 1e
2 83 3 769 .792156862745098 .819607843137255 .933333333333333 83 3 765 .79215686
2745098 .819607843137255 .933333333333333 83 1 762 148 83 3 751 .792156862745098
 .819607843137255 .933333333333333 83 3 746 .792156862745098 .819607843137255 .9
33333333333333 83 1 743 157 84 2 732 IL84 3 728 JLE84 3 725 JLI84 3 722 JLM84 3
 719 JLQ84 3 716 JLU84 3 713 JLY84 3 710 JLc84 3 707 JLg84 3 704 JLk84 3 701 JLo
84 3 695 JL084 3 693 JL484 3 690 JL884 3 685 JLF84 3 683 JLJ84 3 680 JLN84 3 677
 JLR84 3 674 JLV84 3 671 JLZ84 3 668 JLd84 3 665 JLh84 3 662 JLl84 3 659 JLp84 3
 656 JLt84 3 653 JLx84 3 650 JL184 3 647 JL584 3 644 JL984 4 641 KLBB84 4 638 KL
FB84 4 635 KLJB81 1 550 2071 586 253 0 546 630 0 1337 83 1 634 71 83 1 1337 93 8
4 4 629 KLNB83 1 628 62 84 4 624 KLRB83 1 623 61 84 4 619 KLVB83 1 618 60 84 4 6
14 KLZB83 1 613 59 84 4 609 KLdB83 1 608 58 84 4 604 KLhB83 1 603 57 84 4 599 KL
lB83 1 598 56 83 1 592 79 83 1 588 80 79 9 585 BTI/DetId82 3 580 10 28 1 82 3 57
6 10 29 1 82 3 572 10 30 1 82 3 567 10 31 1 82 3 561 10 32 1 82 3 552 10 33 1 84
 3 545 JLG83 3 542 .792156862745098 .819607843137255 .933333333333333 79 12 538
 BTI/ExportId84 4 532 KLKB84 3 507 JJC84 3 498 JLi84 3 470 JLB84 4 463 KLJC84 4
 264 KLpB84 4 226 KFsB84 3 46 JLw84 3 36 JLs19 19 226 0 1 0 10 6 0 S0 74 4 CI16
 index_map_offset0 0 1 dCCZ20 17 8 0 0 550 1110 1283 1111 1116 14 543 2 0 0 0 0
 0 0 0 0 0 0 0 0 84 3 16 JFD1 0 
