**ABCDEFGHIJKLMNOPQRSTUVWXYZabcdefghijklmnopqrstuvwxyz**************************
**PARASOLID !"#$%&'()*+,-./:;<=>?@[\]^_`{|}~0123456789**************************
**PART1;
MC=unknown;
MC_MODEL=unknown;
MC_ID=unknown;
OS=unknown;
OS_RELEASE=unknown;
FRU=Parasolid 36.0.180;
APPL=Onshape;
SITE=unknown;
USER=unknown;
FORMAT=text;
GUISE=transmit;
KEY=BTGapi::writeModels_.xmt;
FILE=BTGapi::writeModels_.xmt;
DATE=2024-08-06T06:48:53 (UTC);
**PART2;
SCH=SCH_3600180_36001;
USFLD_SIZE=0;
**PART3;
**END_OF_HEADER*****************************************************************
T51 : TRANSMIT FILE created by modeller version 360018023 SCH_3600180_36001_1300
6231 0 12 36 CCCI7 lattice222 0 CCCI4 mesh1006 0 I8 polyline1008 0 CCCCCCCDI5 ow
ner1040 0 CCCI16 boundary_lattice222 0 CCCI13 boundary_mesh1006 0 I17 boundary_p
olyline1008 0 CCCA16 index_map_offset0 0 1 dA9 index_map82 0 A17 node_id_index_m
ap82 0 A20 schema_embedding_map82 0 A5 child12 0 A14 lowest_node_id0 0 1 dA16 me
sh_offset_data206 0 Z1 1623 2 3 0 0 0 0 0 0 0 1e3 1e-8 0 4 0 1 0 1 2 5 0 6 7 8 0
 0 9 10 11 0 0 0 0 0 0 0 81 255 1 2 1623 12 1 13 0 14 0 15 70 11 CI9 list_type0
 0 1 uI10 notransmit0 0 1 lCCCDCCDI12 finger_index0 0 1 dI12 finger_block1012 0
 CZ3 0 4 T1 0 0 8 20 1 16 16 13 255 5 225 0 1 0 17 0 0 18 0 50 255 6 212 0 17 19
 0 0 +0 .2 .06 -1284980352575412e-31 0 -1 -1 0 1284980352575412e-31 30 255 7 222
 0 10 20 0 0 +.054 .2 .06 0 -1 0 29 255 8 166 0 21 22 0 .015 0 .056 19 9 CCCCCCI
5 frame230 0 CA5 owner12 0 Z9 75 0 1 18 0 23 0 V0 16 255 10 182 24 ?25 0 26 7 0
 0 1 18 255 11 69 27 28 0 29 30 ?1 81 1 27 1607 12 11 31 0 32 33 34 17 255 28 0
 35 36 37 11 38 39 0 40 +18 29 66 33 37 11 41 42 ?1 29 30 71 0 11 42 43 .015 .2
 .056 29 42 68 0 29 44 30 .054 .2 .056 29 43 172 0 45 30 46 .054 0 .06 18 45 151
 47 48 49 50 43 ?1 29 46 171 0 49 43 51 .06 0 .054 18 49 150 52 53 54 45 46 ?1 2
9 51 170 0 54 46 55 .06 0 .042 18 54 149 56 57 58 49 51 ?1 29 55 169 0 58 51 59
 .056 0 .042 18 58 148 60 61 62 54 55 ?1 29 59 168 0 62 55 22 .056 0 .054 18 62
 147 63 64 65 58 59 ?1 29 22 167 0 65 59 8 .054 0 .056 18 65 146 66 67 21 62 22
 ?1 81 1 66 1596 12 65 68 0 63 69 70 17 67 0 71 72 73 65 74 75 0 76 +18 21 145 6
9 77 78 65 8 ?1 81 1 69 1597 12 21 79 0 66 80 81 17 77 0 82 40 76 21 83 84 0 85
 +18 78 51 86 87 88 21 89 ?1 81 1 86 1613 12 78 90 0 91 92 93 17 87 0 35 94 95 7
8 96 97 0 98 +18 88 54 91 94 99 78 100 ?1 29 89 53 0 78 101 100 .054 .2 .06 29 1
01 481 0 102 103 89 -.015 0 .056 29 100 56 0 88 89 104 .06 .2 .054 29 104 59 0 9
9 100 105 .06 .2 .042 18 99 57 106 107 108 88 104 ?1 29 105 62 0 108 104 44 .056
 .2 .042 18 108 60 109 110 41 99 105 ?1 29 44 65 0 41 105 42 .056 .2 .054 18 41
 63 111 112 29 108 44 ?1 81 1 111 1609 12 41 113 0 33 109 114 17 112 0 35 37 110
 41 115 116 0 117 +15 255 35 4 0 36 118 0 17 37 0 35 28 112 29 119 120 0 72 +17
 110 0 35 112 107 108 121 122 0 123 +17 115 0 124 125 117 108 112 116 0 0 -16 11
6 29 126 ?112 120 122 127 0 0 1 17 117 0 124 115 64 41 73 128 0 119 -15 124 191
 0 64 129 0 17 64 0 124 117 125 62 130 131 0 73 +17 73 0 71 67 119 62 117 128 0
 74 +16 128 178 132 ?73 133 134 135 0 0 1 17 119 0 71 73 72 41 37 120 0 0 -15 71
 189 0 67 136 0 17 72 0 71 119 67 29 76 134 0 38 -16 120 33 137 ?37 39 116 138 0
 0 1 81 1 137 1616 12 120 139 0 140 126 141 16 39 37 140 ?28 142 120 143 0 0 1 3
1 255 138 35 0 120 127 143 0 +.054 .2 .054 0 -1 0 0 0 -1 .002 30 127 31 0 116 14
4 138 0 +.056 .2 .042 0 0 1 30 143 39 0 39 138 145 0 +.054 .2 .056 -1 0 0 30 145
 43 0 142 143 146 0 +.015 .2 .056 0 0 -1 16 142 41 92 ?36 147 39 145 0 0 1 30 14
6 162 0 148 145 149 0 +0 0 .06 1 0 -1284980352575412e-31 16 148 132 80 ?48 150 1
51 146 0 0 1 31 149 161 0 150 146 152 0 +.054 0 .054 0 1 0 0 0 -1 .006 16 150 12
8 153 ?53 154 148 149 0 0 1 30 152 160 0 154 149 155 0 +.06 0 .054 0 0 -1 16 154
 124 156 ?57 157 150 152 0 0 1 30 155 159 0 157 152 158 0 +.06 0 .042 -1 0 0 16
 157 120 159 ?61 131 154 155 0 0 1 30 158 158 0 131 155 160 0 +.056 0 .042 0 0 1
 16 131 116 161 ?64 75 157 158 0 0 1 31 160 157 0 75 158 162 0 +.054 0 .054 0 -1
 0 0 0 -1 .002 16 75 112 163 ?67 84 131 160 0 0 1 30 162 156 0 84 160 164 0 +.05
4 0 .056 -1 0 0 16 84 108 165 ?77 166 75 162 0 0 1 30 164 155 0 166 162 167 0 +.
015 0 .056 0 0 -1 16 166 104 168 ?169 97 84 164 0 0 1 30 167 216 0 147 164 170 0
 +.015 .2 .056 0 -1 0 16 147 176 171 ?85 134 142 167 0 0 1 30 170 217 0 134 167
 135 0 +.054 .2 .056 0 -1 0 16 134 177 172 ?76 128 147 170 0 0 1 30 135 218 0 12
8 170 173 0 +.056 .2 .054 0 -1 0 30 173 219 0 133 135 174 0 +.056 .2 .042 0 -1 0
 16 133 179 175 ?125 176 128 173 0 0 1 30 174 220 0 176 173 20 0 +.06 .2 .042 0
 -1 0 16 176 180 177 ?178 26 133 174 0 0 1 30 20 221 0 26 174 7 0 +.06 .2 .054 0
 -1 0 16 26 181 179 ?180 10 176 20 0 0 1 81 1 179 1585 12 26 181 0 24 177 182 17
 180 0 183 57 184 49 185 26 0 186 +15 183 195 0 57 187 0 17 57 0 183 188 180 54
 186 154 0 178 +17 184 0 183 180 188 88 107 189 0 0 -17 185 0 190 191 53 88 180
 26 0 184 -17 186 0 192 193 194 49 57 154 0 0 -15 192 103 0 195 196 0 17 193 0 1
92 197 186 45 53 150 0 0 -17 194 0 192 186 130 54 61 157 0 0 -17 130 0 192 194 7
4 58 64 131 0 0 -17 61 0 198 123 178 58 194 157 0 125 +15 198 193 0 61 199 0 17
 123 0 198 121 61 108 125 133 0 115 -17 178 0 198 61 121 54 188 176 0 194 +17 12
5 0 124 64 115 58 123 133 0 130 +17 121 0 198 178 123 99 110 122 0 0 -17 188 0 1
83 184 57 99 178 176 0 121 -16 122 25 200 ?110 116 189 144 0 0 1 81 1 200 1618 1
2 122 201 0 126 202 203 16 189 21 202 ?107 122 204 205 0 0 1 30 144 27 0 122 205
 127 0 +.06 .2 .042 -1 0 0 30 205 23 0 189 206 144 0 +.06 .2 .054 0 0 -1 31 206
 19 0 204 207 205 0 +.054 .2 .054 0 1 0 0 0 -1 .006 16 204 17 208 ?94 189 97 206
 0 0 1 30 207 15 0 97 209 206 0 +0 .2 .06 1 0 -1284980352575412e-31 16 97 13 210
 ?87 204 166 207 0 0 1 30 209 452 0 151 211 207 0 +-.054 .2 .06 0 -1 0 16 151 34
1 212 ?213 148 214 209 0 0 1 30 211 453 0 214 215 209 0 +-.06 .2 .054 0 -1 0 16
 214 343 216 ?217 151 218 211 0 0 1 30 215 454 0 218 219 211 0 +-.06 .2 .042 0 -
1 0 16 218 345 220 ?221 214 222 215 0 0 1 30 219 455 0 222 223 215 0 +-.056 .2 .
042 0 -1 0 16 222 347 224 ?225 218 226 219 0 0 1 30 223 456 0 226 227 219 0 +-.0
56 .2 .054 0 -1 0 16 226 349 228 ?229 222 230 223 0 0 1 30 227 457 0 230 231 223
 0 +-.054 .2 .056 0 -1 0 16 230 351 232 ?233 226 234 227 0 0 1 30 231 458 0 234
 235 227 0 +-.015 .2 .056 0 -1 0 16 234 353 236 ?237 230 238 231 0 0 1 30 235 46
0 0 239 240 231 0 +-.015 0 .056 0 0 -1 16 239 365 241 ?195 242 243 235 0 0 1 30
 240 461 0 243 244 235 0 +-.054 0 .056 1 0 0 16 243 364 245 ?246 239 247 240 0 0
 1 31 244 462 0 247 248 240 0 +-.054 0 .054 0 1 0 0 0 -1 .002 16 247 363 249 ?25
0 243 251 244 0 0 1 30 248 463 0 251 252 244 0 +-.056 0 .042 0 0 1 16 251 362 25
3 ?254 247 255 248 0 0 1 30 252 464 0 255 256 248 0 +-.06 0 .042 1 0 0 16 255 36
1 257 ?258 251 259 252 0 0 1 30 256 465 0 259 260 252 0 +-.06 0 .054 0 0 -1 16 2
59 360 261 ?262 255 263 256 0 0 1 31 260 466 0 263 264 256 0 +-.054 0 .054 0 -1
 0 0 0 -1 .006 16 263 359 265 ?266 259 267 260 0 0 1 30 264 470 0 238 268 260 0
 +-.015 .2 .056 0 0 -1 16 238 354 269 ?270 234 271 264 0 0 1 30 268 471 0 271 27
2 264 0 +-.054 .2 .056 1 0 0 16 271 352 273 ?274 238 275 268 0 0 1 31 272 472 0
 275 276 268 0 +-.054 .2 .054 0 1 0 0 0 -1 .002 16 275 350 277 ?278 271 279 272
 0 0 1 30 276 473 0 279 280 272 0 +-.056 .2 .042 0 0 1 16 279 348 281 ?282 275 2
83 276 0 0 1 30 280 474 0 283 284 276 0 +-.06 .2 .042 1 0 0 16 283 346 285 ?286
 279 287 280 0 0 1 30 284 475 0 287 288 280 0 +-.06 .2 .054 0 0 -1 16 287 344 28
9 ?290 283 242 284 0 0 1 31 288 476 0 242 291 284 0 +-.054 .2 .054 0 -1 0 0 0 -1
 .006 16 242 342 292 ?293 287 239 288 0 0 1 30 291 776 0 267 294 288 0 +.054 .2
 -.06 0 -1 0 16 267 601 295 ?296 263 297 291 0 0 1 30 294 777 0 297 298 291 0 +.
06 .2 -.054 0 -1 0 16 297 603 299 ?300 267 301 294 0 0 1 30 298 778 0 301 302 29
4 0 +.06 .2 -.042 0 -1 0 16 301 605 303 ?304 297 305 298 0 0 1 30 302 779 0 305
 306 298 0 +.056 .2 -.042 0 -1 0 16 305 607 307 ?308 301 309 302 0 0 1 30 306 78
0 0 309 310 302 0 +.056 .2 -.054 0 -1 0 16 309 609 311 ?312 305 313 306 0 0 1 30
 310 781 0 313 314 306 0 +.054 .2 -.056 0 -1 0 16 313 611 315 ?316 309 317 310 0
 0 1 30 314 782 0 317 318 310 0 +.015 .2 -.056 0 -1 0 16 317 613 319 ?320 313 32
1 314 0 0 1 30 318 785 0 322 323 314 0 +.054 0 -.056 -1 0 653144959545255e-31 16
 322 630 324 ?325 326 327 318 0 0 1 31 323 786 0 327 328 318 0 +.054 0 -.054 0 1
 0 653144959545255e-31 0 1 .002 16 327 629 329 ?330 322 331 323 0 0 1 30 328 787
 0 331 332 323 0 +.056 0 -.042 -653144959545255e-31 0 -1 16 331 628 333 ?334 327
 335 328 0 0 1 30 332 788 0 335 336 328 0 +.06 0 -.042 -1 0 653144959545255e-31
 16 335 627 337 ?338 331 339 332 0 0 1 30 336 789 0 339 340 332 0 +.06 0 -.054 6
53144959545255e-31 0 1 16 339 626 341 ?342 335 343 336 0 0 1 31 340 790 0 343 34
4 336 0 +.054 0 -.054 0 -1 0 653144959545255e-31 0 1 .006 16 343 625 345 ?346 33
9 347 340 0 0 1 30 344 791 0 347 348 340 0 +-391886975727153e-32 0 -.06 1 0 6318
35393030158e-31 16 347 624 349 ?350 343 351 344 0 0 1 30 348 794 0 321 352 344 0
 +.054 .2 -.056 -1 0 653144959545255e-31 16 321 612 353 ?354 317 355 348 0 0 1 3
1 352 795 0 355 356 348 0 +.054 .2 -.054 0 1 0 653144959545255e-31 0 1 .002 16 3
55 610 357 ?358 321 359 352 0 0 1 30 356 796 0 359 360 352 0 +.056 .2 -.042 -653
144959545255e-31 0 -1 16 359 608 361 ?362 355 363 356 0 0 1 30 360 797 0 363 364
 356 0 +.06 .2 -.042 -1 0 653144959545255e-31 16 363 606 365 ?366 359 367 360 0
 0 1 30 364 798 0 367 368 360 0 +.06 .2 -.054 653144959545255e-31 0 1 16 367 604
 369 ?370 363 371 364 0 0 1 31 368 799 0 371 372 364 0 +.054 .2 -.054 0 -1 0 653
144959545255e-31 0 1 .006 16 371 602 373 ?374 367 326 368 0 0 1 30 372 800 0 326
 375 368 0 +-391886975727153e-32 .2 -.06 1 0 631835393030158e-31 16 326 600 376
 ?377 371 322 372 0 0 1 30 375 802 0 351 378 372 0 +-.054 .2 -.06 0 -1 0 16 351
 633 379 ?380 347 381 375 0 0 1 30 378 803 0 381 382 375 0 +-.06 .2 -.054 0 -1 0
 16 381 635 383 ?384 351 385 378 0 0 1 30 382 804 0 385 386 378 0 +-.06 .2 -.042
 0 -1 0 16 385 637 387 ?388 381 389 382 0 0 1 30 386 805 0 389 390 382 0 +-.056
 .2 -.042 0 -1 0 16 389 639 391 ?392 385 393 386 0 0 1 30 390 806 0 393 394 386
 0 +-.056 .2 -.054 0 -1 0 16 393 641 395 ?396 389 397 390 0 0 1 30 394 807 0 397
 398 390 0 +-.054 .2 -.056 0 -1 0 16 397 643 399 ?400 393 401 394 0 0 1 30 398 8
08 0 401 402 394 0 +-.015 .2 -.056 0 -1 0 16 401 645 403 ?404 397 405 398 0 0 1
 30 402 811 0 406 407 398 0 +-.054 0 -.056 1 0 -653144959545255e-31 16 406 642 4
08 ?409 410 411 402 0 0 1 31 407 812 0 411 412 402 0 +-.054 0 -.054 0 -1 0 65314
4959545255e-31 0 1 .002 16 411 640 413 ?414 406 415 407 0 0 1 30 412 813 0 415 4
16 407 0 +-.056 0 -.042 -653144959545255e-31 0 -1 16 415 638 417 ?418 411 419 41
2 0 0 1 30 416 814 0 419 420 412 0 +-.06 0 -.042 1 0 -653144959545255e-31 16 419
 636 421 ?422 415 423 416 0 0 1 30 420 815 0 423 424 416 0 +-.06 0 -.054 6531449
59545255e-31 0 1 16 423 634 425 ?426 419 427 420 0 0 1 31 424 816 0 427 428 420
 0 +-.054 0 -.054 0 1 0 653144959545255e-31 0 1 .006 16 427 632 429 ?430 423 0 4
24 0 0 1 30 428 818 0 405 431 424 0 +-.054 .2 -.056 1 0 -653144959545255e-31 16
 405 621 432 ?433 401 434 428 0 0 1 31 431 819 0 434 435 428 0 +-.054 .2 -.054 0
 -1 0 653144959545255e-31 0 1 .002 16 434 620 436 ?437 405 438 431 0 0 1 30 435
 820 0 438 439 431 0 +-.056 .2 -.042 -653144959545255e-31 0 -1 16 438 619 440 ?4
41 434 442 435 0 0 1 30 439 821 0 442 443 435 0 +-.06 .2 -.042 1 0 -653144959545
255e-31 16 442 618 444 ?445 438 446 439 0 0 1 30 443 822 0 446 447 439 0 +-.06 .
2 -.054 653144959545255e-31 0 1 16 446 617 448 ?449 442 410 443 0 0 1 31 447 823
 0 410 0 443 0 +-.054 .2 -.054 0 1 0 653144959545255e-31 0 1 .006 16 410 616 450
 ?451 446 406 447 0 0 1 81 1 450 1519 12 410 452 0 448 319 453 17 451 0 35 449 4
54 455 456 410 0 0 +17 449 0 35 445 451 457 458 446 0 0 +17 454 0 35 451 459 460
 377 326 0 461 -18 455 664 462 463 457 460 464 ?1 17 456 0 465 380 463 460 451 4
10 0 454 -15 465 731 0 430 466 0 17 380 0 465 430 456 467 461 351 0 468 +17 463
 0 465 456 430 455 384 381 0 458 -18 460 665 469 456 455 470 471 ?1 81 1 469 147
7 12 460 472 0 473 462 474 18 470 677 475 195 460 476 477 ?1 29 471 855 0 460 0
 464 -.054 .2 -.06 29 464 854 0 455 471 478 -.06 .2 -.054 29 478 853 0 457 464 4
79 -.06 .2 -.042 18 457 666 473 480 481 455 478 ?1 29 479 852 0 481 478 482 -.05
6 .2 -.042 18 481 668 483 484 485 457 479 ?1 29 482 851 0 485 479 486 -.056 .2 -
.054 18 485 670 487 488 489 481 482 ?1 29 486 850 0 489 482 490 -.054 .2 -.056 1
8 489 672 491 492 493 485 486 ?1 29 490 849 0 493 486 494 -.015 .2 -.056 18 493
 674 495 270 496 489 490 ?1 29 494 847 0 467 490 497 -.054 0 -.06 18 467 662 498
 499 500 0 494 ?1 29 497 846 0 500 494 501 -.06 0 -.054 18 500 667 502 384 503 4
67 497 ?1 29 501 845 0 503 497 504 -.06 0 -.042 18 503 669 505 388 506 500 501 ?
1 29 504 844 0 506 501 507 -.056 0 -.042 18 506 671 508 392 509 503 504 ?1 29 50
7 843 0 509 504 510 -.056 0 -.054 18 509 673 511 396 476 506 507 ?1 29 510 842 0
 476 507 477 -.054 0 -.056 18 476 675 512 400 470 509 510 ?1 29 477 841 0 470 51
0 513 -.015 0 -.056 29 513 839 0 514 477 515 .054 .2 -.06 18 514 660 516 459 517
 518 513 ?1 29 515 838 0 517 513 519 .06 .2 -.054 18 517 659 520 521 522 514 515
 ?1 29 519 837 0 522 515 523 .06 .2 -.042 18 522 658 524 525 526 517 519 ?1 29 5
23 836 0 526 519 527 .056 .2 -.042 18 526 657 528 529 530 522 523 ?1 29 527 835
 0 530 523 531 .056 .2 -.054 18 530 656 532 533 534 526 527 ?1 29 531 834 0 534
 527 535 .054 .2 -.056 18 534 655 536 537 538 530 531 ?1 29 535 833 0 538 531 53
9 .015 .2 -.056 18 538 654 540 36 541 534 535 ?1 29 539 831 0 496 535 542 .054 0
 -.06 18 496 646 543 544 545 493 539 ?1 29 542 830 0 545 539 546 .06 0 -.054 18
 545 647 547 548 549 496 542 ?1 29 546 829 0 549 542 550 .06 0 -.042 18 549 648
 551 552 553 545 546 ?1 29 550 828 0 553 546 554 .056 0 -.042 18 553 649 555 556
 557 549 550 ?1 29 554 827 0 557 550 558 .056 0 -.054 18 557 650 559 560 561 553
 554 ?1 29 558 826 0 561 554 562 .054 0 -.056 18 561 651 563 564 518 557 558 ?1
 29 562 825 0 518 558 565 .015 0 -.056 18 518 652 566 169 514 561 562 ?1 29 565
 497 0 567 562 568 -.054 .2 .06 18 567 382 569 96 570 102 565 ?1 29 568 496 0 57
0 565 571 -.06 .2 .054 18 570 381 572 573 574 567 568 ?1 29 571 495 0 574 568 57
5 -.06 .2 .042 18 574 380 576 577 578 570 571 ?1 29 575 494 0 578 571 579 -.056
 .2 .042 18 578 379 580 581 582 574 575 ?1 29 579 493 0 582 575 583 -.056 .2 .05
4 18 582 378 584 585 586 578 579 ?1 29 583 492 0 586 579 587 -.054 .2 .056 18 58
6 377 588 589 50 582 583 ?1 29 587 491 0 50 583 590 -.015 .2 .056 18 50 376 591
 592 45 586 587 ?1 29 590 487 0 541 587 593 -.054 0 .06 18 541 368 594 197 595 5
38 590 ?1 29 593 486 0 595 590 596 -.06 0 .054 18 595 369 597 598 599 541 593 ?1
 29 596 485 0 599 593 600 -.06 0 .042 18 599 370 601 602 603 595 596 ?1 29 600 4
84 0 603 596 604 -.056 0 .042 18 603 371 605 606 607 599 600 ?1 29 604 483 0 607
 600 103 -.056 0 .054 18 607 372 608 609 610 603 604 ?1 29 103 482 0 610 604 101
 -.054 0 .056 18 610 373 611 612 102 607 103 ?1 81 1 611 1549 12 610 613 0 614 6
08 615 17 612 0 616 617 237 610 246 243 0 233 -18 102 374 614 618 567 610 101 ?1
 81 1 614 1548 12 102 619 0 591 611 620 17 618 0 621 622 404 102 195 239 0 237 -
15 621 427 0 618 623 0 17 622 0 621 270 618 50 237 234 0 274 -17 404 0 621 618 2
70 470 624 401 0 409 +17 195 0 192 625 246 470 618 239 0 404 +17 237 0 616 612 2
74 102 622 234 0 246 +15 616 423 0 612 626 0 17 274 0 616 237 617 50 589 271 0 0
 +17 246 0 192 195 250 102 612 243 0 0 +17 250 0 192 246 254 610 609 247 0 0 +17
 254 0 192 250 258 607 606 251 0 0 +17 609 0 627 628 233 607 250 247 0 229 -15 6
27 419 0 609 629 0 17 628 0 627 278 609 582 229 226 0 282 -17 233 0 627 609 278
 610 617 230 0 250 +17 229 0 630 606 282 607 628 226 0 254 +15 630 415 0 606 631
 0 17 606 0 630 632 229 603 254 251 0 225 -17 282 0 630 229 632 582 581 279 0 0
 +17 632 0 630 282 606 578 225 222 0 286 -17 581 0 35 577 585 578 282 279 0 632
 -17 577 0 35 573 581 574 286 283 0 633 -17 585 0 35 581 589 582 278 275 0 628 -
17 589 0 35 585 592 586 274 271 0 617 -17 278 0 627 233 628 586 585 275 0 0 +17
 592 0 35 589 433 50 270 238 0 622 -17 617 0 616 274 612 586 233 230 0 278 -17 4
33 0 35 592 437 493 634 405 0 0 +17 270 0 621 404 622 493 592 238 0 624 +17 624
 0 635 634 409 493 404 401 0 433 -15 635 751 0 409 636 0 17 634 0 635 400 624 48
9 433 405 0 437 -17 409 0 635 624 400 470 625 406 0 0 +17 400 0 635 409 634 476
 492 397 0 414 +17 625 0 192 637 195 476 409 406 0 0 -17 637 0 192 638 625 509 4
14 411 0 0 -17 638 0 192 639 637 506 418 415 0 0 -17 414 0 640 492 396 476 637 4
11 0 625 +15 640 747 0 414 641 0 17 492 0 640 642 414 489 400 397 0 634 -17 396
 0 640 414 642 509 488 393 0 418 +17 642 0 640 396 492 485 437 434 0 441 -17 488
 0 643 644 418 485 396 393 0 642 -17 418 0 643 488 392 509 638 415 0 637 +15 643
 743 0 418 645 0 17 392 0 643 418 644 506 484 389 0 422 +17 644 0 643 392 488 48
1 441 438 0 445 -17 484 0 646 647 422 481 392 389 0 644 -17 422 0 646 484 388 50
6 639 419 0 638 +15 646 739 0 422 648 0 17 388 0 646 422 647 503 480 385 0 426 +
17 639 0 192 649 638 503 422 419 0 0 -17 649 0 192 499 639 500 426 423 0 0 -17 4
99 0 192 350 649 467 430 427 0 380 -17 426 0 650 480 384 503 649 423 0 639 +15 6
50 735 0 426 651 0 17 480 0 650 458 426 457 388 385 0 647 -17 384 0 650 426 458
 500 463 381 0 430 +17 458 0 650 384 480 455 449 446 0 451 -17 430 0 465 463 380
 500 499 427 0 649 +17 647 0 646 388 484 457 445 442 0 449 -17 445 0 35 441 449
 481 647 442 0 0 +17 441 0 35 437 445 485 644 438 0 0 +17 437 0 35 433 441 489 6
42 434 0 0 +14 255 651 732 652 ?648 466 650 5 653 -0 0 648 466 23 81 1 652 1457
 12 651 654 0 655 656 657 14 648 736 655 ?645 651 646 5 658 -0 0 645 651 23 14 4
66 728 656 ?651 659 465 5 660 -0 0 651 659 23 50 653 770 0 651 658 660 0 +-.06 .
2 -.054 1 0 -653144959545255e-31 -653144959545255e-31 0 -1 13 23 76 0 0 0 0 0 0
 9 17 14 17 200 661 ?662 0 663 5 6 -0 0 662 0 23 81 1 661 1576 12 17 664 0 212 6
65 666 14 662 198 665 ?187 17 190 5 19 -0 0 187 17 23 15 663 199 0 48 17 0 17 48
 0 663 98 213 45 197 148 0 25 +17 98 0 663 96 48 78 25 10 0 191 -17 213 0 663 48
 96 541 667 151 0 0 +17 197 0 192 266 193 541 48 148 0 668 -17 25 0 190 53 191 4
5 98 10 0 193 +15 190 197 0 53 662 0 17 53 0 190 185 25 49 193 150 0 180 +17 191
 0 190 25 185 78 94 204 0 0 -17 94 0 35 107 87 88 191 204 0 185 +17 107 0 35 110
 94 99 184 189 0 188 +17 266 0 192 262 197 595 668 263 0 0 +17 668 0 669 667 217
 541 266 263 0 213 -15 669 403 0 668 670 0 17 667 0 669 293 668 567 213 151 0 0
 -17 217 0 669 668 293 595 671 214 0 266 +17 293 0 669 217 667 570 95 242 0 0 +1
7 671 0 672 290 598 570 217 214 0 293 -15 672 407 0 598 673 0 17 290 0 672 221 6
71 574 573 287 0 0 +17 598 0 672 671 221 595 262 259 0 217 -17 221 0 672 598 290
 599 633 218 0 262 +17 262 0 192 258 266 599 598 259 0 0 +17 258 0 192 254 262 6
03 602 255 0 0 +17 602 0 674 633 225 599 258 255 0 221 -15 674 411 0 602 675 0 1
7 633 0 674 286 602 574 221 218 0 290 -17 225 0 674 602 286 603 632 222 0 258 +1
7 286 0 674 225 633 578 577 283 0 0 +14 675 408 676 ?631 673 674 5 677 -0 0 631
 673 23 81 1 676 1538 12 675 678 0 679 680 681 14 631 412 679 ?629 675 630 5 682
 -0 0 629 675 23 14 673 404 680 ?675 670 672 5 683 -0 0 675 670 23 50 677 443 0
 675 682 683 0 +-.06 .2 .042 0 0 1 -1 0 0 50 682 444 0 631 684 677 0 +-.056 .2 .
042 -1 0 0 0 0 -1 50 683 442 0 673 677 685 0 +-.06 .2 .054 1 0 0 0 0 1 51 255 68
5 441 0 670 683 686 0 --.054 .2 .054 0 -1 0 .006 0 0 -1 14 670 400 687 ?673 196
 669 5 685 -0 0 673 196 23 50 686 3 0 118 685 688 0 +.054 .2 .054 0 -1 0 0 0 -1
 14 118 1 14 ?196 689 35 5 686 -0 0 196 689 23 50 688 154 0 196 686 690 0 +.054
 0 .054 0 -1 0 0 0 -1 14 196 102 32 ?670 118 192 5 688 +0 0 670 118 23 50 690 20
5 0 689 688 691 0 +.015 .2 .056 -1 0 0 0 0 1 14 689 186 692 ?118 693 694 5 690 -
0 0 118 693 23 50 691 206 0 693 690 695 0 +.054 .2 .056 0 0 1 1 0 0 14 693 188 6
96 ?689 136 82 5 691 -0 0 689 136 23 51 695 207 0 136 691 697 0 +.054 .2 .054 0
 -1 0 .002 0 0 -1 14 136 190 698 ?693 129 71 5 695 -0 0 693 129 23 50 697 208 0
 129 695 699 0 +.056 .2 .042 1 0 0 0 0 -1 14 129 192 700 ?136 199 124 5 697 -0 0
 136 199 23 50 699 209 0 199 697 701 0 +.06 .2 .042 0 0 1 1 0 0 14 199 194 702 ?
129 187 198 5 699 -0 0 129 187 23 50 701 210 0 187 699 19 0 +.06 .2 .054 -1 0 0
 0 0 1 14 187 196 703 ?199 662 183 5 701 -0 0 199 662 23 51 19 211 0 662 701 6 0
 -.054 .2 .054 0 -1 0 .006 0 0 -1 81 1 703 1578 12 187 704 0 665 702 705 80 7 CC
CCCDI12 legal_owners0 17 1 lCZ1 12 706 707 9000 0 0 0 0 3 5 0 0 0 FFTFTFTTFFFFFF
FFF3 81 1 704 1425 708 187 709 703 710 711 712 81 1 665 1577 12 662 710 0 661 70
3 713 81 1 702 1579 12 199 711 0 703 700 714 84 255 3 705 JFe81 1 711 1426 708 1
99 715 702 704 716 717 81 1 700 1580 12 129 716 0 702 698 718 84 3 714 JFa81 1 7
16 1427 708 129 719 700 711 720 721 81 1 698 1581 12 136 720 0 700 696 722 84 3
 718 JFW81 1 720 1428 708 136 723 698 716 724 725 81 1 696 1582 12 693 724 0 698
 692 726 84 3 722 JFS81 1 724 1429 708 693 727 696 720 728 729 81 1 692 1583 12
 689 728 0 696 24 730 84 3 726 JFO81 1 728 1430 708 689 731 692 724 732 733 81 1
 24 1584 12 10 734 0 692 179 735 84 3 730 JFK81 1 734 1288 706 10 736 24 181 731
 737 84 4 735 KFZB80 1 706 738 739 9000 0 0 0 0 3 6 0 0 0 FFTFTFTTFFFFFFFFF1 81
 1 736 1132 740 10 0 734 741 742 743 81 1 181 1287 706 26 742 179 744 734 745 81
 1 731 1289 706 689 746 728 734 727 747 82 255 3 737 4 22 1 81 1 746 1223 740 68
9 0 731 748 749 750 81 1 727 1290 706 693 748 724 731 723 751 82 3 747 4 2 2 81
 1 748 1222 740 693 0 727 752 746 753 81 1 723 1291 706 136 752 720 727 719 754
 82 3 751 4 3 2 81 1 752 1221 740 136 0 723 755 748 756 81 1 719 1292 706 129 75
5 716 723 715 757 82 3 754 4 4 2 81 1 755 1220 740 129 0 719 758 752 759 81 1 71
5 1293 706 199 758 711 719 709 760 82 3 757 4 5 2 81 1 758 1219 740 199 0 715 76
1 755 762 81 1 709 1294 706 187 761 704 715 763 764 82 3 760 4 6 2 81 1 761 1218
 740 187 0 709 765 758 766 81 1 763 1295 706 662 765 710 709 767 768 82 3 764 4
 7 2 81 1 765 1217 740 662 0 763 769 761 770 81 1 710 1424 708 662 763 665 664 7
04 771 81 1 767 1296 706 17 769 664 763 772 773 82 3 768 4 8 2 81 1 769 1216 740
 17 0 767 774 765 775 81 1 664 1423 708 17 767 661 0 710 776 81 1 772 1297 706 1
51 777 212 767 778 779 82 3 773 4 9 2 81 1 777 1155 740 151 0 772 780 781 782 81
 1 212 1575 12 151 772 0 292 661 783 81 1 778 1298 706 242 784 292 772 785 786 8
2 3 779 4 23 1 81 1 784 1168 740 242 0 778 787 788 789 81 1 292 1574 12 242 778
 0 216 212 790 81 1 785 1299 706 214 781 216 778 791 792 82 3 786 4 24 1 81 1 78
1 1156 740 214 0 785 777 793 794 81 1 216 1573 12 214 785 0 289 292 795 81 1 791
 1300 706 287 787 289 785 796 797 82 3 792 4 25 1 81 1 787 1167 740 287 0 791 79
8 784 799 81 1 289 1572 12 287 791 0 220 216 800 81 1 796 1301 706 218 793 220 7
91 801 802 82 3 797 4 26 1 81 1 793 1157 740 218 0 796 781 803 804 81 1 220 1571
 12 218 796 0 285 289 805 81 1 801 1302 706 283 798 285 796 806 807 82 3 802 4 2
7 1 81 1 798 1166 740 283 0 801 808 787 809 81 1 285 1570 12 283 801 0 224 220 8
10 81 1 806 1303 706 222 803 224 801 811 812 82 3 807 4 28 1 81 1 803 1158 740 2
22 0 806 793 813 814 81 1 224 1569 12 222 806 0 281 285 815 81 1 811 1304 706 27
9 808 281 806 816 817 82 3 812 4 29 1 81 1 808 1165 740 279 0 811 818 798 819 81
 1 281 1568 12 279 811 0 228 224 820 81 1 816 1305 706 226 813 228 811 821 822 8
2 3 817 4 30 1 81 1 813 1159 740 226 0 816 803 823 824 81 1 228 1567 12 226 816
 0 277 281 825 81 1 821 1306 706 275 818 277 816 826 827 82 3 822 4 31 1 81 1 81
8 1164 740 275 0 821 828 808 829 81 1 277 1566 12 275 821 0 232 228 830 81 1 826
 1307 706 230 823 232 821 831 832 82 3 827 4 32 1 81 1 823 1160 740 230 0 826 81
3 833 834 81 1 232 1565 12 230 826 0 273 277 835 81 1 831 1308 706 271 828 273 8
26 836 837 82 3 832 4 33 1 81 1 828 1163 740 271 0 831 838 818 839 81 1 273 1564
 12 271 831 0 236 232 840 81 1 836 1309 706 234 833 236 831 841 842 82 3 837 4 3
4 1 81 1 833 1161 740 234 0 836 823 838 843 81 1 236 1563 12 234 836 0 269 273 8
44 81 1 841 1310 706 238 838 269 836 845 846 82 3 842 4 35 1 81 1 838 1162 740 2
38 0 841 833 828 847 81 1 269 1562 12 238 841 0 265 236 848 81 1 845 1311 706 26
3 849 265 841 850 851 82 3 846 4 36 1 81 1 849 1175 740 263 0 845 852 853 854 81
 1 265 1561 12 263 845 0 261 269 855 81 1 850 1312 706 259 852 261 845 856 857 8
2 3 851 4 37 1 81 1 852 1174 740 259 0 850 858 849 859 81 1 261 1560 12 259 850
 0 257 265 860 81 1 856 1313 706 255 858 257 850 861 862 82 3 857 4 38 1 81 1 85
8 1173 740 255 0 856 863 852 864 81 1 257 1559 12 255 856 0 253 261 865 81 1 861
 1314 706 251 863 253 856 866 867 82 3 862 4 39 1 81 1 863 1172 740 251 0 861 86
8 858 869 81 1 253 1558 12 251 861 0 249 257 870 81 1 866 1315 706 247 868 249 8
61 871 872 82 3 867 4 40 1 81 1 868 1171 740 247 0 866 873 863 874 81 1 249 1557
 12 247 866 0 245 253 875 81 1 871 1316 706 243 873 245 866 876 877 82 3 872 4 4
1 1 81 1 873 1170 740 243 0 871 788 868 878 81 1 245 1556 12 243 871 0 241 249 8
79 81 1 876 1317 706 239 788 241 871 880 881 82 3 877 4 42 1 81 1 788 1169 740 2
39 0 876 784 873 882 81 1 241 1555 12 239 876 0 594 245 883 81 1 880 1318 706 54
1 884 594 876 885 886 82 3 881 4 43 1 81 1 884 1103 740 541 0 880 887 888 889 81
 1 594 1554 12 541 880 0 597 241 890 81 1 885 1319 706 595 887 597 880 891 892 8
2 3 886 4 14 0 81 1 887 1102 740 595 0 885 893 884 894 81 1 597 1553 12 595 885
 0 601 594 895 81 1 891 1320 706 599 893 601 885 896 897 82 3 892 4 15 0 81 1 89
3 1101 740 599 0 891 898 887 899 81 1 601 1552 12 599 891 0 605 597 900 81 1 896
 1321 706 603 898 605 891 901 902 82 3 897 4 16 0 81 1 898 1100 740 603 0 896 90
3 893 904 81 1 605 1551 12 603 896 0 608 601 905 81 1 901 1322 706 607 903 608 8
96 613 906 82 3 902 4 17 0 81 1 903 1099 740 607 0 901 907 898 908 81 1 608 1550
 12 607 901 0 611 605 909 81 1 613 1323 706 610 907 611 901 619 910 82 3 906 4 1
8 0 81 1 907 1098 740 610 0 613 911 903 912 81 1 619 1324 706 102 911 614 613 91
3 914 82 3 910 4 19 0 81 1 911 1097 740 102 0 619 915 907 916 81 1 913 1325 706
 50 917 591 619 918 919 82 3 914 4 20 0 81 1 917 1090 740 50 0 913 920 921 922 8
1 1 591 1547 12 50 913 0 588 614 923 81 1 918 1326 706 586 921 588 913 924 925 8
2 3 919 4 21 0 81 1 921 1091 740 586 0 918 917 926 927 81 1 588 1546 12 586 918
 0 584 591 928 81 1 924 1327 706 582 926 584 918 929 930 82 3 925 4 22 0 81 1 92
6 1092 740 582 0 924 921 931 932 81 1 584 1545 12 582 924 0 580 588 933 81 1 929
 1328 706 578 931 580 924 934 935 82 3 930 4 23 0 81 1 931 1093 740 578 0 929 92
6 936 937 81 1 580 1544 12 578 929 0 576 584 938 81 1 934 1329 706 574 936 576 9
29 939 940 82 3 935 4 24 0 81 1 936 1094 740 574 0 934 931 941 942 81 1 576 1543
 12 574 934 0 572 580 943 81 1 939 1330 706 570 941 572 934 944 945 82 3 940 4 2
5 0 81 1 941 1095 740 570 0 939 936 915 946 81 1 572 1542 12 570 939 0 569 576 9
47 81 1 944 1331 706 567 915 569 939 948 949 82 3 945 4 26 0 81 1 915 1096 740 5
67 0 944 941 911 950 81 1 569 1541 12 567 944 0 687 572 951 81 1 948 1332 706 67
0 952 953 944 954 955 82 3 949 4 27 0 81 1 952 1226 740 670 0 948 956 957 958 81
 1 953 1433 708 670 948 687 959 960 961 81 1 954 1333 706 673 957 960 948 962 96
3 82 3 955 4 10 2 81 1 957 1227 740 673 0 954 952 964 965 81 1 960 1434 708 673
 954 680 953 678 966 81 1 962 1334 706 675 964 678 954 967 968 82 3 963 4 11 2 8
1 1 964 1228 740 675 0 962 957 969 970 81 1 678 1435 708 675 962 676 960 971 972
 81 1 967 1335 706 631 969 971 962 973 974 82 3 968 4 12 2 81 1 969 1229 740 631
 0 967 964 975 976 81 1 971 1436 708 631 967 679 678 977 978 81 1 973 1336 706 6
29 975 977 967 979 980 82 3 974 4 13 2 14 629 416 981 ?626 631 627 5 684 -0 0 62
6 631 23 81 1 975 1230 740 629 0 973 969 982 983 81 1 977 1437 708 629 973 981 9
71 984 985 81 1 979 1337 706 626 982 984 973 986 987 82 3 980 4 14 2 14 626 420
 988 ?623 629 616 5 989 -0 0 623 629 23 81 1 982 1231 740 626 0 979 975 990 991
 81 1 984 1438 708 626 979 988 977 992 993 81 1 986 1338 706 623 990 992 979 994
 995 82 3 987 4 15 2 14 623 424 996 ?997 626 621 5 998 -0 0 997 626 23 81 1 990
 1232 740 623 0 986 982 999 1000 81 1 992 1439 708 623 986 996 984 1001 1002 81
 1 994 1339 706 326 1003 376 986 1004 1005 82 3 995 4 16 2 81 1 1003 1189 740 32
6 0 994 1006 1007 1008 81 1 376 1533 12 326 994 0 295 996 1009 81 1 1004 1340 70
6 267 853 295 994 1010 1011 82 3 1005 4 44 1 81 1 853 1176 740 267 0 1004 849 10
12 1013 81 1 295 1532 12 267 1004 0 373 376 1014 81 1 1010 1341 706 371 1006 373
 1004 1015 1016 82 3 1011 4 45 1 81 1 1006 1188 740 371 0 1010 1017 1003 1018 81
 1 373 1531 12 371 1010 0 299 295 1019 81 1 1015 1342 706 297 1012 299 1010 1020
 1021 82 3 1016 4 46 1 81 1 1012 1177 740 297 0 1015 853 1022 1023 81 1 299 1530
 12 297 1015 0 369 373 1024 81 1 1020 1343 706 367 1017 369 1015 1025 1026 82 3
 1021 4 47 1 81 1 1017 1187 740 367 0 1020 1027 1006 1028 81 1 369 1529 12 367 1
020 0 303 299 1029 81 1 1025 1344 706 301 1022 303 1020 1030 1031 82 3 1026 4 48
 1 81 1 1022 1178 740 301 0 1025 1012 1032 1033 81 1 303 1528 12 301 1025 0 365
 369 1034 81 1 1030 1345 706 363 1027 365 1025 1035 1036 82 3 1031 4 49 1 81 1 1
027 1186 740 363 0 1030 1037 1017 1038 81 1 365 1527 12 363 1030 0 307 303 1039
 81 1 1035 1346 706 305 1032 307 1030 1040 1041 82 3 1036 4 50 1 81 1 1032 1179
 740 305 0 1035 1022 1042 1043 81 1 307 1526 12 305 1035 0 361 365 1044 81 1 104
0 1347 706 359 1037 361 1035 1045 1046 82 3 1041 4 51 1 81 1 1037 1185 740 359 0
 1040 1047 1027 1048 81 1 361 1525 12 359 1040 0 311 307 1049 81 1 1045 1348 706
 309 1042 311 1040 1050 1051 82 3 1046 4 52 1 81 1 1042 1180 740 309 0 1045 1032
 1052 1053 81 1 311 1524 12 309 1045 0 357 361 1054 81 1 1050 1349 706 355 1047
 357 1045 1055 1056 82 3 1051 4 53 1 81 1 1047 1184 740 355 0 1050 1057 1037 105
8 81 1 357 1523 12 355 1050 0 315 311 1059 81 1 1055 1350 706 313 1052 315 1050
 1060 1061 82 3 1056 4 54 1 81 1 1052 1181 740 313 0 1055 1042 1062 1063 81 1 31
5 1522 12 313 1055 0 353 357 1064 81 1 1060 1351 706 321 1057 353 1055 1065 1066
 82 3 1061 4 55 1 81 1 1057 1183 740 321 0 1060 1062 1047 1067 81 1 353 1521 12
 321 1060 0 319 315 1068 81 1 1065 1352 706 317 1062 319 1060 452 1069 82 3 1066
 4 56 1 81 1 1062 1182 740 317 0 1065 1052 1057 1070 81 1 319 1520 12 317 1065 0
 450 353 1071 81 1 452 1353 706 410 1072 450 1065 1073 1074 82 3 1069 4 57 1 81
 1 1072 1209 740 410 0 452 1075 1076 1077 81 1 1073 1354 706 446 1075 448 452 10
78 1079 82 3 1074 4 58 1 81 1 1075 1208 740 446 0 1073 1080 1072 1081 81 1 448 1
518 12 446 1073 0 444 450 1082 81 1 1078 1355 706 442 1080 444 1073 1083 1084 82
 3 1079 4 59 1 81 1 1080 1207 740 442 0 1078 1085 1075 1086 81 1 444 1517 12 442
 1078 0 440 448 1087 81 1 1083 1356 706 438 1085 440 1078 1088 1089 82 3 1084 4
 60 1 81 1 1085 1206 740 438 0 1083 1090 1080 1091 81 1 440 1516 12 438 1083 0 4
36 444 1092 81 1 1088 1357 706 434 1090 436 1083 1093 1094 82 3 1089 4 61 1 81 1
 1090 1205 740 434 0 1088 1095 1085 1096 81 1 436 1515 12 434 1088 0 432 440 109
7 81 1 1093 1358 706 405 1095 432 1088 1098 1099 82 3 1094 4 62 1 81 1 1095 1204
 740 405 0 1093 1100 1090 1101 81 1 432 1514 12 405 1093 0 349 436 1102 81 1 109
8 1359 706 347 1103 349 1093 1104 1105 82 3 1099 4 63 1 81 1 1103 1196 740 347 0
 1098 1106 1107 1108 81 1 349 1513 12 347 1098 0 345 432 1109 81 1 1104 1360 706
 343 1106 345 1098 1110 1111 82 3 1105 4 64 1 81 1 1106 1195 740 343 0 1104 1112
 1103 1113 81 1 345 1512 12 343 1104 0 341 349 1114 81 1 1110 1361 706 339 1112
 341 1104 1115 1116 82 3 1111 4 65 1 81 1 1112 1194 740 339 0 1110 1117 1106 111
8 81 1 341 1511 12 339 1110 0 337 345 1119 81 1 1115 1362 706 335 1117 337 1110
 1120 1121 82 3 1116 4 66 1 81 1 1117 1193 740 335 0 1115 1122 1112 1123 81 1 33
7 1510 12 335 1115 0 333 341 1124 81 1 1120 1363 706 331 1122 333 1115 1125 1126
 82 3 1121 4 67 1 81 1 1122 1192 740 331 0 1120 1127 1117 1128 81 1 333 1509 12
 331 1120 0 329 337 1129 81 1 1125 1364 706 327 1127 329 1120 1130 1131 82 3 112
6 4 68 1 81 1 1127 1191 740 327 0 1125 1007 1122 1132 81 1 329 1508 12 327 1125
 0 324 333 1133 81 1 1130 1365 706 322 1007 324 1125 1134 1135 82 3 1131 4 69 1
 81 1 1007 1190 740 322 0 1130 1003 1127 1136 81 1 324 1507 12 322 1130 0 429 32
9 1137 81 1 1134 1366 706 427 774 429 1130 1138 1139 82 3 1135 4 70 1 81 1 774 1
215 740 427 0 1134 1140 769 1141 81 1 429 1506 12 427 1134 0 379 324 1142 81 1 1
138 1367 706 351 1107 379 1134 1143 1144 82 3 1139 4 71 1 81 1 1107 1197 740 351
 0 1138 1103 1145 1146 81 1 379 1505 12 351 1138 0 425 429 1147 81 1 1143 1368 7
06 423 1140 425 1138 1148 1149 82 3 1144 4 72 1 81 1 1140 1214 740 423 0 1143 11
50 774 1151 81 1 425 1504 12 423 1143 0 383 379 1152 81 1 1148 1369 706 381 1145
 383 1143 1153 1154 82 3 1149 4 73 1 81 1 1145 1198 740 381 0 1148 1107 1155 115
6 81 1 383 1503 12 381 1148 0 421 425 1157 81 1 1153 1370 706 419 1150 421 1148
 1158 1159 82 3 1154 4 74 1 81 1 1150 1213 740 419 0 1153 1160 1140 1161 81 1 42
1 1502 12 419 1153 0 387 383 1162 81 1 1158 1371 706 385 1155 387 1153 1163 1164
 82 3 1159 4 75 1 81 1 1155 1199 740 385 0 1158 1145 1165 1166 81 1 387 1501 12
 385 1158 0 417 421 1167 81 1 1163 1372 706 415 1160 417 1158 1168 1169 82 3 116
4 4 76 1 81 1 1160 1212 740 415 0 1163 1170 1150 1171 81 1 417 1500 12 415 1163
 0 391 387 1172 81 1 1168 1373 706 389 1165 391 1163 1173 1174 82 3 1169 4 77 1
 81 1 1165 1200 740 389 0 1168 1155 1175 1176 81 1 391 1499 12 389 1168 0 413 41
7 1177 81 1 1173 1374 706 411 1170 413 1168 1178 1179 82 3 1174 4 78 1 81 1 1170
 1211 740 411 0 1173 1076 1160 1180 81 1 413 1498 12 411 1173 0 395 391 1181 81
 1 1178 1375 706 393 1175 395 1173 1182 1183 82 3 1179 4 79 1 81 1 1175 1201 740
 393 0 1178 1165 1184 1185 81 1 395 1497 12 393 1178 0 408 413 1186 81 1 1182 13
76 706 406 1076 408 1178 1187 1188 82 3 1183 4 80 1 81 1 1076 1210 740 406 0 118
2 1072 1170 1189 81 1 408 1496 12 406 1182 0 399 395 1190 81 1 1187 1377 706 397
 1184 399 1182 1191 1192 82 3 1188 4 81 1 81 1 1184 1202 740 397 0 1187 1175 110
0 1193 81 1 399 1495 12 397 1187 0 403 408 1194 81 1 1191 1378 706 401 1100 403
 1187 1195 1196 82 3 1192 4 82 1 81 1 1100 1203 740 401 0 1191 1184 1095 1197 81
 1 403 1494 12 401 1191 0 543 399 1198 81 1 1195 1379 706 496 1199 543 1191 1200
 1201 82 3 1196 4 83 1 81 1 1199 1117 740 496 0 1195 1202 1203 1204 81 1 543 149
3 12 496 1195 0 547 403 1205 81 1 1200 1380 706 545 1202 547 1195 1206 1207 82 3
 1201 4 28 0 81 1 1202 1116 740 545 0 1200 1208 1199 1209 81 1 547 1492 12 545 1
200 0 551 543 1210 81 1 1206 1381 706 549 1208 551 1200 1211 1212 82 3 1207 4 29
 0 81 1 1208 1115 740 549 0 1206 1213 1202 1214 81 1 551 1491 12 549 1206 0 555
 547 1215 81 1 1211 1382 706 553 1213 555 1206 1216 1217 82 3 1212 4 30 0 81 1 1
213 1114 740 553 0 1211 1218 1208 1219 81 1 555 1490 12 553 1211 0 559 551 1220
 81 1 1216 1383 706 557 1218 559 1211 1221 1222 82 3 1217 4 31 0 81 1 1218 1113
 740 557 0 1216 1223 1213 1224 81 1 559 1489 12 557 1216 0 563 555 1225 81 1 122
1 1384 706 561 1223 563 1216 1226 1227 82 3 1222 4 32 0 81 1 1223 1112 740 561 0
 1221 1228 1218 1229 81 1 563 1488 12 561 1221 0 566 559 1230 81 1 1226 1385 706
 518 1228 566 1221 1231 1232 82 3 1227 4 33 0 81 1 1228 1111 740 518 0 1226 1233
 1223 1234 81 1 566 1487 12 518 1226 0 540 563 1235 81 1 1231 1386 706 538 888 5
40 1226 1236 1237 82 3 1232 4 34 0 81 1 888 1104 740 538 0 1231 884 1238 1239 81
 1 540 1486 12 538 1231 0 536 566 1240 81 1 1236 1387 706 534 1238 536 1231 1241
 1242 82 3 1237 4 35 0 81 1 1238 1105 740 534 0 1236 888 1243 1244 81 1 536 1485
 12 534 1236 0 532 540 1245 81 1 1241 1388 706 530 1243 532 1236 1246 1247 82 3
 1242 4 36 0 81 1 1243 1106 740 530 0 1241 1238 1248 1249 81 1 532 1484 12 530 1
241 0 528 536 1250 81 1 1246 1389 706 526 1248 528 1241 1251 1252 82 3 1247 4 37
 0 81 1 1248 1107 740 526 0 1246 1243 1253 1254 81 1 528 1483 12 526 1246 0 524
 532 1255 81 1 1251 1390 706 522 1253 524 1246 1256 1257 82 3 1252 4 38 0 81 1 1
253 1108 740 522 0 1251 1248 1258 1259 81 1 524 1482 12 522 1251 0 520 528 1260
 81 1 1256 1391 706 517 1258 520 1251 1261 1262 82 3 1257 4 39 0 81 1 1258 1109
 740 517 0 1256 1253 1233 1263 81 1 520 1481 12 517 1256 0 516 524 1264 81 1 126
1 1392 706 514 1233 516 1256 1265 1266 82 3 1262 4 40 0 81 1 1233 1110 740 514 0
 1261 1258 1228 1267 81 1 516 1480 12 514 1261 0 498 520 1268 81 1 1265 1393 706
 467 741 498 1261 1269 1270 82 3 1266 4 41 0 81 1 741 1131 740 467 0 1265 1271 7
36 1272 81 1 498 1479 12 467 1265 0 462 516 1273 81 1 1269 1394 706 455 1274 462
 1265 472 1275 82 3 1270 4 42 0 81 1 1274 1123 740 455 0 1269 1276 1277 1278 81
 1 462 1478 12 455 1269 0 469 498 1279 81 1 472 1395 706 460 1277 469 1269 1280
 1281 82 3 1275 4 43 0 81 1 1277 1124 740 460 0 472 1274 1282 1283 81 1 1280 139
6 706 457 1276 473 472 1284 1285 82 3 1281 4 44 0 81 1 1276 1122 740 457 0 1280
 1286 1274 1287 81 1 473 1476 12 457 1280 0 502 469 1288 81 1 1284 1397 706 500
 1271 502 1280 1289 1290 82 3 1285 4 45 0 81 1 1271 1130 740 500 0 1284 1291 741
 1292 81 1 502 1475 12 500 1284 0 483 473 1293 81 1 1289 1398 706 481 1286 483 1
284 1294 1295 82 3 1290 4 46 0 81 1 1286 1121 740 481 0 1289 1296 1276 1297 81 1
 483 1474 12 481 1289 0 505 502 1298 81 1 1294 1399 706 503 1291 505 1289 1299 1
300 82 3 1295 4 47 0 81 1 1291 1129 740 503 0 1294 1301 1271 1302 81 1 505 1473
 12 503 1294 0 487 483 1303 81 1 1299 1400 706 485 1296 487 1294 1304 1305 82 3
 1300 4 48 0 81 1 1296 1120 740 485 0 1299 1306 1286 1307 81 1 487 1472 12 485 1
299 0 508 505 1308 81 1 1304 1401 706 506 1301 508 1299 1309 1310 82 3 1305 4 49
 0 81 1 1301 1128 740 506 0 1304 1311 1291 1312 81 1 508 1471 12 506 1304 0 491
 487 1313 81 1 1309 1402 706 489 1306 491 1304 1314 1315 82 3 1310 4 50 0 81 1 1
306 1119 740 489 0 1309 1203 1296 1316 81 1 491 1470 12 489 1309 0 511 508 1317
 81 1 1314 1403 706 509 1311 511 1309 1318 1319 82 3 1315 4 51 0 81 1 1311 1127
 740 509 0 1314 1320 1301 1321 81 1 511 1469 12 509 1314 0 495 491 1322 81 1 131
8 1404 706 493 1203 495 1314 1323 1324 82 3 1319 4 52 0 81 1 1203 1118 740 493 0
 1318 1199 1306 1325 81 1 495 1468 12 493 1318 0 512 511 1326 81 1 1323 1405 706
 476 1320 512 1318 1327 1328 82 3 1324 4 53 0 81 1 1320 1126 740 476 0 1323 1282
 1311 1329 81 1 512 1467 12 476 1323 0 475 495 1330 81 1 1327 1406 706 470 1282
 475 1323 1331 1332 82 3 1328 4 54 0 81 1 1282 1125 740 470 0 1327 1277 1320 133
3 81 1 475 1466 12 470 1327 0 1334 512 1335 81 1 1331 1407 706 997 999 1001 1327
 1336 1337 82 3 1332 4 55 0 14 997 685 1334 ?1338 623 1339 5 1340 -0 0 1338 623
 23 81 1 999 1233 740 997 0 1331 990 1341 1342 81 1 1001 1440 708 997 1331 1334
 992 1343 1344 81 1 1336 1408 706 1338 1341 1343 1331 1345 1346 82 3 1337 4 17 2
 14 1338 690 1347 ?1348 997 1349 5 1350 -0 0 1348 997 23 81 1 1341 1234 740 1338
 0 1336 999 1351 1352 81 1 1343 1441 708 1338 1336 1347 1001 1353 1354 81 1 1345
 1409 706 1348 1351 1353 1336 1355 1356 82 3 1346 4 18 2 14 1348 694 1357 ?1358
 1338 1359 5 1360 -0 0 1358 1338 23 81 1 1351 1235 740 1348 0 1345 1341 1361 136
2 81 1 1353 1442 708 1348 1345 1357 1343 1363 1364 81 1 1355 1410 706 1358 1361
 1363 1345 1365 1366 82 3 1356 4 19 2 14 1358 698 1367 ?1368 1348 1369 5 1370 -0
 0 1368 1348 23 81 1 1361 1236 740 1358 0 1355 1351 1371 1372 81 1 1363 1443 708
 1358 1355 1367 1353 1373 1374 81 1 1365 1411 706 1368 1371 1373 1355 1375 1376
 82 3 1366 4 20 2 14 1368 702 1377 ?1378 1358 1379 5 1380 -0 0 1378 1358 23 81 1
 1371 1237 740 1368 0 1365 1361 1381 1382 81 1 1373 1444 708 1368 1365 1377 1363
 1383 1384 81 1 1375 1412 706 1378 1381 1383 1365 1385 1386 82 3 1376 4 21 2 14
 1378 706 1387 ?659 1368 1388 5 1389 -0 0 659 1368 23 81 1 1381 1238 740 1378 0
 1375 1371 1390 1391 81 1 1383 1445 708 1378 1375 1387 1373 1392 1393 81 1 1385
 1413 706 659 1390 1392 1375 1394 1395 82 3 1386 4 22 2 14 659 710 1396 ?466 137
8 1397 5 1398 -0 0 466 1378 23 81 1 1390 1239 740 659 0 1385 1381 1399 1400 81 1
 1392 1446 708 659 1385 1396 1383 1401 1402 81 1 1394 1414 706 466 1399 1401 138
5 1403 1404 82 3 1395 4 23 2 81 1 1399 1240 740 466 0 1394 1390 1405 1406 81 1 1
401 1447 708 466 1394 656 1392 654 1407 81 1 1403 1415 706 651 1405 654 1394 140
8 1409 82 3 1404 4 24 2 81 1 1405 1241 740 651 0 1403 1399 1410 1411 81 1 654 14
48 708 651 1403 652 1401 1412 1413 81 1 1408 1416 706 648 1410 1412 1403 1414 14
15 82 3 1409 4 25 2 81 1 1410 1242 740 648 0 1408 1405 1416 1417 81 1 1412 1449
 708 648 1408 655 654 1418 1419 81 1 1414 1417 706 645 1416 1418 1408 1420 1421
 82 3 1415 4 26 2 14 645 740 1422 ?641 648 643 5 1423 -0 0 641 648 23 81 1 1416
 1243 740 645 0 1414 1410 1424 1425 81 1 1418 1450 708 645 1414 1422 1412 1426 1
427 81 1 1420 1418 706 641 1424 1426 1414 1428 1429 82 3 1421 4 27 2 14 641 744
 1430 ?636 645 640 5 1431 -0 0 636 645 23 81 1 1424 1244 740 641 0 1420 1416 143
2 1433 81 1 1426 1451 708 641 1420 1430 1418 1434 1435 81 1 1428 1419 706 636 14
32 1434 1420 0 1436 82 3 1429 4 28 2 14 636 748 1437 ?0 641 635 5 1438 -0 0 0 64
1 23 81 1 1432 1245 740 636 0 1428 1424 1439 1440 81 1 1434 1452 708 636 1428 14
37 1426 0 1441 82 3 1436 4 29 2 80 1 708 0 1442 8001 0 0 0 0 3 5 0 0 0 FFFFTFTFF
FFFFFFFF2 81 1 1437 1453 12 636 1434 0 0 1430 1443 83 255 3 1441 .79215686274509
8 .819607843137255 .933333333333333 81 1 1430 1454 12 641 1426 0 1437 1422 1444
 84 4 1443 KF2B81 1 1422 1455 12 645 1418 0 1430 655 1445 84 4 1444 KFyB81 1 655
 1456 12 648 1412 0 1422 652 1446 84 4 1445 KFuB84 4 1446 KFqB79 255 15 1442 SDL
/TYSA_COLOUR80 1 740 1447 1448 9000 0 0 0 0 3 5 0 0 0 FFTFTFTTFFFFFFFFF2 81 1 14
39 1246 740 1 0 1449 1432 0 1450 83 1 1440 169 81 1 1449 1247 1451 1 1439 1452 0
 0 1453 83 1 1450 -.5 80 1 1451 740 1454 9000 0 0 0 0 3 5 0 0 0 FFTFTFTTFFFFFFFF
F2 81 1 1452 1249 706 1 1449 1455 0 1456 1457 83 1 1453 169 81 1 1455 1420 1458
 1 1452 1459 0 0 1460 81 1 1456 1250 706 118 749 732 1452 1461 1462 82 3 1457 4
 0 3 81 1 749 1224 740 118 0 1456 746 956 1463 81 1 732 1431 708 118 1456 14 728
 959 1464 81 1 1461 1251 706 97 1465 210 1456 1466 1467 82 3 1462 4 0 2 81 1 146
5 1146 740 97 0 1461 1468 1469 1470 81 1 210 1621 12 97 1461 0 208 14 1471 81 1
 1466 1252 706 204 1468 208 1461 1472 1473 82 3 1467 4 0 1 81 1 1468 1145 740 20
4 0 1466 1474 1465 1475 81 1 208 1620 12 204 1466 0 202 210 1476 81 1 1472 1253
 706 189 1474 202 1466 201 1477 82 3 1473 4 1 1 81 1 1474 1144 740 189 0 1472 14
78 1468 1479 81 1 202 1619 12 189 1472 0 200 208 1480 81 1 201 1254 706 122 1478
 200 1472 1481 1482 82 3 1477 4 2 1 81 1 1478 1143 740 122 0 201 1483 1474 1484
 81 1 1481 1255 706 116 1483 126 201 139 1485 82 3 1482 4 3 1 81 1 1483 1142 740
 116 0 1481 1486 1478 1487 81 1 126 1617 12 116 1481 0 137 200 1488 81 1 139 125
6 706 120 1486 137 1481 1489 1490 82 3 1485 4 4 1 81 1 1486 1141 740 120 0 139 1
491 1483 1492 81 1 1489 1257 706 39 1491 140 139 1493 1494 82 3 1490 4 5 1 81 1
 1491 1140 740 39 0 1489 1495 1486 1496 81 1 140 1615 12 39 1489 0 92 137 1497 8
1 1 1493 1258 706 142 1495 92 1489 90 1498 82 3 1494 4 6 1 81 1 1495 1139 740 14
2 0 1493 1499 1491 1500 81 1 92 1614 12 142 1493 0 86 140 1501 81 1 90 1259 706
 78 1502 86 1493 1503 1504 82 3 1498 4 7 1 81 1 1502 1082 740 78 0 90 1505 1506
 1507 81 1 1503 1260 706 88 1505 91 90 1508 1509 82 3 1504 4 0 0 81 1 1505 1081
 740 88 0 1503 1510 1502 1511 81 1 91 1612 12 88 1503 0 106 86 1512 81 1 1508 12
61 706 99 1510 106 1503 1513 1514 82 3 1509 4 1 0 81 1 1510 1080 740 99 0 1508 1
515 1505 1516 81 1 106 1611 12 99 1508 0 109 91 1517 81 1 1513 1262 706 108 1515
 109 1508 113 1518 82 3 1514 4 2 0 81 1 1515 1079 740 108 0 1513 1519 1510 1520
 81 1 109 1610 12 108 1513 0 111 106 1521 81 1 113 1263 706 41 1519 111 1513 152
2 1523 82 3 1518 4 3 0 81 1 1519 1078 740 41 0 113 1524 1515 1525 81 1 1522 1264
 706 29 1524 33 113 31 1526 82 3 1523 4 4 0 81 1 1524 1077 740 29 0 1522 1527 15
19 1528 81 1 33 1608 12 29 1522 0 27 111 1529 81 1 31 1265 706 11 1527 27 1522 1
530 1531 82 3 1526 4 5 0 81 1 1527 1076 740 11 0 31 0 1524 1532 81 1 1530 1266 7
06 196 956 959 31 1533 1534 82 3 1531 4 6 0 81 1 956 1225 740 196 0 1530 749 952
 1535 81 1 959 1432 708 196 1530 32 732 953 1536 81 1 1533 1267 706 166 1469 168
 1530 1537 1538 82 3 1534 4 1 2 81 1 1469 1147 740 166 0 1533 1465 1539 1540 81
 1 168 1605 12 166 1533 0 165 32 1541 81 1 1537 1268 706 84 1539 165 1533 1542 1
543 82 3 1538 4 8 1 81 1 1539 1148 740 84 0 1537 1469 1544 1545 81 1 165 1604 12
 84 1537 0 163 168 1546 81 1 1542 1269 706 75 1544 163 1537 1547 1548 82 3 1543
 4 9 1 81 1 1544 1149 740 75 0 1542 1539 1549 1550 81 1 163 1603 12 75 1542 0 16
1 165 1551 81 1 1547 1270 706 131 1549 161 1542 1552 1553 82 3 1548 4 10 1 81 1
 1549 1150 740 131 0 1547 1544 1554 1555 81 1 161 1602 12 131 1547 0 159 163 155
6 81 1 1552 1271 706 157 1554 159 1547 1557 1558 82 3 1553 4 11 1 81 1 1554 1151
 740 157 0 1552 1549 1559 1560 81 1 159 1601 12 157 1552 0 156 161 1561 81 1 155
7 1272 706 154 1559 156 1552 1562 1563 82 3 1558 4 12 1 81 1 1559 1152 740 154 0
 1557 1554 1564 1565 81 1 156 1600 12 154 1557 0 153 159 1566 81 1 1562 1273 706
 150 1564 153 1557 1567 1568 82 3 1563 4 13 1 81 1 1564 1153 740 150 0 1562 1559
 780 1569 81 1 153 1599 12 150 1562 0 80 156 1570 81 1 1567 1274 706 148 780 80
 1562 79 1571 82 3 1568 4 14 1 81 1 780 1154 740 148 0 1567 1564 777 1572 81 1 8
0 1598 12 148 1567 0 69 153 1573 81 1 79 1275 706 21 1506 69 1567 68 1574 82 3 1
571 4 15 1 81 1 1506 1083 740 21 0 79 1502 1575 1576 81 1 68 1276 706 65 1575 66
 79 1577 1578 82 3 1574 4 7 0 81 1 1575 1084 740 65 0 68 1506 1579 1580 81 1 157
7 1277 706 62 1579 63 68 1581 1582 82 3 1578 4 8 0 81 1 1579 1085 740 62 0 1577
 1575 1583 1584 81 1 63 1595 12 62 1577 0 60 66 1585 81 1 1581 1278 706 58 1583
 60 1577 1586 1587 82 3 1582 4 9 0 81 1 1583 1086 740 58 0 1581 1579 1588 1589 8
1 1 60 1594 12 58 1581 0 56 63 1590 81 1 1586 1279 706 54 1588 56 1581 1591 1592
 82 3 1587 4 10 0 81 1 1588 1087 740 54 0 1586 1583 1593 1594 81 1 56 1593 12 54
 1586 0 52 60 1595 81 1 1591 1280 706 49 1593 52 1586 1596 1597 82 3 1592 4 11 0
 81 1 1593 1088 740 49 0 1591 1588 920 1598 81 1 52 1592 12 49 1591 0 47 56 1599
 81 1 1596 1281 706 45 920 47 1591 1600 1601 82 3 1597 4 12 0 81 1 920 1089 740
 45 0 1596 1593 917 1602 81 1 47 1591 12 45 1596 0 171 52 1603 81 1 1600 1282 70
6 147 1499 171 1596 1604 1605 82 3 1601 4 13 0 81 1 1499 1138 740 147 0 1600 160
6 1495 1607 81 1 171 1590 12 147 1600 0 172 47 1608 81 1 1604 1283 706 134 1606
 172 1600 1609 1610 82 3 1605 4 16 1 81 1 1606 1137 740 134 0 1604 1611 1499 161
2 81 1 172 1589 12 134 1604 0 132 171 1613 81 1 1609 1284 706 128 1611 132 1604
 1614 1615 82 3 1610 4 17 1 81 1 1611 1136 740 128 0 1609 1616 1606 1617 81 1 13
2 1588 12 128 1609 0 175 172 1618 81 1 1614 1285 706 133 1616 175 1609 744 1619
 82 3 1615 4 18 1 81 1 1616 1135 740 133 0 1614 1620 1611 1621 81 1 175 1587 12
 133 1614 0 177 132 1622 81 1 744 1286 706 176 1620 177 1614 181 1623 82 3 1619
 4 19 1 81 1 1620 1134 740 176 0 744 742 1616 1624 81 1 177 1586 12 176 744 0 17
9 175 1625 82 3 1623 4 20 1 84 4 1625 KFRB81 1 742 1133 740 26 0 181 736 1620 16
26 83 1 1624 58 83 1 1626 57 84 4 1622 KFNB83 1 1621 59 84 4 1618 KFJB83 1 1617
 60 84 4 1613 KFFB83 1 1612 61 84 4 1608 KFBB83 1 1607 62 84 3 1603 JF083 1 1602
 13 84 3 1599 JFw83 1 1598 12 84 3 1595 JFs83 1 1594 11 84 3 1590 JFo83 1 1589 1
0 84 3 1585 JFk83 1 1584 9 83 1 1580 8 83 1 1576 7 84 3 1573 JF983 1 1572 78 84
 3 1570 JF583 1 1569 77 84 3 1566 JF183 1 1565 76 84 3 1561 JFx83 1 1560 75 84 3
 1556 JFt83 1 1555 74 84 3 1551 JFp83 1 1550 73 84 3 1546 JFl83 1 1545 72 81 1 3
2 1606 12 196 959 0 168 27 1627 84 3 1541 JFh84 3 1627 JFG83 1 1540 71 83 3 1536
 .792156862745098 .819607843137255 .933333333333333 83 1 1535 149 83 1 1532 0 84
 3 1529 JFU83 1 1528 1 83 1 1525 2 84 3 1521 JFM83 1 1520 3 84 3 1517 JFI83 1 15
16 4 84 3 1512 JFE83 1 1511 5 83 1 1507 6 84 3 1501 JFd83 1 1500 63 84 3 1497 JF
Z83 1 1496 64 83 1 1492 65 84 3 1488 JFR83 1 1487 66 83 1 1484 67 84 3 1480 JFJ8
3 1 1479 68 84 3 1476 JFF83 1 1475 69 81 1 14 1622 12 118 732 0 210 2 1628 84 3
 1471 JFB84 3 1628 JFC83 1 1470 70 83 3 1464 .792156862745098 .819607843137255 .
933333333333333 83 1 1463 148 80 1 1458 1629 1630 8038 0 0 0 0 0 0 0 0 0 TTTTTTT
TTTTTTFTFT10 81 1 1459 1421 1629 1 1455 13 0 0 1631 98 255 8 1460 109 121 95 109
 111 100 101 108 80 1 1629 1632 1633 8017 0 0 0 0 0 0 0 0 0 TTTTTTTTTTTTTFTFT3 8
1 1 13 1422 1634 1 1459 2 0 0 1635 84 8 1631 my_model80 1 1634 708 1636 8040 0 0
 0 0 3 5 0 0 0 TTTFFFFFFFFFFFFFF2 83 3 1635 .792156862745098 .819607843137255 .9
33333333333333 79 17 1636 SDL/TYSA_COLOUR_279 13 1633 SDL/TYSA_NAME79 14 1630 SD
L/TYSA_UNAME79 18 1454 BTI/importMaxCount79 13 1448 BTI/importTag50 1438 774 0 6
36 0 1431 0 +-.054 .2 -.056 -653144959545255e-31 0 -1 -1 0 653144959545255e-31 5
1 1431 773 0 641 1438 1423 0 +-.054 .2 -.054 0 -1 0 .002 653144959545255e-31 0 1
 50 1423 772 0 645 1431 658 0 +-.056 .2 -.042 -1 0 653144959545255e-31 653144959
545255e-31 0 1 50 658 771 0 648 1423 653 0 +-.06 .2 -.042 -653144959545255e-31 0
 -1 -1 0 653144959545255e-31 83 3 1435 .792156862745098 .819607843137255 .933333
333333333 83 1 1433 168 83 3 1427 .792156862745098 .819607843137255 .93333333333
3333 83 1 1425 167 83 3 1419 .792156862745098 .819607843137255 .933333333333333
 83 1 1417 166 83 3 1413 .792156862745098 .819607843137255 .933333333333333 83 1
 1411 165 81 1 656 1458 12 466 1401 0 652 1396 1637 83 3 1407 .792156862745098 .
819607843137255 .933333333333333 81 1 1396 1459 12 659 1392 0 656 1387 1638 84 4
 1637 KFiB81 1 1387 1460 12 1378 1383 0 1396 1377 1639 84 4 1638 KFeB81 1 1377 1
461 12 1368 1373 0 1387 1367 1640 84 4 1639 KFaB81 1 1367 1462 12 1358 1363 0 13
77 1357 1641 84 4 1640 KFWB81 1 1357 1463 12 1348 1353 0 1367 1347 1642 84 4 164
1 KFSB81 1 1347 1464 12 1338 1343 0 1357 1334 1643 84 4 1642 KFOB81 1 1334 1465
 12 997 1001 0 1347 475 1644 84 4 1643 KFKB84 4 1644 KFGB83 1 1406 164 83 3 1402
 .792156862745098 .819607843137255 .933333333333333 83 1 1400 163 15 1397 713 0
 564 659 0 50 1398 765 0 659 660 1389 0 +.054 .2 -.056 -653144959545255e-31 0 -1
 1 0 -653144959545255e-31 51 660 769 0 466 653 1398 0 --.054 .2 -.054 0 -1 0 .00
6 653144959545255e-31 0 1 51 1389 764 0 1378 1398 1380 0 +.054 .2 -.054 0 -1 0 .
002 653144959545255e-31 0 1 50 1380 763 0 1368 1389 1370 0 +.056 .2 -.042 1 0 -6
53144959545255e-31 653144959545255e-31 0 1 50 1370 762 0 1358 1380 1360 0 +.06 .
2 -.042 -653144959545255e-31 0 -1 1 0 -653144959545255e-31 50 1360 761 0 1348 13
70 1350 0 +.06 .2 -.054 -1 0 653144959545255e-31 -653144959545255e-31 0 -1 51 13
50 760 0 1338 1360 1340 0 -.054 .2 -.054 0 -1 0 .006 653144959545255e-31 0 1 50
 1340 759 0 997 1350 998 0 +-391886975727153e-32 .2 -.06 -631835393030158e-31 0
 1 -1 0 -631835393030158e-31 50 998 447 0 623 1340 989 0 +-.015 .2 .056 1 0 0 0
 0 1 50 989 446 0 626 998 684 0 +-.054 .2 .056 0 0 1 -1 0 0 51 684 445 0 629 989
 682 0 +-.054 .2 .054 0 -1 0 .002 0 0 -1 17 564 0 1397 1645 320 561 325 322 0 31
6 -17 1645 0 1397 354 564 534 316 313 0 358 -17 320 0 1397 564 354 518 1646 317
 0 325 +17 325 0 192 1647 330 518 564 322 0 0 +17 316 0 1388 560 358 561 1645 31
3 0 330 +15 1388 709 0 560 1378 0 17 560 0 1388 1648 316 557 330 327 0 312 -17 3
58 0 1388 316 1648 534 533 355 0 0 +17 330 0 192 325 334 561 560 327 0 0 +17 334
 0 192 330 338 557 556 331 0 0 +17 338 0 192 334 342 553 552 335 0 0 +17 556 0 1
379 1649 312 553 334 331 0 308 -15 1379 705 0 556 1368 0 17 1649 0 1379 362 556
 526 308 305 0 366 -17 312 0 1379 556 362 557 1648 309 0 334 +17 308 0 1369 552
 366 553 1649 305 0 338 +15 1369 701 0 552 1358 0 17 552 0 1369 1650 308 549 338
 335 0 304 -17 366 0 1369 308 1650 526 525 363 0 0 +17 1650 0 1369 366 552 522 3
04 301 0 370 -17 525 0 35 521 529 522 366 363 0 1650 -17 521 0 35 459 525 517 37
0 367 0 1651 -17 529 0 35 525 533 526 362 359 0 1649 -17 533 0 35 529 537 530 35
8 355 0 1648 -17 362 0 1379 312 1649 530 529 359 0 0 +17 537 0 35 533 36 534 354
 321 0 1645 -17 1648 0 1388 358 560 530 312 309 0 362 -17 36 0 35 537 28 538 165
2 142 0 1646 +17 354 0 1397 320 1645 538 537 321 0 0 +17 1652 0 694 85 1646 11 3
6 142 0 0 -17 1646 0 694 1652 169 538 320 317 0 354 -15 694 185 0 169 689 0 17 1
69 0 694 1646 85 518 1647 166 0 320 +17 85 0 694 169 1652 21 40 147 0 1647 +17 1
647 0 192 83 325 21 169 166 0 0 -17 83 0 192 74 1647 65 77 84 0 0 -17 74 0 192 1
30 83 62 67 75 0 0 -17 40 0 82 38 77 11 85 147 0 1652 -15 82 187 0 77 693 0 17 3
8 0 82 76 40 29 28 39 0 0 -17 76 0 82 77 38 65 72 134 0 83 +17 459 0 35 454 521
 514 374 371 0 1653 -17 370 0 1359 304 1651 522 521 367 0 0 +17 1651 0 1359 370
 548 517 300 297 0 374 -15 1359 697 0 548 1348 0 17 548 0 1359 1651 304 545 342
 339 0 300 -17 300 0 1349 544 374 545 1651 297 0 346 +17 374 0 1349 300 1653 517
 459 371 0 0 +15 1349 693 0 544 1338 0 17 1653 0 1349 374 544 514 296 267 0 377
 -17 544 0 1349 1653 300 496 346 343 0 296 -17 296 0 1339 468 377 496 1653 267 0
 350 +17 377 0 1339 296 461 514 454 326 0 0 +15 1339 689 0 468 997 0 17 461 0 13
39 377 468 460 380 351 0 0 -17 468 0 1339 461 296 467 350 347 0 0 -17 350 0 192
 346 499 496 468 347 0 0 +17 346 0 192 342 350 545 544 343 0 0 +17 342 0 192 338
 346 549 548 339 0 0 +17 304 0 1359 548 370 549 1650 301 0 342 +83 3 1393 .79215
6862745098 .819607843137255 .933333333333333 83 1 1391 162 83 3 1384 .7921568627
45098 .819607843137255 .933333333333333 83 1 1382 161 83 3 1374 .792156862745098
 .819607843137255 .933333333333333 83 1 1372 160 83 3 1364 .792156862745098 .819
607843137255 .933333333333333 83 1 1362 159 83 3 1354 .792156862745098 .81960784
3137255 .933333333333333 83 1 1352 158 83 3 1344 .792156862745098 .8196078431372
55 .933333333333333 83 1 1342 157 84 4 1335 KFcD83 1 1333 49 84 4 1330 KFYD83 1
 1329 50 84 4 1326 KFUD83 1 1325 42 84 4 1322 KFQD83 1 1321 51 84 4 1317 KFMD83
 1 1316 43 84 4 1313 KFID83 1 1312 52 84 4 1308 KFED83 1 1307 44 84 4 1303 KFAD8
3 1 1302 53 84 4 1298 KF8C83 1 1297 45 84 4 1293 KF4C83 1 1292 54 84 4 1288 KF0C
83 1 1287 46 83 1 1283 48 84 4 1279 KFsC83 1 1278 47 84 4 1273 KFoC83 1 1272 55
 84 4 1268 KFkC83 1 1267 34 84 4 1264 KFgC83 1 1263 33 84 4 1260 KFcC83 1 1259 3
2 84 4 1255 KFYC83 1 1254 31 84 4 1250 KFUC83 1 1249 30 84 4 1245 KFQC83 1 1244
 29 84 4 1240 KFMC83 1 1239 28 84 4 1235 KFIC83 1 1234 35 84 4 1230 KFEC83 1 122
9 36 84 4 1225 KFAC83 1 1224 37 84 4 1220 KF8B83 1 1219 38 84 4 1215 KF4B83 1 12
14 39 84 4 1210 KF0B83 1 1209 40 84 4 1205 KFwB83 1 1204 41 84 4 1198 KFNF83 1 1
197 127 84 4 1194 KFJF83 1 1193 126 84 4 1190 KFFF83 1 1189 134 84 4 1186 KFBF83
 1 1185 125 84 4 1181 KF9E83 1 1180 135 84 4 1177 KF5E83 1 1176 124 84 4 1172 KF
1E83 1 1171 136 84 4 1167 KFxE83 1 1166 123 84 4 1162 KFtE83 1 1161 137 84 4 115
7 KFpE83 1 1156 122 84 4 1152 KFlE83 1 1151 138 84 4 1147 KFhE83 1 1146 121 84 4
 1142 KFdE83 1 1141 139 84 4 1137 KFZE83 1 1136 114 84 4 1133 KFVE83 1 1132 115
 84 4 1129 KFRE83 1 1128 116 84 4 1124 KFNE83 1 1123 117 84 4 1119 KFJE83 1 1118
 118 84 4 1114 KFFE83 1 1113 119 84 4 1109 KFBE83 1 1108 120 84 4 1102 KF9D83 1
 1101 128 84 4 1097 KF5D83 1 1096 129 84 4 1092 KF1D83 1 1091 130 84 4 1087 KFxD
83 1 1086 131 84 4 1082 KFtD83 1 1081 132 83 1 1077 133 84 4 1071 KFlD83 1 1070
 106 84 4 1068 KFhD83 1 1067 107 84 4 1064 KFdD83 1 1063 105 84 4 1059 KFZD83 1
 1058 108 84 4 1054 KFVD83 1 1053 104 84 4 1049 KFRD83 1 1048 109 84 4 1044 KFND
83 1 1043 103 84 4 1039 KFJD83 1 1038 110 84 4 1034 KFFD83 1 1033 102 84 4 1029
 KFBD83 1 1028 111 84 4 1024 KF9C83 1 1023 101 84 4 1019 KF5C83 1 1018 112 84 4
 1014 KF1C83 1 1013 1e2 81 1 996 1534 12 623 992 0 376 988 1654 84 4 1009 KFxC81
 1 988 1535 12 626 984 0 996 981 1655 84 4 1654 KFCB81 1 981 1536 12 629 977 0 9
88 679 1656 84 3 1655 JF+81 1 679 1537 12 631 971 0 981 676 1657 84 3 1656 JF684
 3 1657 JF283 1 1008 113 83 3 1002 .792156862745098 .819607843137255 .9333333333
33333 83 1 1000 156 83 3 993 .792156862745098 .819607843137255 .933333333333333
 83 1 991 155 83 3 985 .792156862745098 .819607843137255 .933333333333333 83 1 9
83 154 83 3 978 .792156862745098 .819607843137255 .933333333333333 83 1 976 153
 83 3 972 .792156862745098 .819607843137255 .933333333333333 83 1 970 152 81 1 6
80 1539 12 673 960 0 676 687 1658 83 3 966 .792156862745098 .819607843137255 .93
3333333333333 81 1 687 1540 12 670 953 0 680 569 1659 84 3 1658 JFu84 3 1659 JFq
83 1 965 151 83 3 961 .792156862745098 .819607843137255 .933333333333333 83 1 95
8 150 84 4 951 KFsB83 1 950 20 84 4 947 KFoB83 1 946 19 84 4 943 KFkB83 1 942 18
 84 4 938 KFgB83 1 937 17 84 4 933 KFcB83 1 932 16 84 4 928 KFYB83 1 927 15 84 4
 923 KFUB83 1 922 14 83 1 916 21 83 1 912 22 84 4 909 KFIB83 1 908 23 84 4 905 K
FEB83 1 904 24 84 4 900 KFAB83 1 899 25 84 3 895 JF883 1 894 26 84 3 890 JF483 1
 889 27 84 4 883 KFtC83 1 882 93 84 4 879 KFpC83 1 878 94 84 4 875 KFlC83 1 874
 95 84 4 870 KFhC83 1 869 96 84 4 865 KFdC83 1 864 97 84 4 860 KFZC83 1 859 98 8
4 4 855 KFVC83 1 854 99 84 4 848 KFRC83 1 847 86 84 4 844 KFNC83 1 843 85 84 4 8
40 KFJC83 1 839 87 84 4 835 KFFC83 1 834 84 84 4 830 KFBC83 1 829 88 84 4 825 KF
9B83 1 824 83 84 4 820 KF5B83 1 819 89 84 4 815 KF1B83 1 814 82 84 4 810 KFxB83
 1 809 90 84 4 805 KFtB83 1 804 81 84 4 800 KFpB83 1 799 91 84 4 795 KFlB83 1 79
4 80 84 4 790 KFhB83 1 789 92 84 4 783 KFdB83 1 782 79 83 3 776 .792156862745098
 .819607843137255 .933333333333333 83 1 775 140 83 3 771 .792156862745098 .81960
7843137255 .933333333333333 83 1 770 141 83 1 766 142 83 1 762 143 83 1 759 144
 83 1 756 145 83 1 753 146 83 1 750 147 82 3 745 4 21 1 83 1 743 56 79 9 739 BTI
/DetId83 3 733 .792156862745098 .819607843137255 .933333333333333 83 3 729 .7921
56862745098 .819607843137255 .933333333333333 83 3 725 .792156862745098 .8196078
43137255 .933333333333333 83 3 721 .792156862745098 .819607843137255 .9333333333
33333 83 3 717 .792156862745098 .819607843137255 .933333333333333 84 3 713 JFi83
 3 712 .792156862745098 .819607843137255 .933333333333333 79 12 707 BTI/ExportId
84 3 681 JFy17 573 0 35 95 577 570 290 287 0 671 -17 95 0 35 87 573 567 293 242
 0 667 -17 96 0 663 213 98 567 87 97 0 95 -84 3 666 JFm84 4 657 KFmB84 4 620 KFQ
B84 4 615 KFMB84 4 474 KFwC84 4 453 KFpD84 3 203 JFN84 4 182 KFVB84 3 141 JFV84
 3 114 JFQ84 2 93 IF84 3 81 JFc84 3 70 JFg84 3 34 JFY19 18 226 0 1 0 9 5 0 S0 74
 4 CI16 index_map_offset0 0 1 dCCZ20 16 8 0 0 1439 1449 1428 1455 1459 13 1434 2
 0 0 0 0 0 0 0 0 0 0 0 0 84 3 15 JFD1 0 
