**ABCDEFGHIJKLMNOPQRSTUVWXYZabcdefghijklmnopqrstuvwxyz**************************
**PARASOLID !"#$%&'()*+,-./:;<=>?@[\]^_`{|}~0123456789**************************
**PART1;
MC=unknown;
MC_MODEL=unknown;
MC_ID=unknown;
OS=unknown;
OS_RELEASE=unknown;
FRU=sdl_parasolid_customer_support;
APPL=Example Application;
SITE=unknown;
USER=unknown;
FORMAT=text;
GUISE=transmit;
KEY=files/Part1.x_t;
FILE=files/Part1.x_t;
DATE=unknown;
**PART2;
SCH=SCH_3001220_30100;
USFLD_SIZE=0;
**PART3;
**END_OF_HEADER*****************************************************************
T51 : TRANSMIT FILE created by modeller version 300122023 SCH_3001220_30100_1300
6214 0 12 34 CCCCCCI4 mesh1006 0 I8 polyline1008 0 CCCCCCCDI5 owner1040 0 CCCCCC
I13 boundary_mesh1006 0 I17 boundary_polyline1008 0 CCCA16 index_map_offset0 0 1
 dA9 index_map82 0 A17 node_id_index_map82 0 A20 schema_embedding_map82 0 A5 chi
ld12 0 A14 lowest_node_id0 0 1 dA16 mesh_offset_data206 0 Z1 231 2 3 0 0 0 0 0 0
 1e3 1e-8 0 0 0 1 0 1 1 4 5 6 7 0 0 8 9 10 0 0 0 0 0 0 0 81 255 2 2 199 11 1 12
 0 0 0 0 13 70 11 CI9 list_type0 0 1 uI10 notransmit0 0 1 lCCCDCCDI12 finger_ind
ex0 0 1 dI12 finger_block1012 0 CZ3 0 4 T1 0 0 9 20 1 14 14 13 255 4 99 0 1 0 15
 0 0 16 0 50 255 5 94 0 15 17 0 0 +-.0092785979531762 .01 .00777082578578506 1 0
 0 0 0 -1 30 255 6 98 0 9 18 0 0 +-.0092785979531762 .01 .00777082578578506 0 -1
 0 29 255 7 75 0 19 20 0 -.0092785979531762 0 -.01449780930183778 19 8 CCCCCCCA5
 owner12 0 Z8 33 0 1 16 0 21 V0 16 255 9 82 22 ?23 0 24 6 0 0 1 18 255 10 30 25
 26 0 27 28 ?1 81 1 25 213 29 10 0 0 30 31 32 17 255 26 0 33 34 35 10 36 37 0 38
 +18 27 27 39 35 10 40 41 ?1 29 28 32 0 10 41 42 -.0092785979531762 .01 -.014497
80930183778 29 41 29 0 27 43 28 .01484575672508186 .01 -.01449780930183778 29 42
 78 0 44 28 45 -.0092785979531762 0 .00777082578578506 18 44 69 46 47 48 0 42 ?1
 29 45 77 0 48 42 20 .01484575672508186 0 .00777082578578506 18 48 68 49 50 51 4
4 45 ?1 29 20 76 0 51 45 7 .01484575672508186 0 -.01449780930183778 18 51 67 52
 53 19 48 20 ?1 81 1 52 223 29 51 0 0 54 55 56 17 53 0 57 58 59 51 60 61 0 62 +1
8 19 66 63 64 65 51 7 ?1 81 1 63 208 29 19 0 0 66 46 67 17 64 0 68 38 62 19 69 7
0 0 71 +18 65 21 72 73 40 19 74 ?1 81 1 72 211 29 65 0 0 22 30 75 17 73 0 76 23
 77 65 78 79 0 34 -18 40 24 80 78 27 65 43 ?1 29 74 23 0 65 0 43 -.0092785979531
762 .01 .00777082578578506 29 43 26 0 40 74 41 .01484575672508186 .01 .007770825
78578506 81 1 80 219 29 40 0 0 81 82 83 17 78 0 33 35 34 40 73 79 0 77 +15 255 3
3 4 0 34 84 0 17 35 0 33 26 78 27 85 86 0 58 +17 34 0 33 78 26 65 87 88 0 89 +16
 79 9 82 ?78 86 88 90 0 0 1 17 77 0 76 73 50 40 59 24 0 85 -15 76 87 0 50 91 0 1
7 50 0 76 77 23 48 47 92 0 59 +17 59 0 57 53 85 48 77 24 0 60 +16 24 81 81 ?59 9
 93 18 0 0 1 17 85 0 57 59 58 40 35 86 0 0 -15 57 85 0 53 94 0 17 58 0 57 85 53
 27 62 93 0 36 -16 86 13 95 ?35 37 79 96 0 0 1 81 1 95 226 29 86 0 0 39 97 98 16
 37 17 99 ?26 100 86 101 0 0 1 30 96 15 0 86 90 101 0 +.01484575672508186 .01 .0
0777082578578506 0 0 -1 30 90 11 0 79 102 96 0 +-.0092785979531762 .01 .00777082
578578506 1 0 0 30 101 19 0 37 96 103 0 +-.0092785979531762 .01 -.01449780930183
778 -1 0 0 30 103 74 0 104 101 105 0 +-.0092785979531762 0 .00777082578578506 0
 0 1 16 104 62 66 ?106 92 0 103 0 0 1 30 105 73 0 92 103 107 0 +-.00927859795317
62 0 .00777082578578506 1 0 0 16 92 58 108 ?50 61 104 105 0 0 1 30 107 72 0 61 1
05 109 0 +.01484575672508186 0 .00777082578578506 0 0 -1 16 61 54 54 ?53 70 92 1
07 0 0 1 30 109 71 0 70 107 110 0 +-.0092785979531762 0 -.01449780930183778 -1 0
 0 16 70 50 111 ?64 88 61 109 0 0 1 30 110 95 0 100 109 112 0 +-.009278597953176
2 .01 -.01449780930183778 0 -1 0 16 100 79 31 ?71 93 37 110 0 0 1 30 112 96 0 93
 110 18 0 +.01484575672508186 .01 -.01449780930183778 0 -1 0 16 93 80 55 ?62 24
 100 112 0 0 1 30 18 97 0 24 112 6 0 +.01484575672508186 .01 .00777082578578506
 0 -1 0 81 1 55 224 29 93 0 0 52 39 113 17 62 0 68 64 36 51 58 93 0 69 +15 68 83
 0 64 114 0 17 36 0 68 62 38 27 26 37 0 0 -17 69 0 115 60 116 51 64 70 0 0 -15 1
15 49 0 116 117 0 17 60 0 115 47 69 48 53 61 0 0 -17 116 0 115 69 47 19 106 104
 0 0 -17 47 0 115 116 60 44 50 92 0 23 -17 106 0 118 89 71 44 116 104 0 0 +15 11
8 89 0 106 15 0 17 89 0 118 87 106 65 23 9 0 0 -17 71 0 118 106 87 19 38 100 0 1
16 +17 87 0 118 71 89 10 34 88 0 0 -17 38 0 68 36 64 10 71 100 0 87 -16 88 5 30
 ?34 79 70 102 0 0 1 81 1 30 212 29 88 0 0 72 25 119 30 102 7 0 88 0 90 0 +-.009
2785979531762 .01 .00777082578578506 0 0 1 80 255 1 29 11 120 9000 1 1 1 1 1 1 1
 1 0 FFFFTFTTFFFFFF3 84 255 2 119 E679 255 12 120 BTI/ExportId17 23 0 76 50 73 4
4 89 9 0 106 +14 255 15 90 121 ?91 0 118 4 5 -0 0 91 0 21 81 1 121 206 29 15 122
 0 0 66 123 14 91 88 124 ?94 15 76 4 17 -0 0 94 15 21 13 21 34 0 0 0 0 0 0 8 15
 81 1 124 215 29 91 125 0 31 108 126 14 94 86 127 ?114 91 57 4 128 -0 0 114 91 2
1 50 17 93 0 91 128 5 0 +-.0092785979531762 .01 .00777082578578506 0 0 -1 -1 0 0
 50 128 92 0 94 129 17 0 +.01484575672508186 .01 .00777082578578506 -1 0 0 0 0 1
 50 129 91 0 114 130 128 0 +-.0092785979531762 .01 -.01449780930183778 0 0 1 1 0
 0 14 114 84 97 ?84 94 68 4 129 -0 0 84 94 21 50 130 70 0 117 131 129 0 +0 0 0 0
 -1 0 0 0 -1 14 117 48 132 ?0 84 115 4 130 +0 0 0 84 21 50 131 3 0 84 0 130 0 +0
 .01 0 0 -1 0 0 0 -1 14 84 1 133 ?117 114 33 4 131 -0 0 117 114 21 81 1 133 230
 29 84 134 0 99 132 135 81 1 134 205 136 84 137 133 138 0 139 81 1 99 229 29 37
 0 0 111 133 140 81 1 132 231 29 117 138 0 133 0 141 84 3 135 F2481 1 138 204 13
6 117 142 132 143 134 144 84 3 141 F2580 1 136 145 146 9000 1 1 1 1 1 1 1 1 0 FF
FFTFTFFFFFFF1 81 1 142 185 147 117 0 138 137 0 148 81 1 143 203 136 114 149 97 1
50 138 151 82 255 1 144 -1534656375 81 1 149 183 147 114 0 143 152 137 153 81 1
 97 227 29 114 143 0 95 111 154 81 1 150 202 136 94 152 127 125 143 155 82 1 151
 -1533738871 81 1 152 182 147 94 0 150 156 149 157 81 1 127 221 29 94 150 0 82 5
4 158 81 1 125 201 136 91 156 124 122 150 159 82 1 155 -1533476727 81 1 156 181
 147 91 0 125 160 152 161 81 1 122 200 136 15 160 121 0 125 162 82 1 159 -153321
4583 81 1 160 180 147 15 0 122 0 156 163 82 1 162 -1532952439 80 1 147 0 164 800
1 0 0 0 0 3 5 0 0 0 FFFFTFTFFFFFFF2 83 255 3 163 .792156862745098 .8196078431372
55 .933333333333333 79 15 164 SDL/TYSA_COLOUR83 3 161 .792156862745098 .81960784
3137255 .933333333333333 81 1 82 220 29 79 0 0 80 127 165 81 1 54 222 29 61 0 0
 127 52 166 84 3 158 F1584 3 166 E1684 3 165 E1483 3 157 .792156862745098 .81960
7843137255 .933333333333333 81 1 111 228 29 70 0 0 97 99 167 84 3 154 F2184 3 16
7 E2281 1 137 184 147 84 0 134 149 142 168 83 3 153 .792156862745098 .8196078431
37255 .933333333333333 83 3 168 .792156862745098 .819607843137255 .9333333333333
33 83 3 148 .792156862745098 .819607843137255 .933333333333333 79 14 146 SWEntUn
changed84 3 140 E2382 1 139 -1540292471 81 1 31 214 29 100 0 0 25 124 169 81 1 1
08 216 29 92 0 0 124 49 170 84 2 126 F981 1 49 217 29 48 0 0 108 81 171 84 3 170
 E1081 1 81 218 29 24 0 0 49 80 172 84 3 171 V1184 3 172 E1284 2 169 E881 1 66 2
07 29 104 0 0 121 63 173 84 2 123 F084 2 173 E181 1 39 225 29 27 0 0 55 95 174 8
4 3 113 E1884 3 174 V1984 3 98 E2084 3 83 V1381 1 22 210 29 9 0 0 46 72 175 84 2
 75 V581 1 46 209 29 44 0 0 63 22 176 84 2 175 E484 2 176 V384 2 67 V284 3 56 V1
784 2 32 V719 16 100 0 1 0 8 4 S0 74 4 CI16 index_map_offset0 0 1 dCCZ20 14 9 0
 0 177 178 134 179 180 12 142 2 132 0 0 0 0 0 0 0 0 0 0 0 81 2 177 124 181 1 0 1
78 0 0 0 182 81 2 178 128 145 1 177 179 0 0 0 183 81 1 179 135 184 1 178 180 0 0
 185 81 2 180 136 186 1 179 12 0 0 0 0 81 2 12 143 187 1 180 2 0 0 0 188 80 2 18
7 186 189 9000 0 0 0 0 3 5 0 0 0 FFTFFFFFFFFFFF9 1 82 1 188 1 79 24 189 BODY_IN_
LIGHTWEIGHT_PERM80 2 186 184 190 9000 0 0 0 0 3 5 0 0 0 FFTFFFFFFFFFFF9 1 79 16
 190 BODY_RECIPE_200180 1 184 136 191 9000 1 1 1 1 1 1 1 1 0 FFTFFFFFFFFFFF1 82
 1 185 42031 79 10 191 BODY_MATCH80 2 145 181 192 9000 0 0 0 0 3 5 0 0 0 FFTFFFF
FFFFFFF9 1 82 1 183 56 79 30 192 LAST_BODY_MODIFYING_FEATURE_ID80 2 181 193 194
 9000 0 0 0 0 3 5 0 0 0 FFTFFFFFFFFFFF9 1 82 1 182 121 79 19 194 ENT_TIME_STAMP_
200180 2 11 187 195 9000 0 0 0 0 3 5 0 0 0 FFTFFFFFFFFFFF9 1 82 1 13 103 79 12 1
95 ATOM_ID_20011 0 
